ScienceGothic-ExpCtrS.ufo
<glyph name="dollar" format="2">
  <advance width="2867"/>
  <unicode hex="0024"/>
  <outline>
    <contour>
      <point x="1176" y="-150" type="line"/>
      <point x="1390" y="-150" type="line"/>
      <point x="1419" y="16" type="line"/>
      <point x="2062" y="16" type="line" smooth="yes"/>
      <point x="2142.25" y="16"/>
      <point x="2273.91" y="39"/>
      <point x="2373.84" y="102"/>
      <point x="2440.62" y="213.5"/>
      <point x="2456" y="302" type="qcurve" smooth="yes"/>
      <point x="2482" y="452" type="line" smooth="yes"/>
      <point x="2497" y="538.25"/>
      <point x="2465.62" y="645.438"/>
      <point x="2385.38" y="705.062"/>
      <point x="2262.5" y="726"/>
      <point x="2186" y="726" type="qcurve" smooth="yes"/>
      <point x="1543" y="726" type="line"/>
      <point x="1651" y="1348" type="line"/>
      <point x="2366" y="1348" type="line"/>
      <point x="2366" y="1348"/>
      <point x="2366" y="1348"/>
      <point x="2366" y="1348" type="qcurve"/>
      <point x="2304" y="990" type="line"/>
      <point x="2565" y="1040" type="line"/>
      <point x="2577" y="1110" type="line" smooth="yes"/>
      <point x="2592" y="1195.5"/>
      <point x="2560.62" y="1302.5"/>
      <point x="2480.38" y="1362.5"/>
      <point x="2357.5" y="1384"/>
      <point x="2281" y="1384" type="qcurve" smooth="yes"/>
      <point x="1658" y="1384" type="line"/>
      <point x="1687" y="1550" type="line"/>
      <point x="1473" y="1550" type="line"/>
      <point x="1444" y="1384" type="line"/>
      <point x="829" y="1384" type="line" smooth="yes"/>
      <point x="753.25" y="1384"/>
      <point x="623.688" y="1362.5"/>
      <point x="522.812" y="1302.5"/>
      <point x="454" y="1195.5"/>
      <point x="439" y="1110" type="qcurve" smooth="yes"/>
      <point x="416" y="978" type="line" smooth="yes"/>
      <point x="400.625" y="889.5"/>
      <point x="428.094" y="777.375"/>
      <point x="505.156" y="713.625"/>
      <point x="627.5" y="690"/>
      <point x="707" y="690" type="qcurve" smooth="yes"/>
      <point x="1322" y="690" type="line"/>
      <point x="1211" y="52" type="line"/>
      <point x="476" y="52" type="line"/>
      <point x="476" y="52"/>
      <point x="476" y="52"/>
      <point x="476" y="52" type="qcurve"/>
      <point x="542" y="430" type="line"/>
      <point x="281" y="378" type="line"/>
      <point x="268" y="302" type="line" smooth="yes"/>
      <point x="252.625" y="213.5"/>
      <point x="280.406" y="102"/>
      <point x="357.844" y="39"/>
      <point x="480.5" y="16"/>
      <point x="560" y="16" type="qcurve" smooth="yes"/>
      <point x="1205" y="16" type="line"/>
    </contour>
    <contour>
      <point x="1329" y="726" type="line"/>
      <point x="624" y="726" type="line"/>
      <point x="624" y="726"/>
      <point x="624" y="726"/>
      <point x="624" y="726" type="qcurve"/>
      <point x="732" y="1348" type="line"/>
      <point x="732" y="1348"/>
      <point x="732" y="1348"/>
      <point x="732" y="1348" type="qcurve"/>
      <point x="1437" y="1348" type="line"/>
    </contour>
    <contour>
      <point x="1425" y="52" type="line"/>
      <point x="1536" y="690" type="line"/>
      <point x="2271" y="690" type="line"/>
      <point x="2271" y="690"/>
      <point x="2271" y="690"/>
      <point x="2271" y="690" type="qcurve"/>
      <point x="2160" y="52" type="line"/>
      <point x="2160" y="52"/>
      <point x="2160" y="52"/>
      <point x="2160" y="52" type="qcurve"/>
    </contour>
  </outline>
</glyph>
<glyph name="quotesingle" format="2">
  <advance width="994"/>
  <unicode hex="0027"/>
  <outline>
    <contour>
      <point x="459" y="1236" type="line"/>
      <point x="469" y="835" type="line"/>
      <point x="581" y="835" type="line"/>
      <point x="731" y="1236" type="line"/>
      <point x="748" y="1335" type="line" smooth="yes"/>
      <point x="763.092" y="1421.78"/>
      <point x="742.196" y="1452"/>
      <point x="669" y="1452" type="qcurve" smooth="yes"/>
      <point x="595" y="1452" type="line" smooth="yes"/>
      <point x="521.804" y="1452"/>
      <point x="491.092" y="1421.78"/>
      <point x="476" y="1335" type="qcurve" smooth="yes"/>
    </contour>
  </outline>
</glyph>
<glyph name="plus" format="2">
  <advance width="2043"/>
  <unicode hex="002B"/>
  <outline>
    <contour>
      <point x="1792" y="605" type="line"/>
      <point x="1029" y="605" type="line"/>
      <point x="1127" y="1168" type="line"/>
      <point x="1087" y="1168" type="line"/>
      <point x="989" y="605" type="line"/>
      <point x="226" y="605" type="line"/>
      <point x="219" y="569" type="line"/>
      <point x="982" y="569" type="line"/>
      <point x="883" y="0" type="line"/>
      <point x="923" y="0" type="line"/>
      <point x="1022" y="569" type="line"/>
      <point x="1785" y="569" type="line"/>
    </contour>
  </outline>
</glyph>
<glyph name="period" format="2">
  <advance width="1036"/>
  <unicode hex="002E"/>
  <outline>
    <contour>
      <point x="260" y="111" type="line" smooth="yes"/>
      <point x="244.908" y="22.7118"/>
      <point x="270.712" y="-8"/>
      <point x="359" y="-8" type="qcurve" smooth="yes"/>
      <point x="435" y="-8" type="line" smooth="yes"/>
      <point x="522.75" y="-8"/>
      <point x="560" y="23.25"/>
      <point x="575" y="111" type="qcurve" smooth="yes"/>
      <point x="589" y="190" type="line" smooth="yes"/>
      <point x="604.092" y="276.779"/>
      <point x="578.288" y="307"/>
      <point x="490" y="307" type="qcurve" smooth="yes"/>
      <point x="414" y="307" type="line" smooth="yes"/>
      <point x="326.25" y="307"/>
      <point x="289" y="276.25"/>
      <point x="274" y="190" type="qcurve" smooth="yes"/>
    </contour>
  </outline>
</glyph>
<glyph name="slash" format="2">
  <advance width="1592"/>
  <unicode hex="002F"/>
  <outline>
    <contour>
      <point x="1267" y="1430" type="line"/>
      <point x="43" y="-100" type="line"/>
      <point x="320" y="-100" type="line"/>
      <point x="1544" y="1430" type="line"/>
    </contour>
  </outline>
</glyph>
<glyph name="zero" format="2">
  <advance width="2778"/>
  <unicode hex="0030"/>
  <outline>
    <contour>
      <point x="624" y="0" type="qcurve" smooth="yes"/>
      <point x="1914" y="0" type="line" smooth="yes"/>
      <point x="2075.48" y="0"/>
      <point x="2277.06" y="107.914"/>
      <point x="2308" y="286" type="qcurve" smooth="yes"/>
      <point x="2455" y="1126" type="line" smooth="yes"/>
      <point x="2484.25" y="1297"/>
      <point x="2309.5" y="1400"/>
      <point x="2158" y="1400" type="qcurve" smooth="yes"/>
      <point x="868" y="1400" type="line" smooth="yes"/>
      <point x="716.5" y="1400"/>
      <point x="508.25" y="1297"/>
      <point x="479" y="1126" type="qcurve" smooth="yes"/>
      <point x="332" y="286" type="line" smooth="yes"/>
      <point x="301.061" y="109.424"/>
      <point x="462.516" y="0"/>
    </contour>
    <contour>
      <point x="552" y="36" type="line"/>
      <point x="552" y="36"/>
      <point x="552" y="36"/>
      <point x="552" y="36" type="qcurve"/>
      <point x="784" y="1364" type="line"/>
      <point x="784" y="1364"/>
      <point x="784" y="1364"/>
      <point x="784" y="1364" type="qcurve"/>
      <point x="2232" y="1364" type="line"/>
      <point x="2232" y="1364"/>
      <point x="2232" y="1364"/>
      <point x="2232" y="1364" type="qcurve"/>
      <point x="2000" y="36" type="line"/>
      <point x="2000" y="36"/>
      <point x="2000" y="36"/>
      <point x="2000" y="36" type="qcurve"/>
    </contour>
  </outline>
</glyph>
<glyph name="four" format="2">
  <advance width="2587"/>
  <unicode hex="0034"/>
  <outline>
    <contour>
      <point x="-78" y="402" type="line"/>
      <point x="1521" y="402" type="line"/>
      <point x="1451" y="0" type="line"/>
      <point x="1715" y="0" type="line"/>
      <point x="1785" y="402" type="line"/>
      <point x="2277" y="402" type="line"/>
      <point x="2283" y="438" type="line"/>
      <point x="1791" y="438" type="line"/>
      <point x="1959" y="1400" type="line"/>
      <point x="1859" y="1400" type="line"/>
      <point x="-72" y="438" type="line"/>
    </contour>
    <contour>
      <point x="9" y="438" type="line"/>
      <point x="1672" y="1267" type="line"/>
      <point x="1527" y="438" type="line"/>
    </contour>
  </outline>
</glyph>
<glyph name="colon" format="2">
  <advance width="1037"/>
  <unicode hex="003A"/>
  <outline>
    <contour>
      <point x="261" y="111" type="line" smooth="yes"/>
      <point x="253.5" y="67.125"/>
      <point x="249.656" y="18.9688"/>
      <point x="268.594" y="-3.71875"/>
      <point x="316.125" y="-8"/>
      <point x="360" y="-8" type="qcurve" smooth="yes"/>
      <point x="436" y="-8" type="line" smooth="yes"/>
      <point x="479.875" y="-8"/>
      <point x="528.969" y="-3.71875"/>
      <point x="555.781" y="18.9688"/>
      <point x="568.5" y="67.125"/>
      <point x="576" y="111" type="qcurve" smooth="yes"/>
      <point x="590" y="190" type="line" smooth="yes"/>
      <point x="597.5" y="233.125"/>
      <point x="601.344" y="280.469"/>
      <point x="582.406" y="302.781"/>
      <point x="534.875" y="307"/>
      <point x="491" y="307" type="qcurve" smooth="yes"/>
      <point x="415" y="307" type="line" smooth="yes"/>
      <point x="371.125" y="307"/>
      <point x="322.031" y="302.781"/>
      <point x="295.219" y="280.469"/>
      <point x="282.5" y="233.125"/>
      <point x="275" y="190" type="qcurve" smooth="yes"/>
    </contour>
    <contour>
      <point x="384" y="814" type="line" smooth="yes"/>
      <point x="376.5" y="770.125"/>
      <point x="372.344" y="721.969"/>
      <point x="390.906" y="699.281"/>
      <point x="438.125" y="695"/>
      <point x="482" y="695" type="qcurve" smooth="yes"/>
      <point x="558" y="695" type="line" smooth="yes"/>
      <point x="601.875" y="695"/>
      <point x="651.281" y="699.281"/>
      <point x="678.469" y="721.969"/>
      <point x="691.5" y="770.125"/>
      <point x="699" y="814" type="qcurve" smooth="yes"/>
      <point x="713" y="893" type="line" smooth="yes"/>
      <point x="720.5" y="936.125"/>
      <point x="724.031" y="983.469"/>
      <point x="704.719" y="1005.78"/>
      <point x="656.875" y="1010"/>
      <point x="613" y="1010" type="qcurve" smooth="yes"/>
      <point x="537" y="1010" type="line" smooth="yes"/>
      <point x="493.125" y="1010"/>
      <point x="444.344" y="1005.78"/>
      <point x="417.906" y="983.469"/>
      <point x="405.5" y="936.125"/>
      <point x="398" y="893" type="qcurve" smooth="yes"/>
    </contour>
  </outline>
</glyph>
<glyph name="semicolon" format="2">
  <advance width="1037"/>
  <unicode hex="003B"/>
  <outline>
    <contour>
      <point x="271" y="-290" type="line"/>
      <point x="299" y="-300" type="line"/>
      <point x="551" y="25" type="line"/>
      <point x="467" y="25" type="line"/>
    </contour>
    <contour>
      <point x="263" y="121" type="line" smooth="yes"/>
      <point x="247.908" y="32.7118"/>
      <point x="272.712" y="2"/>
      <point x="361" y="2" type="qcurve" smooth="yes"/>
      <point x="437" y="2" type="line" smooth="yes"/>
      <point x="524.75" y="2"/>
      <point x="563" y="33.25"/>
      <point x="578" y="121" type="qcurve" smooth="yes"/>
      <point x="590" y="190" type="line" smooth="yes"/>
      <point x="605.092" y="276.779"/>
      <point x="579.288" y="307"/>
      <point x="491" y="307" type="qcurve" smooth="yes"/>
      <point x="415" y="307" type="line" smooth="yes"/>
      <point x="327.25" y="307"/>
      <point x="290" y="276.25"/>
      <point x="275" y="190" type="qcurve" smooth="yes"/>
    </contour>
    <contour>
      <point x="384" y="814" type="line" smooth="yes"/>
      <point x="368.908" y="725.712"/>
      <point x="393.712" y="695"/>
      <point x="482" y="695" type="qcurve" smooth="yes"/>
      <point x="558" y="695" type="line" smooth="yes"/>
      <point x="645.75" y="695"/>
      <point x="684" y="726.25"/>
      <point x="699" y="814" type="qcurve" smooth="yes"/>
      <point x="713" y="893" type="line" smooth="yes"/>
      <point x="728.092" y="979.779"/>
      <point x="701.288" y="1010"/>
      <point x="613" y="1010" type="qcurve" smooth="yes"/>
      <point x="537" y="1010" type="line" smooth="yes"/>
      <point x="449.25" y="1010"/>
      <point x="413" y="979.25"/>
      <point x="398" y="893" type="qcurve" smooth="yes"/>
    </contour>
  </outline>
</glyph>
<glyph name="less" format="2">
  <advance width="2043"/>
  <unicode hex="003C"/>
  <outline>
    <contour>
      <point x="1686" y="0" type="line"/>
      <point x="1692" y="38" type="line"/>
      <point x="279" y="582" type="line"/>
      <point x="1882" y="1127" type="line"/>
      <point x="1890" y="1168" type="line"/>
      <point x="225" y="602" type="line"/>
      <point x="219" y="566" type="line"/>
    </contour>
  </outline>
</glyph>
<glyph name="equal" format="2">
  <advance width="2043"/>
  <unicode hex="003D"/>
  <outline>
    <contour>
      <point x="302" y="789" type="line"/>
      <point x="1780" y="789" type="line"/>
      <point x="1787" y="825" type="line"/>
      <point x="309" y="825" type="line"/>
    </contour>
    <contour>
      <point x="225" y="349" type="line"/>
      <point x="1703" y="349" type="line"/>
      <point x="1710" y="385" type="line"/>
      <point x="232" y="385" type="line"/>
    </contour>
  </outline>
</glyph>
<glyph name="at" format="2">
  <advance width="2953"/>
  <unicode hex="0040"/>
  <outline>
    <contour>
      <point x="294" y="160" type="line" smooth="yes"/>
      <point x="263.25" y="-14"/>
      <point x="428" y="-123"/>
      <point x="587" y="-123" type="qcurve" smooth="yes"/>
      <point x="2247" y="-123" type="line"/>
      <point x="2253" y="-87" type="line"/>
      <point x="593" y="-87" type="line" smooth="yes"/>
      <point x="500.939" y="-87"/>
      <point x="453.945" y="-24.3128"/>
      <point x="463" y="27" type="qcurve" smooth="yes"/>
      <point x="637" y="1024" type="line" smooth="yes"/>
      <point x="648.319" y="1088.14"/>
      <point x="739.35" y="1127"/>
      <point x="805" y="1127" type="qcurve" smooth="yes"/>
      <point x="2306" y="1127" type="line" smooth="yes"/>
      <point x="2398.82" y="1127"/>
      <point x="2444.55" y="1070.03"/>
      <point x="2437" y="1024" type="qcurve" smooth="yes"/>
      <point x="2296" y="216" type="line" smooth="yes"/>
      <point x="2288.45" y="174.497"/>
      <point x="2243.48" y="141"/>
      <point x="2205" y="141" type="qcurve" smooth="yes"/>
      <point x="2077" y="141" type="line" smooth="yes"/>
      <point x="2034.25" y="141"/>
      <point x="2003.5" y="175.5"/>
      <point x="2011" y="216" type="qcurve" smooth="yes"/>
      <point x="2125" y="872" type="line"/>
      <point x="1902" y="872" type="line"/>
      <point x="1899" y="854" type="line"/>
      <point x="1894.47" y="860.791"/>
      <point x="1871.37" y="872"/>
      <point x="1851" y="872" type="qcurve" smooth="yes"/>
      <point x="1073" y="872" type="line" smooth="yes"/>
      <point x="972.638" y="872"/>
      <point x="871.337" y="799.742"/>
      <point x="857" y="719" type="qcurve" smooth="yes"/>
      <point x="788" y="320" type="line" smooth="yes"/>
      <point x="772.908" y="233.976"/>
      <point x="847.884" y="160"/>
      <point x="949" y="160" type="qcurve" smooth="yes"/>
      <point x="1694" y="160" type="line" smooth="yes"/>
      <point x="1737.01" y="160"/>
      <point x="1790.91" y="188.626"/>
      <point x="1806" y="209" type="qcurve"/>
      <point x="1819.58" y="172.025"/>
      <point x="1897.03" y="113"/>
      <point x="1974" y="113" type="qcurve" smooth="yes"/>
      <point x="2190" y="113" type="line" smooth="yes"/>
      <point x="2316.02" y="113"/>
      <point x="2482.1" y="184.871"/>
      <point x="2507" y="329" type="qcurve" smooth="yes"/>
      <point x="2606" y="891" type="line" smooth="yes"/>
      <point x="2620.62" y="975.75"/>
      <point x="2588.66" y="1081.94"/>
      <point x="2508.59" y="1141.56"/>
      <point x="2387" y="1163"/>
      <point x="2312" y="1163" type="qcurve" smooth="yes"/>
      <point x="811" y="1163" type="line" smooth="yes"/>
      <point x="661" y="1163"/>
      <point x="451.25" y="1060.5"/>
      <point x="422" y="891" type="qcurve" smooth="yes"/>
    </contour>
    <contour>
      <point x="992" y="192" type="qcurve"/>
      <point x="1105" y="840" type="line"/>
      <point x="1105" y="840"/>
      <point x="1105" y="840"/>
      <point x="1105" y="840" type="qcurve"/>
      <point x="1897" y="840" type="line"/>
      <point x="1799" y="283" type="line" smooth="yes"/>
      <point x="1791.45" y="237.724"/>
      <point x="1741.77" y="192"/>
      <point x="1698" y="192" type="qcurve" smooth="yes"/>
      <point x="992" y="192" type="line"/>
      <point x="992" y="192"/>
      <point x="992" y="192"/>
    </contour>
  </outline>
  <guideline angle="0" x="0" y="538"/>
</glyph>
<glyph name="C" format="2">
  <advance width="2905"/>
  <unicode hex="0043"/>
  <anchor x="1596" y="1550" name="top"/>
  <anchor x="1355" y="-150" name="bottom"/>
  <outline>
    <contour>
      <point x="467" y="1148" type="qcurve" smooth="yes"/>
      <point x="313" y="266" type="line" smooth="yes"/>
      <point x="288.098" y="121.117"/>
      <point x="411.442" y="0"/>
      <point x="585" y="0" type="qcurve" smooth="yes"/>
      <point x="2125" y="0" type="line" smooth="yes"/>
      <point x="2298.56" y="0"/>
      <point x="2466.1" y="121.117"/>
      <point x="2491" y="266" type="qcurve" smooth="yes"/>
      <point x="2528" y="478" type="line"/>
      <point x="2274" y="530" type="line"/>
      <point x="2187" y="36" type="line"/>
      <point x="2187" y="36"/>
      <point x="2187" y="36"/>
      <point x="2187" y="36" type="qcurve"/>
      <point x="537" y="36" type="line"/>
      <point x="537" y="36"/>
      <point x="537" y="36"/>
      <point x="537" y="36" type="qcurve"/>
      <point x="769" y="1364" type="line"/>
      <point x="769" y="1364"/>
      <point x="769" y="1364"/>
      <point x="769" y="1364" type="qcurve"/>
      <point x="2411" y="1364" type="line"/>
      <point x="2411" y="1364"/>
      <point x="2411" y="1364"/>
      <point x="2411" y="1364" type="qcurve"/>
      <point x="2329" y="896" type="line"/>
      <point x="2602" y="944" type="line"/>
      <point x="2637" y="1148" type="line" smooth="yes"/>
      <point x="2661" y="1283"/>
      <point x="2534.5" y="1400"/>
      <point x="2365" y="1400" type="qcurve" smooth="yes"/>
      <point x="827" y="1400" type="line" smooth="yes"/>
      <point x="657.5" y="1400"/>
      <point x="491" y="1283"/>
    </contour>
  </outline>
</glyph>
<glyph name="M" format="2">
  <advance width="3261"/>
  <unicode hex="004D"/>
  <anchor x="1784" y="1550" name="top"/>
  <anchor x="1487" y="-150" name="bottom"/>
  <outline>
    <contour>
      <point x="283" y="0" type="line"/>
      <point x="321" y="0" type="line"/>
      <point x="521" y="1147" type="line"/>
      <point x="1463" y="210" type="line"/>
      <point x="2685" y="1192" type="line"/>
      <point x="2477" y="0" type="line"/>
      <point x="2741" y="0" type="line"/>
      <point x="2985" y="1400" type="line"/>
      <point x="2891" y="1400" type="line"/>
      <point x="1645" y="399" type="line"/>
      <point x="639" y="1400" type="line"/>
      <point x="527" y="1400" type="line"/>
    </contour>
  </outline>
</glyph>
<glyph name="S" format="2">
  <advance width="2867"/>
  <unicode hex="0053"/>
  <anchor x="1582" y="1564" name="top"/>
  <anchor x="1280" y="-164" name="bottom"/>
  <outline>
    <contour>
      <point x="281" y="378" type="line"/>
      <point x="262" y="272" type="line" smooth="yes"/>
      <point x="246.625" y="183.5"/>
      <point x="274.406" y="72"/>
      <point x="351.844" y="9"/>
      <point x="474.5" y="-14"/>
      <point x="554" y="-14" type="qcurve" smooth="yes"/>
      <point x="2056" y="-14" type="line" smooth="yes"/>
      <point x="2216.5" y="-14"/>
      <point x="2419.25" y="95"/>
      <point x="2450" y="272" type="qcurve" smooth="yes"/>
      <point x="2481" y="452" type="line" smooth="yes"/>
      <point x="2496.38" y="538.25"/>
      <point x="2465.09" y="645.438"/>
      <point x="2384.66" y="705.062"/>
      <point x="2261.5" y="726"/>
      <point x="2185" y="726" type="qcurve" smooth="yes"/>
      <point x="623" y="726" type="line"/>
      <point x="623" y="726"/>
      <point x="623" y="726"/>
      <point x="623" y="726" type="qcurve"/>
      <point x="737" y="1378" type="line"/>
      <point x="737" y="1378"/>
      <point x="737" y="1378"/>
      <point x="737" y="1378" type="qcurve"/>
      <point x="2371" y="1378" type="line"/>
      <point x="2371" y="1378"/>
      <point x="2371" y="1378"/>
      <point x="2371" y="1378" type="qcurve"/>
      <point x="2303" y="990" type="line"/>
      <point x="2564" y="1040" type="line"/>
      <point x="2582" y="1140" type="line" smooth="yes"/>
      <point x="2596.62" y="1225.5"/>
      <point x="2564.84" y="1332.5"/>
      <point x="2484.41" y="1392.5"/>
      <point x="2361.5" y="1414"/>
      <point x="2285" y="1414" type="qcurve" smooth="yes"/>
      <point x="833" y="1414" type="line" smooth="yes"/>
      <point x="757.25" y="1414"/>
      <point x="627.719" y="1392.5"/>
      <point x="527.031" y="1332.5"/>
      <point x="458.625" y="1225.5"/>
      <point x="444" y="1140" type="qcurve" smooth="yes"/>
      <point x="415" y="978" type="line" smooth="yes"/>
      <point x="399.625" y="889.5"/>
      <point x="427.406" y="777.375"/>
      <point x="504.844" y="713.625"/>
      <point x="627.5" y="690"/>
      <point x="707" y="690" type="qcurve" smooth="yes"/>
      <point x="2271" y="690" type="line"/>
      <point x="2271" y="690"/>
      <point x="2271" y="690"/>
      <point x="2271" y="690" type="qcurve"/>
      <point x="2154" y="22" type="line"/>
      <point x="2154" y="22"/>
      <point x="2154" y="22"/>
      <point x="2154" y="22" type="qcurve"/>
      <point x="470" y="22" type="line"/>
      <point x="470" y="22"/>
      <point x="470" y="22"/>
      <point x="470" y="22" type="qcurve"/>
      <point x="542" y="430" type="line"/>
    </contour>
  </outline>
</glyph>
<glyph name="backslash" format="2">
  <advance width="1558"/>
  <unicode hex="005C"/>
  <outline>
    <contour>
      <point x="550" y="1430" type="line"/>
      <point x="313" y="1430" type="line"/>
      <point x="1003" y="-100" type="line"/>
      <point x="1240" y="-100" type="line"/>
    </contour>
  </outline>
</glyph>
<glyph name="q" format="2">
  <advance width="2311"/>
  <unicode hex="0071"/>
  <anchor x="1303" y="1598" name="top"/>
  <anchor x="998" y="-150" name="bottom"/>
  <outline>
    <contour>
      <point x="218" y="208" type="line" smooth="yes"/>
      <point x="197.626" y="91.7916"/>
      <point x="298.154" y="-6"/>
      <point x="437" y="-6" type="qcurve" smooth="yes"/>
      <point x="1545" y="-6" type="line" smooth="yes"/>
      <point x="1572.17" y="-6"/>
      <point x="1613.17" y="8.4172"/>
      <point x="1626" y="22" type="qcurve"/>
      <point x="1547" y="-428" type="line"/>
      <point x="1795" y="-428" type="line"/>
      <point x="2045" y="1000" type="line"/>
      <point x="1797" y="1000" type="line"/>
      <point x="1793" y="982" type="line"/>
      <point x="1789.23" y="994.074"/>
      <point x="1753.69" y="1006"/>
      <point x="1722" y="1006" type="qcurve" smooth="yes"/>
      <point x="614" y="1006" type="line" smooth="yes"/>
      <point x="476.663" y="1006"/>
      <point x="340.865" y="910.662"/>
      <point x="322" y="802" type="qcurve" smooth="yes"/>
    </contour>
    <contour>
      <point x="435" y="26" type="qcurve"/>
      <point x="600" y="974" type="line"/>
      <point x="600" y="974"/>
      <point x="600" y="974"/>
      <point x="600" y="974" type="qcurve"/>
      <point x="1792" y="974" type="line"/>
      <point x="1627" y="26" type="line"/>
      <point x="435" y="26" type="line"/>
      <point x="435" y="26"/>
      <point x="435" y="26"/>
    </contour>
  </outline>
  <guideline angle="0" x="0" y="988"/>
  <guideline angle="0" x="0" y="42"/>
</glyph>
<glyph name="v" format="2">
  <advance width="1775"/>
  <unicode hex="0076"/>
  <anchor x="970" y="1150" name="top"/>
  <anchor x="743" y="-150" name="bottom"/>
  <outline>
    <contour>
      <point x="720" y="0" type="line"/>
      <point x="835" y="0" type="line"/>
      <point x="1799" y="1000" type="line"/>
      <point x="1753" y="1000" type="line"/>
      <point x="919" y="132" type="line"/>
      <point x="376" y="1000" type="line"/>
      <point x="89" y="1000" type="line"/>
    </contour>
  </outline>
</glyph>
<glyph name="asciitilde" format="2">
  <advance width="2043"/>
  <unicode hex="007E"/>
  <outline>
    <contour>
      <point x="305" y="407" type="qcurve"/>
      <point x="340" y="401" type="line"/>
      <point x="356.875" y="446"/>
      <point x="400.469" y="536.312"/>
      <point x="463.281" y="608.688"/>
      <point x="550" y="654"/>
      <point x="610" y="654" type="qcurve" smooth="yes"/>
      <point x="687.25" y="654"/>
      <point x="840.281" y="565.875"/>
      <point x="1003.97" y="460.125"/>
      <point x="1184.38" y="372"/>
      <point x="1289" y="372" type="qcurve" smooth="yes"/>
      <point x="1373.75" y="372"/>
      <point x="1505.56" y="440.875"/>
      <point x="1606.44" y="552.625"/>
      <point x="1679.75" y="694.25"/>
      <point x="1706" y="767" type="qcurve"/>
      <point x="1671" y="773" type="line"/>
      <point x="1654.12" y="728"/>
      <point x="1607.41" y="637.688"/>
      <point x="1540.84" y="565.312"/>
      <point x="1451" y="520"/>
      <point x="1391" y="520" type="qcurve" smooth="yes"/>
      <point x="1313.75" y="520"/>
      <point x="1160.72" y="608.125"/>
      <point x="997.031" y="713.875"/>
      <point x="816.625" y="802"/>
      <point x="712" y="802" type="qcurve" smooth="yes"/>
      <point x="627.25" y="802"/>
      <point x="498.281" y="732.562"/>
      <point x="400.969" y="620.438"/>
      <point x="330.875" y="479"/>
    </contour>
  </outline>
</glyph>
<glyph name="exclamdown" format="2">
  <advance width="1094"/>
  <unicode hex="00A1"/>
  <outline>
    <contour>
      <point x="738" y="881" type="line" smooth="yes"/>
      <point x="753.092" y="969.288"/>
      <point x="727.288" y="1000"/>
      <point x="639" y="1000" type="qcurve" smooth="yes"/>
      <point x="563" y="1000" type="line" smooth="yes"/>
      <point x="475.25" y="1000"/>
      <point x="438" y="968.75"/>
      <point x="423" y="881" type="qcurve" smooth="yes"/>
      <point x="409" y="802" type="line" smooth="yes"/>
      <point x="393.908" y="715.221"/>
      <point x="419.712" y="685"/>
      <point x="508" y="685" type="qcurve" smooth="yes"/>
      <point x="584" y="685" type="line" smooth="yes"/>
      <point x="671.75" y="685"/>
      <point x="709" y="715.75"/>
      <point x="724" y="802" type="qcurve" smooth="yes"/>
    </contour>
    <contour>
      <point x="536" y="530" type="line"/>
      <point x="501" y="530" type="line"/>
      <point x="169" y="-408" type="line"/>
      <point x="542" y="-408" type="line"/>
    </contour>
  </outline>
</glyph>
<glyph name="currency" format="2">
  <advance width="2669"/>
  <unicode hex="00A4"/>
  <outline>
    <contour>
      <point x="115" y="53" type="line"/>
      <point x="357" y="226" type="line"/>
      <point x="384.92" y="212.417"/>
      <point x="461.687" y="200"/>
      <point x="513" y="200" type="qcurve" smooth="yes"/>
      <point x="1989" y="200" type="line" smooth="yes"/>
      <point x="2040.31" y="200"/>
      <point x="2121.31" y="212.417"/>
      <point x="2153" y="226" type="qcurve"/>
      <point x="2335" y="53" type="line"/>
      <point x="2363" y="80" type="line"/>
      <point x="2189" y="245" type="line"/>
      <point x="2227.48" y="270.656"/>
      <point x="2271.44" y="353.632"/>
      <point x="2282" y="414" type="qcurve" smooth="yes"/>
      <point x="2384" y="996" type="line" smooth="yes"/>
      <point x="2393.81" y="1051.84"/>
      <point x="2376.67" y="1130.1"/>
      <point x="2348" y="1155" type="qcurve"/>
      <point x="2579" y="1320" type="line"/>
      <point x="2561" y="1347" type="line"/>
      <point x="2319" y="1174" type="line"/>
      <point x="2291.08" y="1187.58"/>
      <point x="2214.31" y="1200"/>
      <point x="2163" y="1200" type="qcurve" smooth="yes"/>
      <point x="687" y="1200" type="line" smooth="yes"/>
      <point x="635.687" y="1200"/>
      <point x="554.693" y="1187.58"/>
      <point x="523" y="1174" type="qcurve"/>
      <point x="341" y="1347" type="line"/>
      <point x="313" y="1320" type="line"/>
      <point x="487" y="1155" type="line"/>
      <point x="449.27" y="1130.1"/>
      <point x="405.81" y="1051.84"/>
      <point x="396" y="996" type="qcurve" smooth="yes"/>
      <point x="294" y="414" type="line" smooth="yes"/>
      <point x="283.436" y="353.632"/>
      <point x="299.571" y="270.656"/>
      <point x="329" y="245" type="qcurve"/>
      <point x="97" y="80" type="line"/>
    </contour>
    <contour>
      <point x="510" y="232" type="line"/>
      <point x="510" y="232"/>
      <point x="510" y="232"/>
      <point x="510" y="232" type="qcurve"/>
      <point x="674" y="1168" type="line"/>
      <point x="674" y="1168"/>
      <point x="674" y="1168"/>
      <point x="674" y="1168" type="qcurve"/>
      <point x="2166" y="1168" type="line"/>
      <point x="2166" y="1168"/>
      <point x="2166" y="1168"/>
      <point x="2166" y="1168" type="qcurve"/>
      <point x="2002" y="232" type="line"/>
      <point x="2002" y="232"/>
      <point x="2002" y="232"/>
      <point x="2002" y="232" type="qcurve"/>
    </contour>
  </outline>
</glyph>
<glyph name="logicalnot" format="2">
  <advance width="2043"/>
  <unicode hex="00AC"/>
  <outline>
    <contour>
      <point x="1747" y="349" type="line"/>
      <point x="1830" y="825" type="line"/>
      <point x="264" y="825" type="line"/>
      <point x="258" y="789" type="line"/>
      <point x="1784" y="789" type="line"/>
      <point x="1707" y="349" type="line"/>
    </contour>
  </outline>
</glyph>
<glyph name="plusminus" format="2">
  <advance width="2043"/>
  <unicode hex="00B1"/>
  <outline>
    <contour>
      <point x="1814" y="726" type="line"/>
      <point x="1051" y="726" type="line"/>
      <point x="1128" y="1168" type="line"/>
      <point x="1088" y="1168" type="line"/>
      <point x="1011" y="726" type="line"/>
      <point x="248" y="726" type="line"/>
      <point x="241" y="690" type="line"/>
      <point x="1004" y="690" type="line"/>
      <point x="927" y="248" type="line"/>
      <point x="967" y="248" type="line"/>
      <point x="1044" y="690" type="line"/>
      <point x="1807" y="690" type="line"/>
    </contour>
    <contour>
      <point x="119" y="0" type="line"/>
      <point x="1685" y="0" type="line"/>
      <point x="1691" y="36" type="line"/>
      <point x="125" y="36" type="line"/>
    </contour>
  </outline>
</glyph>
<glyph name="cedilla" format="2">
  <advance width="367"/>
  <unicode hex="00B8"/>
  <outline>
    <contour>
      <point x="-53" y="-438" type="qcurve" smooth="yes"/>
      <point x="7.75" y="-438"/>
      <point x="104.781" y="-419.719"/>
      <point x="175.469" y="-382.031"/>
      <point x="218.875" y="-324.375"/>
      <point x="226" y="-285" type="qcurve" smooth="yes"/>
      <point x="233.5" y="-242.25"/>
      <point x="212.969" y="-175.594"/>
      <point x="157.281" y="-129.656"/>
      <point x="66.625" y="-105.375"/>
      <point x="4" y="-105" type="qcurve"/>
      <point x="87" y="0" type="line"/>
      <point x="1" y="0" type="line"/>
      <point x="-113" y="-141" type="line"/>
      <point x="-94.135" y="-136.472"/>
      <point x="-68.6012" y="-134"/>
      <point x="-52" y="-134" type="qcurve" smooth="yes"/>
      <point x="9.1226" y="-134"/>
      <point x="67.319" y="-195.086"/>
      <point x="56" y="-263" type="qcurve" smooth="yes"/>
      <point x="43.9264" y="-330.159"/>
      <point x="-33.724" y="-408"/>
      <point x="-79" y="-408" type="qcurve" smooth="yes"/>
      <point x="-123.521" y="-408"/>
      <point x="-177.153" y="-381.601"/>
      <point x="-193" y="-365" type="qcurve"/>
      <point x="-218" y="-389" type="line"/>
      <point x="-187.816" y="-413.147"/>
      <point x="-113.368" y="-438"/>
    </contour>
  </outline>
</glyph>
<glyph name="onehalf" format="2">
  <advance width="2749"/>
  <unicode hex="00BD"/>
  <outline>
    <contour>
      <point x="319" y="614" type="line"/>
      <point x="519" y="614" type="line"/>
      <point x="657" y="1406" type="line"/>
      <point x="215" y="1351" type="line"/>
      <point x="209" y="1321" type="line"/>
      <point x="447" y="1350" type="line"/>
    </contour>
    <contour>
      <point x="1712" y="1400" type="line"/>
      <point x="68" y="0" type="line"/>
      <point x="111" y="0" type="line"/>
      <point x="1755" y="1400" type="line"/>
    </contour>
    <contour>
      <point x="1166" y="0" type="line"/>
      <point x="2154" y="0" type="line" smooth="yes"/>
      <point x="2251.34" y="0"/>
      <point x="2380.91" y="56.2026"/>
      <point x="2396" y="146" type="qcurve" smooth="yes"/>
      <point x="2408" y="214" type="line"/>
      <point x="2213" y="239" type="line"/>
      <point x="2176" y="30" type="line"/>
      <point x="2176" y="30"/>
      <point x="2176" y="30"/>
      <point x="2176" y="30" type="qcurve"/>
      <point x="1371" y="30" type="line"/>
      <point x="1403" y="213" type="line" smooth="yes"/>
      <point x="1407.53" y="240.92"/>
      <point x="1438.33" y="281.718"/>
      <point x="1467" y="287" type="qcurve" smooth="yes"/>
      <point x="2312" y="445" type="line" smooth="yes"/>
      <point x="2385.95" y="458.583"/>
      <point x="2466.93" y="542.35"/>
      <point x="2479" y="608" type="qcurve" smooth="yes"/>
      <point x="2486" y="645" type="line" smooth="yes"/>
      <point x="2498.83" y="714.423"/>
      <point x="2422.93" y="784"/>
      <point x="2352" y="784" type="qcurve" smooth="yes"/>
      <point x="1484" y="784" type="line" smooth="yes"/>
      <point x="1413.07" y="784"/>
      <point x="1312.07" y="706.423"/>
      <point x="1300" y="637" type="qcurve" smooth="yes"/>
      <point x="1280" y="524" type="line"/>
      <point x="1476" y="500" type="line"/>
      <point x="1521" y="754" type="line"/>
      <point x="1521" y="754"/>
      <point x="1521" y="754"/>
      <point x="1521" y="754" type="qcurve"/>
      <point x="2305" y="754" type="line"/>
      <point x="2305" y="754"/>
      <point x="2305" y="754"/>
      <point x="2305" y="754" type="qcurve"/>
      <point x="2266" y="536" type="line" smooth="yes"/>
      <point x="2258.45" y="494.497"/>
      <point x="2228.75" y="459.546"/>
      <point x="2188" y="452" type="qcurve" smooth="yes"/>
      <point x="1332" y="292" type="line" smooth="yes"/>
      <point x="1270.88" y="280.681"/>
      <point x="1201.06" y="204.067"/>
      <point x="1192" y="152" type="qcurve" smooth="yes"/>
    </contour>
  </outline>
  <guideline angle="90" color="0.4,0.4,0.4,1" name="halfwidth" x="1374.5" y="0"/>
</glyph>
<glyph name="Igrave" format="2">
  <advance width="1064"/>
  <unicode hex="00CC"/>
  <anchor x="683" y="1550" name="top"/>
  <anchor x="386" y="-150" name="bottom"/>
  <anchor x="325" y="0" name="ogonek"/>
  <anchor x="829" y="1535" name="topright"/>
  <outline>
    <contour>
      <point x="283" y="0" type="line"/>
      <point x="547" y="0" type="line"/>
      <point x="791" y="1400" type="line"/>
      <point x="527" y="1400" type="line"/>
    </contour>
    <contour>
      <point x="806" y="1535" type="line"/>
      <point x="875" y="1535" type="line"/>
      <point x="480" y="1850" type="line"/>
      <point x="116" y="1850" type="line"/>
    </contour>
  </outline>
</glyph>
<glyph name="Eth" format="2">
  <advance width="3108"/>
  <unicode hex="00D0"/>
  <anchor x="1398.6" y="1550" name="top"/>
  <anchor x="1398.6" y="-150" name="bottom"/>
  <outline>
    <contour>
      <point x="283" y="0" type="line"/>
      <point x="1815" y="0" type="line" smooth="yes"/>
      <point x="1999.12" y="0"/>
      <point x="2327.97" y="73.9062"/>
      <point x="2588.78" y="239.844"/>
      <point x="2767.25" y="506.875"/>
      <point x="2801" y="700" type="qcurve" smooth="yes"/>
      <point x="2832.5" y="879.25"/>
      <point x="2755.59" y="1142.81"/>
      <point x="2559.66" y="1315.69"/>
      <point x="2255.12" y="1400"/>
      <point x="2059" y="1400" type="qcurve" smooth="yes"/>
      <point x="527" y="1400" type="line"/>
      <point x="408" y="716" type="line"/>
      <point x="248" y="716" type="line"/>
      <point x="242" y="684" type="line"/>
      <point x="402" y="684" type="line"/>
    </contour>
    <contour>
      <point x="553" y="36" type="line"/>
      <point x="666" y="684" type="line"/>
      <point x="1375" y="684" type="line"/>
      <point x="1381" y="716" type="line"/>
      <point x="672" y="716" type="line"/>
      <point x="785" y="1364" type="line"/>
      <point x="2015" y="1364" type="line" smooth="yes"/>
      <point x="2165" y="1364"/>
      <point x="2385.81" y="1296.81"/>
      <point x="2518.19" y="1144.19"/>
      <point x="2557.5" y="897"/>
      <point x="2526" y="717" type="qcurve" smooth="yes"/>
      <point x="2491.5" y="520.875"/>
      <point x="2367.12" y="259.031"/>
      <point x="2183.38" y="101.719"/>
      <point x="1938.25" y="36"/>
      <point x="1783" y="36" type="qcurve" smooth="yes"/>
    </contour>
  </outline>
</glyph>
<glyph name="Oslash" format="2">
  <advance width="3216"/>
  <unicode hex="00D8"/>
  <anchor x="1760" y="1560" name="top"/>
  <outline>
    <contour>
      <point x="497" y="1126" type="qcurve" smooth="yes"/>
      <point x="350" y="286" type="line" smooth="yes"/>
      <point x="319.061" y="109.424"/>
      <point x="480.516" y="0"/>
      <point x="642" y="0" type="qcurve" smooth="yes"/>
      <point x="2332" y="0" type="line" smooth="yes"/>
      <point x="2493.48" y="0"/>
      <point x="2695.06" y="107.914"/>
      <point x="2726" y="286" type="qcurve" smooth="yes"/>
      <point x="2873" y="1126" type="line" smooth="yes"/>
      <point x="2902.25" y="1297"/>
      <point x="2727.5" y="1400"/>
      <point x="2576" y="1400" type="qcurve" smooth="yes"/>
      <point x="886" y="1400" type="line" smooth="yes"/>
      <point x="734.5" y="1400"/>
      <point x="526.25" y="1297"/>
    </contour>
    <contour>
      <point x="802" y="1364" type="line"/>
      <point x="802" y="1364"/>
      <point x="802" y="1364"/>
      <point x="802" y="1364" type="qcurve"/>
      <point x="2650" y="1364" type="line"/>
      <point x="2650" y="1364"/>
      <point x="2650" y="1364"/>
      <point x="2650" y="1364" type="qcurve"/>
      <point x="2418" y="36" type="line"/>
      <point x="2418" y="36"/>
      <point x="2418" y="36"/>
      <point x="2418" y="36" type="qcurve"/>
      <point x="570" y="36" type="line"/>
      <point x="570" y="36"/>
      <point x="570" y="36"/>
      <point x="570" y="36" type="qcurve"/>
    </contour>
    <contour>
      <point x="281" y="-10" type="line"/>
      <point x="442" y="72" type="line"/>
      <point x="532" y="110" type="line"/>
      <point x="2721" y="1266" type="line"/>
      <point x="2764" y="1278" type="line"/>
      <point x="2954" y="1378" type="line"/>
      <point x="2939" y="1410" type="line"/>
      <point x="2755" y="1315" type="line"/>
      <point x="2711" y="1301" type="line"/>
      <point x="535" y="152" type="line"/>
      <point x="439" y="112" type="line"/>
      <point x="269" y="23" type="line"/>
    </contour>
  </outline>
  <guideline angle="0" x="0" y="-10"/>
  <guideline angle="0" x="0" y="-10"/>
  <guideline angle="0" x="0" y="1410"/>
</glyph>
<glyph name="Udieresis" format="2">
  <advance width="2944"/>
  <unicode hex="00DC"/>
  <anchor x="1685" y="1900" name="top"/>
  <anchor x="1326" y="-150" name="bottom"/>
  <anchor x="1375" y="0" name="ogonek"/>
  <anchor x="2676" y="1400" name="horn"/>
  <outline>
    <contour>
      <point x="519" y="1400" type="line"/>
      <point x="325" y="286" type="line" smooth="yes"/>
      <point x="309.625" y="197.5"/>
      <point x="337.406" y="86"/>
      <point x="414.844" y="23"/>
      <point x="537.5" y="0"/>
      <point x="617" y="0" type="qcurve" smooth="yes"/>
      <point x="2091" y="0" type="line" smooth="yes"/>
      <point x="2251.5" y="0"/>
      <point x="2454.25" y="109"/>
      <point x="2485" y="286" type="qcurve" smooth="yes"/>
      <point x="2679" y="1400" type="line"/>
      <point x="2415" y="1400" type="line"/>
      <point x="2177" y="36" type="line"/>
      <point x="2177" y="36"/>
      <point x="2177" y="36"/>
      <point x="2177" y="36" type="qcurve"/>
      <point x="545" y="36" type="line"/>
      <point x="545" y="36"/>
      <point x="545" y="36"/>
      <point x="545" y="36" type="qcurve"/>
      <point x="783" y="1400" type="line"/>
    </contour>
    <contour>
      <point x="1373" y="1550" type="qcurve" smooth="yes"/>
      <point x="1443" y="1550" type="line" smooth="yes"/>
      <point x="1509.4" y="1550"/>
      <point x="1537.68" y="1573.6"/>
      <point x="1549" y="1640" type="qcurve" smooth="yes"/>
      <point x="1562" y="1712" type="line" smooth="yes"/>
      <point x="1573.32" y="1776.9"/>
      <point x="1553.4" y="1800"/>
      <point x="1487" y="1800" type="qcurve" smooth="yes"/>
      <point x="1417" y="1800" type="line" smooth="yes"/>
      <point x="1350.6" y="1800"/>
      <point x="1323.32" y="1776.9"/>
      <point x="1312" y="1712" type="qcurve" smooth="yes"/>
      <point x="1299" y="1640" type="line" smooth="yes"/>
      <point x="1287.68" y="1573.6"/>
      <point x="1306.6" y="1550"/>
    </contour>
    <contour>
      <point x="1803" y="1550" type="qcurve" smooth="yes"/>
      <point x="1873" y="1550" type="line" smooth="yes"/>
      <point x="1939.4" y="1550"/>
      <point x="1967.68" y="1573.6"/>
      <point x="1979" y="1640" type="qcurve" smooth="yes"/>
      <point x="1992" y="1712" type="line" smooth="yes"/>
      <point x="2003.32" y="1776.9"/>
      <point x="1983.4" y="1800"/>
      <point x="1917" y="1800" type="qcurve" smooth="yes"/>
      <point x="1847" y="1800" type="line" smooth="yes"/>
      <point x="1780.6" y="1800"/>
      <point x="1753.32" y="1776.9"/>
      <point x="1742" y="1712" type="qcurve" smooth="yes"/>
      <point x="1729" y="1640" type="line" smooth="yes"/>
      <point x="1717.68" y="1573.6"/>
      <point x="1736.6" y="1550"/>
    </contour>
  </outline>
</glyph>
<glyph name="iacute" format="2">
  <advance width="890"/>
  <unicode hex="00ED"/>
  <anchor x="300" y="-150" name="bottom"/>
  <anchor x="527" y="1150" name="top"/>
  <anchor x="244" y="0" name="ogonek"/>
  <outline>
    <contour>
      <point x="202" y="0" type="line"/>
      <point x="450" y="0" type="line"/>
      <point x="625" y="1000" type="line"/>
      <point x="377" y="1000" type="line"/>
    </contour>
    <contour>
      <point x="325" y="1085" type="line"/>
      <point x="386" y="1085" type="line"/>
      <point x="1196" y="1448" type="line"/>
      <point x="842" y="1448" type="line"/>
    </contour>
  </outline>
</glyph>
<glyph name="uacute" format="2">
  <advance width="2200"/>
  <unicode hex="00FA"/>
  <anchor x="1181" y="1150" name="top"/>
  <anchor x="952" y="-160" name="bottom"/>
  <anchor x="1001" y="0" name="ogonek"/>
  <anchor x="1946" y="1000" name="horn"/>
  <outline>
    <contour>
      <point x="224" y="194" type="line" smooth="yes"/>
      <point x="202.117" y="67.2272"/>
      <point x="317.301" y="-10"/>
      <point x="432" y="-10" type="qcurve" smooth="yes"/>
      <point x="1524" y="-10" type="line" smooth="yes"/>
      <point x="1638.7" y="-10"/>
      <point x="1784.12" y="67.2272"/>
      <point x="1806" y="194" type="qcurve" smooth="yes"/>
      <point x="1947" y="1000" type="line"/>
      <point x="1699" y="1000" type="line"/>
      <point x="1528" y="22" type="line"/>
      <point x="1528" y="22"/>
      <point x="1528" y="22"/>
      <point x="1528" y="22" type="qcurve"/>
      <point x="442" y="22" type="line"/>
      <point x="442" y="22"/>
      <point x="442" y="22"/>
      <point x="442" y="22" type="qcurve"/>
      <point x="613" y="1000" type="line"/>
      <point x="365" y="1000" type="line"/>
    </contour>
    <contour>
      <point x="979" y="1085" type="line"/>
      <point x="1040" y="1085" type="line"/>
      <point x="1850" y="1448" type="line"/>
      <point x="1496" y="1448" type="line"/>
    </contour>
  </outline>
</glyph>
<glyph name="cdotaccent" format="2">
  <advance width="2177"/>
  <unicode hex="010B"/>
  <anchor x="1260" y="1470" name="top"/>
  <anchor x="976" y="-150" name="bottom"/>
  <outline>
    <contour>
      <point x="219" y="214" type="line" smooth="yes"/>
      <point x="198.626" y="97.7916"/>
      <point x="297.644" y="0"/>
      <point x="438" y="0" type="qcurve" smooth="yes"/>
      <point x="1568" y="0" type="line" smooth="yes"/>
      <point x="1708.36" y="0"/>
      <point x="1844.63" y="97.7916"/>
      <point x="1865" y="214" type="qcurve" smooth="yes"/>
      <point x="1883" y="316" type="line"/>
      <point x="1644" y="366" type="line"/>
      <point x="1586" y="32" type="line"/>
      <point x="1586" y="32"/>
      <point x="1586" y="32"/>
      <point x="1586" y="32" type="qcurve"/>
      <point x="436" y="32" type="line"/>
      <point x="436" y="32"/>
      <point x="436" y="32"/>
      <point x="436" y="32" type="qcurve"/>
      <point x="599" y="968" type="line"/>
      <point x="599" y="968"/>
      <point x="599" y="968"/>
      <point x="599" y="968" type="qcurve"/>
      <point x="1745" y="968" type="line"/>
      <point x="1745" y="968"/>
      <point x="1745" y="968"/>
      <point x="1745" y="968" type="qcurve"/>
      <point x="1688" y="644" type="line"/>
      <point x="1944" y="690" type="line"/>
      <point x="1963" y="796" type="line" smooth="yes"/>
      <point x="1981.87" y="906.172"/>
      <point x="1877.85" y="1000"/>
      <point x="1739" y="1000" type="qcurve" smooth="yes"/>
      <point x="613" y="1000" type="line" smooth="yes"/>
      <point x="475.663" y="1000"/>
      <point x="339.865" y="906.172"/>
      <point x="321" y="796" type="qcurve" smooth="yes"/>
    </contour>
    <contour>
      <point x="1173" y="1152" type="qcurve" smooth="yes"/>
      <point x="1233" y="1152" type="line" smooth="yes"/>
      <point x="1299.4" y="1152"/>
      <point x="1327.68" y="1175.1"/>
      <point x="1339" y="1240" type="qcurve" smooth="yes"/>
      <point x="1350" y="1302" type="line" smooth="yes"/>
      <point x="1361.32" y="1366.9"/>
      <point x="1342.4" y="1390"/>
      <point x="1276" y="1390" type="qcurve" smooth="yes"/>
      <point x="1216" y="1390" type="line" smooth="yes"/>
      <point x="1149.6" y="1390"/>
      <point x="1121.32" y="1366.9"/>
      <point x="1110" y="1302" type="qcurve" smooth="yes"/>
      <point x="1099" y="1240" type="line" smooth="yes"/>
      <point x="1087.68" y="1175.1"/>
      <point x="1106.6" y="1152"/>
    </contour>
  </outline>
</glyph>
<glyph name="eogonek" format="2">
  <advance width="2246"/>
  <unicode hex="0119"/>
  <anchor x="1203" y="1150" name="top"/>
  <anchor x="976" y="-150" name="bottom"/>
  <anchor x="1508" y="0" name="ogonek"/>
  <outline>
    <contour>
      <point x="227" y="260" type="line" smooth="yes"/>
      <point x="202.853" y="119.644"/>
      <point x="327.951" y="0"/>
      <point x="500" y="0" type="qcurve" smooth="yes"/>
      <point x="1512" y="0" type="line" smooth="yes"/>
      <point x="1684.05" y="0"/>
      <point x="1850.85" y="119.644"/>
      <point x="1875" y="260" type="qcurve"/>
      <point x="1877" y="270" type="line"/>
      <point x="1637" y="314" type="line"/>
      <point x="1588" y="32" type="line"/>
      <point x="1588" y="32"/>
      <point x="1588" y="32"/>
      <point x="1588" y="32" type="qcurve"/>
      <point x="436" y="32" type="line"/>
      <point x="436" y="32"/>
      <point x="436" y="32"/>
      <point x="436" y="32" type="qcurve"/>
      <point x="515" y="486" type="line"/>
      <point x="1915" y="486" type="line"/>
      <point x="1961" y="750" type="line" smooth="yes"/>
      <point x="1984.39" y="885.828"/>
      <point x="1859.05" y="1000"/>
      <point x="1687" y="1000" type="qcurve" smooth="yes"/>
      <point x="675" y="1000" type="line" smooth="yes"/>
      <point x="504.46" y="1000"/>
      <point x="336.393" y="884.319"/>
      <point x="313" y="750" type="qcurve" smooth="yes"/>
    </contour>
    <contour>
      <point x="520" y="518" type="line"/>
      <point x="599" y="968" type="line"/>
      <point x="599" y="968"/>
      <point x="599" y="968"/>
      <point x="599" y="968" type="qcurve"/>
      <point x="1751" y="968" type="line"/>
      <point x="1751" y="968"/>
      <point x="1751" y="968"/>
      <point x="1751" y="968" type="qcurve"/>
      <point x="1672" y="518" type="line"/>
    </contour>
    <contour>
      <point x="1437.07" y="-418" type="qcurve" smooth="yes"/>
      <point x="1473.41" y="-418"/>
      <point x="1535.12" y="-403.337"/>
      <point x="1557" y="-389" type="qcurve"/>
      <point x="1656" y="-210" type="line"/>
      <point x="1628.08" y="-224.337"/>
      <point x="1564.26" y="-240"/>
      <point x="1534.3" y="-240" type="qcurve" smooth="yes"/>
      <point x="1473.71" y="-240"/>
      <point x="1412.91" y="-177.874"/>
      <point x="1421.84" y="-125.214" type="qcurve" smooth="yes"/>
      <point x="1427.24" y="-93.3592"/>
      <point x="1467.25" y="-35.4662"/>
      <point x="1508" y="0" type="qcurve"/>
      <point x="1466" y="0" type="line"/>
      <point x="1419.21" y="-48.2944"/>
      <point x="1304.54" y="-164.706"/>
      <point x="1257" y="-213" type="qcurve"/>
      <point x="1240.4" y="-308.08"/>
      <point x="1337.58" y="-418"/>
    </contour>
  </outline>
  <guideline angle="0" color="1,0,0,1" x="0" y="-1000"/>
</glyph>
<glyph name="gdotaccent" format="2">
  <advance width="2298"/>
  <unicode hex="0121"/>
  <anchor x="1149" y="1470" name="top"/>
  <anchor x="1149" y="-578" name="bottom"/>
  <outline>
    <contour>
      <point x="435" y="26" type="qcurve"/>
      <point x="600" y="974" type="line"/>
      <point x="600" y="974"/>
      <point x="600" y="974"/>
      <point x="600" y="974" type="qcurve"/>
      <point x="1792" y="974" type="line"/>
      <point x="1627" y="26" type="line"/>
      <point x="435" y="26" type="line"/>
      <point x="435" y="26"/>
      <point x="435" y="26"/>
    </contour>
    <contour>
      <point x="193" y="-428" type="line"/>
      <point x="1381" y="-428" type="line" smooth="yes"/>
      <point x="1465.75" y="-428"/>
      <point x="1617.72" y="-420.062"/>
      <point x="1739.03" y="-372.438"/>
      <point x="1823.12" y="-269.25"/>
      <point x="1840" y="-174" type="qcurve" smooth="yes"/>
      <point x="2045" y="1000" type="line"/>
      <point x="1797" y="1000" type="line"/>
      <point x="1793" y="982" type="line"/>
      <point x="1789.23" y="994.074"/>
      <point x="1753.69" y="1006"/>
      <point x="1722" y="1006" type="qcurve" smooth="yes"/>
      <point x="614" y="1006" type="line" smooth="yes"/>
      <point x="476.663" y="1006"/>
      <point x="340.865" y="910.662"/>
      <point x="322" y="802" type="qcurve" smooth="yes"/>
      <point x="218" y="208" type="line" smooth="yes"/>
      <point x="197.626" y="91.7916"/>
      <point x="298.154" y="-6"/>
      <point x="437" y="-6" type="qcurve" smooth="yes"/>
      <point x="1545" y="-6" type="line" smooth="yes"/>
      <point x="1572.17" y="-6"/>
      <point x="1613.17" y="8.4172"/>
      <point x="1626" y="22" type="qcurve"/>
      <point x="1553" y="-396" type="line"/>
      <point x="1553" y="-396"/>
      <point x="1553" y="-396"/>
      <point x="1553" y="-396" type="qcurve"/>
      <point x="189" y="-396" type="line"/>
    </contour>
    <contour>
      <point x="1119" y="1152" type="qcurve" smooth="yes"/>
      <point x="1179" y="1152" type="line" smooth="yes"/>
      <point x="1245.4" y="1152"/>
      <point x="1273.68" y="1175.1"/>
      <point x="1285" y="1240" type="qcurve" smooth="yes"/>
      <point x="1296" y="1302" type="line" smooth="yes"/>
      <point x="1307.32" y="1366.9"/>
      <point x="1288.4" y="1390"/>
      <point x="1222" y="1390" type="qcurve" smooth="yes"/>
      <point x="1162" y="1390" type="line" smooth="yes"/>
      <point x="1095.6" y="1390"/>
      <point x="1067.32" y="1366.9"/>
      <point x="1056" y="1302" type="qcurve" smooth="yes"/>
      <point x="1045" y="1240" type="line" smooth="yes"/>
      <point x="1033.68" y="1175.1"/>
      <point x="1052.6" y="1152"/>
    </contour>
  </outline>
</glyph>
<glyph name="Hcircumflex" format="2">
  <advance width="3108"/>
  <unicode hex="0124"/>
  <anchor x="1764" y="1880" name="top"/>
  <anchor x="1408" y="-150" name="bottom"/>
  <anchor x="2405" y="1585" name="topright"/>
  <outline>
    <contour>
      <point x="280" y="0" type="line"/>
      <point x="544" y="0" type="line"/>
      <point x="668" y="712" type="line"/>
      <point x="2448" y="712" type="line"/>
      <point x="2324" y="0" type="line"/>
      <point x="2588" y="0" type="line"/>
      <point x="2832" y="1400" type="line"/>
      <point x="2568" y="1400" type="line"/>
      <point x="2455" y="748" type="line"/>
      <point x="675" y="748" type="line"/>
      <point x="788" y="1400" type="line"/>
      <point x="524" y="1400" type="line"/>
    </contour>
    <contour>
      <point x="1150" y="1485" type="line"/>
      <point x="1217" y="1485" type="line"/>
      <point x="1674" y="1768" type="line"/>
      <point x="2038" y="1485" type="line"/>
      <point x="2387" y="1485" type="line"/>
      <point x="1952" y="1800" type="line"/>
      <point x="1670" y="1800" type="line"/>
    </contour>
  </outline>
  <guideline angle="260.1" color="1,0,0,1" x="1434" y="-0"/>
</glyph>
<glyph name="Itilde" format="2">
  <advance width="1064"/>
  <unicode hex="0128"/>
  <anchor x="745" y="1900" name="top"/>
  <anchor x="386" y="-150" name="bottom"/>
  <anchor x="325" y="0" name="ogonek"/>
  <outline>
    <contour>
      <point x="283" y="0" type="line"/>
      <point x="547" y="0" type="line"/>
      <point x="791" y="1400" type="line"/>
      <point x="527" y="1400" type="line"/>
    </contour>
    <contour>
      <point x="278" y="1549" type="qcurve"/>
      <point x="307" y="1543" type="line"/>
      <point x="326.62" y="1595.82"/>
      <point x="386.761" y="1632"/>
      <point x="426" y="1632" type="qcurve" smooth="yes"/>
      <point x="464.25" y="1632"/>
      <point x="583.281" y="1600.12"/>
      <point x="715.469" y="1561.88"/>
      <point x="846.125" y="1530"/>
      <point x="896" y="1530" type="qcurve" smooth="yes"/>
      <point x="933.875" y="1530"/>
      <point x="996.75" y="1554.16"/>
      <point x="1052.25" y="1612.09"/>
      <point x="1103.12" y="1708.62"/>
      <point x="1129" y="1781" type="qcurve"/>
      <point x="1100" y="1787" type="line"/>
      <point x="1080.38" y="1734.18"/>
      <point x="1020.24" y="1698"/>
      <point x="981" y="1698" type="qcurve" smooth="yes"/>
      <point x="942.75" y="1698"/>
      <point x="823.719" y="1729.88"/>
      <point x="691.531" y="1768.12"/>
      <point x="560.875" y="1800"/>
      <point x="511" y="1800" type="qcurve" smooth="yes"/>
      <point x="473.125" y="1800"/>
      <point x="410.25" y="1775.56"/>
      <point x="354.75" y="1717.44"/>
      <point x="303.875" y="1621"/>
    </contour>
  </outline>
  <guideline angle="90" x="79" y="0"/>
  <guideline angle="90" x="889" y="0"/>
  <guideline angle="90" x="109" y="0"/>
  <guideline angle="90" x="859" y="0"/>
</glyph>
<glyph name="iogonek" format="2">
  <advance width="888"/>
  <unicode hex="012F"/>
  <anchor x="297" y="-150" name="bottom"/>
  <anchor x="524" y="1150" name="top"/>
  <anchor x="241" y="0" name="ogonek"/>
  <outline>
    <contour>
      <point x="212" y="0" type="line"/>
      <point x="460" y="0" type="line"/>
      <point x="635" y="1000" type="line"/>
      <point x="387" y="1000" type="line"/>
    </contour>
    <contour>
      <point x="418" y="1230" type="line" smooth="yes"/>
      <point x="405.926" y="1163.6"/>
      <point x="425.595" y="1140"/>
      <point x="492" y="1140" type="qcurve" smooth="yes"/>
      <point x="576" y="1140" type="line" smooth="yes"/>
      <point x="642.405" y="1140"/>
      <point x="669.926" y="1163.6"/>
      <point x="682" y="1230" type="qcurve" smooth="yes"/>
      <point x="696" y="1312" type="line" smooth="yes"/>
      <point x="707.319" y="1376.9"/>
      <point x="687.405" y="1400"/>
      <point x="621" y="1400" type="qcurve" smooth="yes"/>
      <point x="537" y="1400" type="line" smooth="yes"/>
      <point x="470.595" y="1400"/>
      <point x="443.319" y="1376.9"/>
      <point x="432" y="1312" type="qcurve" smooth="yes"/>
    </contour>
    <contour>
      <point x="170.072" y="-418" type="qcurve" smooth="yes"/>
      <point x="206.408" y="-418"/>
      <point x="268.117" y="-403.337"/>
      <point x="290" y="-389" type="qcurve"/>
      <point x="389" y="-210" type="line"/>
      <point x="361.08" y="-224.337"/>
      <point x="297.257" y="-240"/>
      <point x="267.299" y="-240" type="qcurve" smooth="yes"/>
      <point x="206.705" y="-240"/>
      <point x="145.905" y="-177.874"/>
      <point x="154.839" y="-125.214" type="qcurve" smooth="yes"/>
      <point x="160.243" y="-93.3592"/>
      <point x="200.252" y="-35.4662"/>
      <point x="241" y="0" type="qcurve"/>
      <point x="199" y="0" type="line"/>
      <point x="152.215" y="-48.2944"/>
      <point x="37.5398" y="-164.706"/>
      <point x="-10" y="-213" type="qcurve"/>
      <point x="-26.6012" y="-308.08"/>
      <point x="70.5804" y="-418"/>
    </contour>
  </outline>
</glyph>
<glyph name="uni0137" format="2">
  <advance width="2333"/>
  <unicode hex="0137"/>
  <anchor x="961" y="1598" name="top"/>
  <anchor x="978" y="-150" name="bottom"/>
  <anchor x="226" y="724" name="left"/>
  <outline>
    <contour>
      <point x="203" y="0" type="line"/>
      <point x="451" y="0" type="line"/>
      <point x="540" y="513" type="line"/>
      <point x="512" y="513" type="line"/>
      <point x="1656" y="0" type="line"/>
      <point x="2185" y="0" type="line"/>
      <point x="832" y="601" type="line"/>
      <point x="831" y="593" type="line"/>
      <point x="2228" y="1000" type="line"/>
      <point x="2115" y="1000" type="line"/>
      <point x="500" y="529" type="line"/>
      <point x="543" y="529" type="line"/>
      <point x="704" y="1448" type="line"/>
      <point x="456" y="1448" type="line"/>
    </contour>
    <contour>
      <point x="860" y="-609" type="line"/>
      <point x="1052" y="-356" type="line"/>
      <point x="1059.55" y="-345.436"/>
      <point x="1069.96" y="-309.448"/>
      <point x="1076" y="-277" type="qcurve"/>
      <point x="1085" y="-223" type="line" smooth="yes"/>
      <point x="1097.07" y="-155.086"/>
      <point x="1077.16" y="-131"/>
      <point x="1010" y="-131" type="qcurve" smooth="yes"/>
      <point x="952" y="-131" type="line" smooth="yes"/>
      <point x="884.841" y="-131"/>
      <point x="857.074" y="-155.086"/>
      <point x="845" y="-223" type="qcurve" smooth="yes"/>
      <point x="836" y="-277" type="line" smooth="yes"/>
      <point x="823.172" y="-347.178"/>
      <point x="842.841" y="-371"/>
      <point x="910" y="-371" type="qcurve" smooth="yes"/>
      <point x="969" y="-371" type="line"/>
      <point x="840" y="-601" type="line"/>
    </contour>
  </outline>
</glyph>
<glyph name="Lacute" format="2">
  <advance width="2279"/>
  <unicode hex="0139"/>
  <anchor x="683" y="1550" name="top"/>
  <anchor x="1209" y="-150" name="bottom"/>
  <anchor x="302" y="700" name="left"/>
  <anchor x="1798" y="1400" name="right"/>
  <anchor x="1734" y="700" name="eldot"/>
  <anchor x="531" y="1535" name="topright"/>
  <outline>
    <contour>
      <point x="283" y="0" type="line"/>
      <point x="2193" y="0" type="line"/>
      <point x="2199" y="36" type="line"/>
      <point x="553" y="36" type="line"/>
      <point x="791" y="1400" type="line"/>
      <point x="527" y="1400" type="line"/>
    </contour>
    <contour>
      <point x="477" y="1535" type="line"/>
      <point x="554" y="1535" type="line"/>
      <point x="1355" y="1850" type="line"/>
      <point x="937" y="1850" type="line"/>
    </contour>
  </outline>
</glyph>
<glyph name="uni013C" format="2">
  <advance width="888"/>
  <unicode hex="013C"/>
  <anchor x="603" y="1598" name="top"/>
  <anchor x="298" y="-150" name="bottom"/>
  <anchor x="701" y="1448" name="right"/>
  <anchor x="890" y="700" name="eldot"/>
  <outline>
    <contour>
      <point x="201" y="0" type="line"/>
      <point x="449" y="0" type="line"/>
      <point x="702" y="1448" type="line"/>
      <point x="454" y="1448" type="line"/>
    </contour>
    <contour>
      <point x="180" y="-609" type="line"/>
      <point x="372" y="-356" type="line"/>
      <point x="379.546" y="-345.436"/>
      <point x="389.963" y="-309.448"/>
      <point x="396" y="-277" type="qcurve"/>
      <point x="405" y="-223" type="line" smooth="yes"/>
      <point x="417.074" y="-155.086"/>
      <point x="397.159" y="-131"/>
      <point x="330" y="-131" type="qcurve" smooth="yes"/>
      <point x="272" y="-131" type="line" smooth="yes"/>
      <point x="204.841" y="-131"/>
      <point x="177.074" y="-155.086"/>
      <point x="165" y="-223" type="qcurve" smooth="yes"/>
      <point x="156" y="-277" type="line" smooth="yes"/>
      <point x="143.172" y="-347.178"/>
      <point x="162.841" y="-371"/>
      <point x="230" y="-371" type="qcurve" smooth="yes"/>
      <point x="289" y="-371" type="line"/>
      <point x="160" y="-601" type="line"/>
    </contour>
  </outline>
</glyph>
<glyph name="Ncaron" format="2">
  <advance width="3156"/>
  <unicode hex="0147"/>
  <anchor x="1787" y="1880" name="top"/>
  <anchor x="1432" y="-150" name="bottom"/>
  <anchor x="1120" y="1700" name="topright"/>
  <outline>
    <contour>
      <point x="283" y="0" type="line"/>
      <point x="319" y="0" type="line"/>
      <point x="522" y="1159" type="line"/>
      <point x="2525" y="0" type="line"/>
      <point x="2639" y="0" type="line"/>
      <point x="2883" y="1400" type="line"/>
      <point x="2847" y="1400" type="line"/>
      <point x="2643" y="231" type="line"/>
      <point x="619" y="1400" type="line"/>
      <point x="527" y="1400" type="line"/>
    </contour>
    <contour>
      <point x="2375" y="1800" type="line"/>
      <point x="2308" y="1800" type="line"/>
      <point x="1851" y="1517" type="line"/>
      <point x="1487" y="1800" type="line"/>
      <point x="1138" y="1800" type="line"/>
      <point x="1573" y="1485" type="line"/>
      <point x="1855" y="1485" type="line"/>
    </contour>
  </outline>
</glyph>
<glyph name="Obreve" format="2">
  <advance width="3142"/>
  <unicode hex="014E"/>
  <anchor x="1794" y="1900" name="top"/>
  <anchor x="1433" y="-150" name="bottom"/>
  <anchor x="2835" y="1126" name="horn"/>
  <anchor x="1480" y="0" name="ogonek"/>
  <outline>
    <contour>
      <point x="463" y="1126" type="qcurve" smooth="yes"/>
      <point x="316" y="286" type="line" smooth="yes"/>
      <point x="285.061" y="109.424"/>
      <point x="446.516" y="0"/>
      <point x="608" y="0" type="qcurve" smooth="yes"/>
      <point x="2298" y="0" type="line" smooth="yes"/>
      <point x="2459.48" y="0"/>
      <point x="2661.06" y="107.914"/>
      <point x="2692" y="286" type="qcurve" smooth="yes"/>
      <point x="2839" y="1126" type="line" smooth="yes"/>
      <point x="2868.25" y="1297"/>
      <point x="2693.5" y="1400"/>
      <point x="2542" y="1400" type="qcurve" smooth="yes"/>
      <point x="852" y="1400" type="line" smooth="yes"/>
      <point x="700.5" y="1400"/>
      <point x="492.25" y="1297"/>
    </contour>
    <contour>
      <point x="768" y="1364" type="line"/>
      <point x="768" y="1364"/>
      <point x="768" y="1364"/>
      <point x="768" y="1364" type="qcurve"/>
      <point x="2616" y="1364" type="line"/>
      <point x="2616" y="1364"/>
      <point x="2616" y="1364"/>
      <point x="2616" y="1364" type="qcurve"/>
      <point x="2384" y="36" type="line"/>
      <point x="2384" y="36"/>
      <point x="2384" y="36"/>
      <point x="2384" y="36" type="qcurve"/>
      <point x="536" y="36" type="line"/>
      <point x="536" y="36"/>
      <point x="536" y="36"/>
      <point x="536" y="36" type="qcurve"/>
    </contour>
    <contour>
      <point x="1728" y="1510" type="qcurve" smooth="yes"/>
      <point x="1835.25" y="1510"/>
      <point x="1992.41" y="1534.25"/>
      <point x="2101.34" y="1598.75"/>
      <point x="2166.62" y="1711.5"/>
      <point x="2182" y="1800" type="qcurve"/>
      <point x="2013" y="1800" type="line"/>
      <point x="1999.5" y="1721.62"/>
      <point x="1955.84" y="1622.66"/>
      <point x="1888.91" y="1566.59"/>
      <point x="1795.38" y="1546"/>
      <point x="1732" y="1546" type="qcurve" smooth="yes"/>
      <point x="1668.62" y="1546"/>
      <point x="1582.34" y="1566.59"/>
      <point x="1534.91" y="1622.66"/>
      <point x="1525.5" y="1721.62"/>
      <point x="1539" y="1800" type="qcurve"/>
      <point x="1370" y="1800" type="line"/>
      <point x="1354.62" y="1711.5"/>
      <point x="1382.22" y="1598.75"/>
      <point x="1470.53" y="1534.25"/>
      <point x="1620.75" y="1510"/>
    </contour>
  </outline>
</glyph>
<glyph name="oe" format="2">
  <advance width="3444"/>
  <unicode hex="0153"/>
  <anchor x="3519" y="1150" name="top"/>
  <anchor x="3292" y="-150" name="bottom"/>
  <outline>
    <contour>
      <point x="456" y="0" type="qcurve" smooth="yes"/>
      <point x="1490" y="0" type="line" smooth="yes"/>
      <point x="1532.26" y="0"/>
      <point x="1597.85" y="27.3436"/>
      <point x="1622" y="53" type="qcurve"/>
      <point x="1637.85" y="27.3436"/>
      <point x="1694.99" y="0"/>
      <point x="1738" y="0" type="qcurve" smooth="yes"/>
      <point x="2747" y="0" type="line" smooth="yes"/>
      <point x="2804" y="0"/>
      <point x="2906.06" y="16.5"/>
      <point x="2987.44" y="61.5"/>
      <point x="3043.75" y="141"/>
      <point x="3055" y="204" type="qcurve" smooth="yes"/>
      <point x="3065" y="262" type="line"/>
      <point x="2825" y="308" type="line"/>
      <point x="2777" y="32" type="line"/>
      <point x="2777" y="32"/>
      <point x="2777" y="32"/>
      <point x="2777" y="32" type="qcurve"/>
      <point x="1744" y="32" type="line"/>
      <point x="1744" y="32"/>
      <point x="1744" y="32"/>
      <point x="1744" y="32" type="qcurve"/>
      <point x="1825" y="497" type="line"/>
      <point x="3111" y="497" type="line"/>
      <point x="3164" y="804" type="line" smooth="yes"/>
      <point x="3174.88" y="864.75"/>
      <point x="3144.03" y="941.188"/>
      <point x="3076.72" y="984.312"/>
      <point x="2981" y="1000"/>
      <point x="2927" y="1000" type="qcurve" smooth="yes"/>
      <point x="1913" y="1000" type="line" smooth="yes"/>
      <point x="1869.23" y="1000"/>
      <point x="1802.15" y="972.411"/>
      <point x="1778" y="946" type="qcurve"/>
      <point x="1762.15" y="972.411"/>
      <point x="1707.26" y="1000"/>
      <point x="1665" y="1000" type="qcurve" smooth="yes"/>
      <point x="631" y="1000" type="line" smooth="yes"/>
      <point x="576.25" y="1000"/>
      <point x="474.156" y="984.312"/>
      <point x="391.094" y="941.188"/>
      <point x="332.875" y="864.75"/>
      <point x="322" y="804" type="qcurve" smooth="yes"/>
      <point x="218" y="204" type="line" smooth="yes"/>
      <point x="206.75" y="141"/>
      <point x="235" y="61.5"/>
      <point x="301" y="16.5"/>
      <point x="398.25" y="0"/>
    </contour>
    <contour>
      <point x="2868" y="529" type="line"/>
      <point x="1830" y="529" type="line"/>
      <point x="1907" y="968" type="line"/>
      <point x="1907" y="968"/>
      <point x="1907" y="968"/>
      <point x="1907" y="968" type="qcurve"/>
      <point x="2945" y="968" type="line"/>
      <point x="2945" y="968"/>
      <point x="2945" y="968"/>
      <point x="2945" y="968" type="qcurve"/>
    </contour>
    <contour>
      <point x="436" y="32" type="qcurve"/>
      <point x="599" y="968" type="line"/>
      <point x="599" y="968"/>
      <point x="599" y="968"/>
      <point x="599" y="968" type="qcurve"/>
      <point x="1659" y="968" type="line"/>
      <point x="1659" y="968"/>
      <point x="1659" y="968"/>
      <point x="1659" y="968" type="qcurve"/>
      <point x="1496" y="32" type="line"/>
      <point x="1496" y="32"/>
      <point x="1496" y="32"/>
      <point x="1496" y="32" type="qcurve"/>
      <point x="436" y="32" type="line"/>
      <point x="436" y="32"/>
      <point x="436" y="32"/>
    </contour>
  </outline>
  <guideline angle="260.1" color="1,0,0,1" x="1602.91" y="0"/>
</glyph>
<glyph name="scedilla" format="2">
  <advance width="2079"/>
  <unicode hex="015F"/>
  <anchor x="1120" y="1150" name="top"/>
  <anchor x="893" y="-150" name="bottom"/>
  <outline>
    <contour>
      <point x="217" y="262" type="line"/>
      <point x="207" y="204" type="line" smooth="yes"/>
      <point x="184.362" y="77.2272"/>
      <point x="300.301" y="0"/>
      <point x="415" y="0" type="qcurve" smooth="yes"/>
      <point x="1425" y="0" type="line" smooth="yes"/>
      <point x="1541.21" y="0"/>
      <point x="1684.36" y="77.2272"/>
      <point x="1707" y="204" type="qcurve" smooth="yes"/>
      <point x="1727" y="323" type="line" smooth="yes"/>
      <point x="1748.88" y="448.264"/>
      <point x="1626.17" y="519"/>
      <point x="1516" y="519" type="qcurve" smooth="yes"/>
      <point x="504" y="519" type="line"/>
      <point x="504" y="519"/>
      <point x="504" y="519"/>
      <point x="504" y="519" type="qcurve"/>
      <point x="582" y="968" type="line"/>
      <point x="582" y="968"/>
      <point x="582" y="968"/>
      <point x="582" y="968" type="qcurve"/>
      <point x="1606" y="968" type="line"/>
      <point x="1606" y="968"/>
      <point x="1606" y="968"/>
      <point x="1606" y="968" type="qcurve"/>
      <point x="1560" y="706" type="line"/>
      <point x="1788" y="750" type="line"/>
      <point x="1797" y="804" type="line" smooth="yes"/>
      <point x="1818.88" y="926.245"/>
      <point x="1696.17" y="1000"/>
      <point x="1586" y="1000" type="qcurve" smooth="yes"/>
      <point x="612" y="1000" type="line" smooth="yes"/>
      <point x="504" y="1000"/>
      <point x="354.75" y="925.5"/>
      <point x="333" y="804" type="qcurve" smooth="yes"/>
      <point x="314" y="693" type="line" smooth="yes"/>
      <point x="292.117" y="566.227"/>
      <point x="407.301" y="487"/>
      <point x="522" y="487" type="qcurve" smooth="yes"/>
      <point x="1536" y="487" type="line"/>
      <point x="1536" y="487"/>
      <point x="1536" y="487"/>
      <point x="1536" y="487" type="qcurve"/>
      <point x="1457" y="32" type="line"/>
      <point x="1457" y="32"/>
      <point x="1457" y="32"/>
      <point x="1457" y="32" type="qcurve"/>
      <point x="397" y="32" type="line"/>
      <point x="397" y="32"/>
      <point x="397" y="32"/>
      <point x="397" y="32" type="qcurve"/>
      <point x="445" y="308" type="line"/>
    </contour>
    <contour>
      <point x="822" y="-438" type="qcurve" smooth="yes"/>
      <point x="882.75" y="-438"/>
      <point x="979.781" y="-419.719"/>
      <point x="1050.47" y="-382.031"/>
      <point x="1093.88" y="-324.375"/>
      <point x="1101" y="-285" type="qcurve" smooth="yes"/>
      <point x="1108.5" y="-242.25"/>
      <point x="1087.97" y="-175.594"/>
      <point x="1032.28" y="-129.656"/>
      <point x="941.625" y="-105.375"/>
      <point x="879" y="-105" type="qcurve"/>
      <point x="962" y="0" type="line"/>
      <point x="876" y="0" type="line"/>
      <point x="762" y="-141" type="line"/>
      <point x="780.865" y="-136.472"/>
      <point x="806.399" y="-134"/>
      <point x="823" y="-134" type="qcurve" smooth="yes"/>
      <point x="884.123" y="-134"/>
      <point x="942.319" y="-195.086"/>
      <point x="931" y="-263" type="qcurve" smooth="yes"/>
      <point x="918.926" y="-330.159"/>
      <point x="841.276" y="-408"/>
      <point x="796" y="-408" type="qcurve" smooth="yes"/>
      <point x="751.479" y="-408"/>
      <point x="697.847" y="-381.601"/>
      <point x="682" y="-365" type="qcurve"/>
      <point x="657" y="-389" type="line"/>
      <point x="687.184" y="-413.147"/>
      <point x="761.632" y="-438"/>
    </contour>
  </outline>
</glyph>
<glyph name="Tcaron" format="2">
  <advance width="2292"/>
  <unicode hex="0164"/>
  <anchor x="1358" y="1880" name="top"/>
  <anchor x="1003" y="-150" name="bottom"/>
  <anchor x="691" y="1700" name="topright"/>
  <outline>
    <contour>
      <point x="897" y="0" type="line"/>
      <point x="1161" y="0" type="line"/>
      <point x="1399" y="1364" type="line"/>
      <point x="2443" y="1364" type="line"/>
      <point x="2449" y="1400" type="line"/>
      <point x="97" y="1400" type="line"/>
      <point x="91" y="1364" type="line"/>
      <point x="1135" y="1364" type="line"/>
    </contour>
    <contour>
      <point x="1946" y="1800" type="line"/>
      <point x="1879" y="1800" type="line"/>
      <point x="1422" y="1517" type="line"/>
      <point x="1058" y="1800" type="line"/>
      <point x="709" y="1800" type="line"/>
      <point x="1144" y="1485" type="line"/>
      <point x="1426" y="1485" type="line"/>
    </contour>
  </outline>
</glyph>
<glyph name="tcaron" format="2">
  <advance width="1378"/>
  <unicode hex="0165"/>
  <anchor x="808" y="1394" name="top"/>
  <anchor x="539" y="-150" name="bottom"/>
  <anchor x="813" y="1400" name="right"/>
  <outline>
    <contour>
      <point x="577" y="0" type="qcurve" smooth="yes"/>
      <point x="1081" y="0" type="line"/>
      <point x="1097" y="32" type="line"/>
      <point x="575" y="32" type="line"/>
      <point x="575" y="32"/>
      <point x="575" y="32"/>
      <point x="575" y="32" type="qcurve"/>
      <point x="738" y="968" type="line"/>
      <point x="1290" y="968" type="line"/>
      <point x="1296" y="1000" type="line"/>
      <point x="744" y="1000" type="line"/>
      <point x="786" y="1244" type="line"/>
      <point x="538" y="1244" type="line"/>
      <point x="496" y="1000" type="line"/>
      <point x="184" y="1000" type="line"/>
      <point x="178" y="968" type="line"/>
      <point x="490" y="968" type="line"/>
      <point x="358" y="214" type="line" smooth="yes"/>
      <point x="337.626" y="97.7916"/>
      <point x="438.154" y="0"/>
    </contour>
    <contour>
      <point x="957" y="1063" type="line"/>
      <point x="996" y="1071" type="line"/>
      <point x="1206" y="1400" type="line"/>
      <point x="1017" y="1400" type="line"/>
    </contour>
  </outline>
</glyph>
<glyph name="uring" format="2">
  <advance width="2201"/>
  <unicode hex="016F"/>
  <anchor x="1250" y="1540" name="top"/>
  <anchor x="953" y="-160" name="bottom"/>
  <anchor x="1002" y="0" name="ogonek"/>
  <anchor x="1947" y="1000" name="horn"/>
  <outline>
    <contour>
      <point x="224" y="194" type="line" smooth="yes"/>
      <point x="202.117" y="67.2272"/>
      <point x="317.301" y="-10"/>
      <point x="432" y="-10" type="qcurve" smooth="yes"/>
      <point x="1524" y="-10" type="line" smooth="yes"/>
      <point x="1638.7" y="-10"/>
      <point x="1784.12" y="67.2272"/>
      <point x="1806" y="194" type="qcurve" smooth="yes"/>
      <point x="1947" y="1000" type="line"/>
      <point x="1699" y="1000" type="line"/>
      <point x="1528" y="22" type="line"/>
      <point x="1528" y="22"/>
      <point x="1528" y="22"/>
      <point x="1528" y="22" type="qcurve"/>
      <point x="442" y="22" type="line"/>
      <point x="442" y="22"/>
      <point x="442" y="22"/>
      <point x="442" y="22" type="qcurve"/>
      <point x="613" y="1000" type="line"/>
      <point x="365" y="1000" type="line"/>
    </contour>
    <contour>
      <point x="1175" y="1113" type="qcurve" smooth="yes"/>
      <point x="1254.12" y="1113"/>
      <point x="1350.28" y="1122.03"/>
      <point x="1405.97" y="1153.72"/>
      <point x="1432" y="1214.88"/>
      <point x="1441" y="1267" type="qcurve" smooth="yes"/>
      <point x="1450.38" y="1319.12"/>
      <point x="1445.81" y="1379.97"/>
      <point x="1401.19" y="1411.28"/>
      <point x="1308.12" y="1420"/>
      <point x="1229" y="1420" type="qcurve" smooth="yes"/>
      <point x="1149.88" y="1420"/>
      <point x="1054.31" y="1411.28"/>
      <point x="999.188" y="1379.97"/>
      <point x="973.375" y="1319.12"/>
      <point x="964" y="1267" type="qcurve" smooth="yes"/>
      <point x="955" y="1214.88"/>
      <point x="959.344" y="1153.72"/>
      <point x="1003.41" y="1122.03"/>
      <point x="1095.88" y="1113"/>
    </contour>
    <contour>
      <point x="1180" y="1141" type="qcurve" smooth="yes"/>
      <point x="1100.77" y="1141"/>
      <point x="1075.91" y="1181.73"/>
      <point x="1091" y="1267" type="qcurve" smooth="yes"/>
      <point x="1106.09" y="1350.76"/>
      <point x="1144.77" y="1392"/>
      <point x="1224" y="1392" type="qcurve" smooth="yes"/>
      <point x="1305.5" y="1392"/>
      <point x="1329.09" y="1350.76"/>
      <point x="1314" y="1267" type="qcurve" smooth="yes"/>
      <point x="1300.42" y="1189.28"/>
      <point x="1259.99" y="1141"/>
    </contour>
  </outline>
</glyph>
<glyph name="Uhungarumlaut" format="2">
  <advance width="2944"/>
  <unicode hex="0170"/>
  <anchor x="1623" y="1550" name="top"/>
  <anchor x="1326" y="-150" name="bottom"/>
  <anchor x="1375" y="0" name="ogonek"/>
  <anchor x="2676" y="1400" name="horn"/>
  <anchor x="1972.15" y="1535" name="topright"/>
  <outline>
    <contour>
      <point x="519" y="1400" type="line"/>
      <point x="325" y="286" type="line" smooth="yes"/>
      <point x="309.625" y="197.5"/>
      <point x="337.406" y="86"/>
      <point x="414.844" y="23"/>
      <point x="537.5" y="0"/>
      <point x="617" y="0" type="qcurve" smooth="yes"/>
      <point x="2091" y="0" type="line" smooth="yes"/>
      <point x="2251.5" y="0"/>
      <point x="2454.25" y="109"/>
      <point x="2485" y="286" type="qcurve" smooth="yes"/>
      <point x="2679" y="1400" type="line"/>
      <point x="2415" y="1400" type="line"/>
      <point x="2177" y="36" type="line"/>
      <point x="2177" y="36"/>
      <point x="2177" y="36"/>
      <point x="2177" y="36" type="qcurve"/>
      <point x="545" y="36" type="line"/>
      <point x="545" y="36"/>
      <point x="545" y="36"/>
      <point x="545" y="36" type="qcurve"/>
      <point x="783" y="1400" type="line"/>
    </contour>
    <contour>
      <point x="1247.25" y="1535" type="line"/>
      <point x="1312.7" y="1535" type="line"/>
      <point x="1993.55" y="1850" type="line"/>
      <point x="1638.25" y="1850" type="line"/>
    </contour>
    <contour>
      <point x="1926.25" y="1535" type="line"/>
      <point x="1991.7" y="1535" type="line"/>
      <point x="2672.55" y="1850" type="line"/>
      <point x="2317.25" y="1850" type="line"/>
    </contour>
  </outline>
</glyph>
<glyph name="Zacute" format="2">
  <advance width="2082"/>
  <unicode hex="0179"/>
  <anchor x="1225" y="1550" name="top"/>
  <anchor x="914" y="-150" name="bottom"/>
  <anchor x="1073" y="1535" name="topright"/>
  <outline>
    <contour>
      <point x="-99" y="0" type="line"/>
      <point x="1928" y="0" type="line"/>
      <point x="1934" y="36" type="line"/>
      <point x="283" y="36" type="line"/>
      <point x="285" y="29" type="line"/>
      <point x="2167" y="1382" type="line"/>
      <point x="2170" y="1400" type="line"/>
      <point x="229" y="1400" type="line"/>
      <point x="223" y="1364" type="line"/>
      <point x="1788" y="1364" type="line"/>
      <point x="1786" y="1371" type="line"/>
      <point x="-96" y="18" type="line"/>
    </contour>
    <contour>
      <point x="1019" y="1535" type="line"/>
      <point x="1096" y="1535" type="line"/>
      <point x="1897" y="1850" type="line"/>
      <point x="1479" y="1850" type="line"/>
    </contour>
  </outline>
</glyph>
<glyph name="zacute" format="2">
  <advance width="1834"/>
  <unicode hex="017A"/>
  <anchor x="998" y="1150" name="top"/>
  <anchor x="771" y="-150" name="bottom"/>
  <outline>
    <contour>
      <point x="47" y="0" type="line"/>
      <point x="1550" y="0" type="line"/>
      <point x="1556" y="32" type="line"/>
      <point x="395" y="32" type="line"/>
      <point x="397" y="25" type="line"/>
      <point x="1716" y="984" type="line"/>
      <point x="1719" y="1000" type="line"/>
      <point x="282" y="1000" type="line"/>
      <point x="276" y="968" type="line"/>
      <point x="1372" y="968" type="line"/>
      <point x="1370" y="975" type="line"/>
      <point x="50" y="18" type="line"/>
    </contour>
    <contour>
      <point x="796" y="1085" type="line"/>
      <point x="857" y="1085" type="line"/>
      <point x="1667" y="1448" type="line"/>
      <point x="1313" y="1448" type="line"/>
    </contour>
  </outline>
</glyph>
<glyph name="zcaron" format="2">
  <advance width="1834"/>
  <unicode hex="017E"/>
  <anchor x="1068" y="1548" name="top"/>
  <anchor x="771" y="-150" name="bottom"/>
  <anchor x="388" y="1266" name="topright"/>
  <outline>
    <contour>
      <point x="47" y="0" type="line"/>
      <point x="1550" y="0" type="line"/>
      <point x="1556" y="32" type="line"/>
      <point x="395" y="32" type="line"/>
      <point x="397" y="25" type="line"/>
      <point x="1716" y="984" type="line"/>
      <point x="1719" y="1000" type="line"/>
      <point x="282" y="1000" type="line"/>
      <point x="276" y="968" type="line"/>
      <point x="1372" y="968" type="line"/>
      <point x="1370" y="975" type="line"/>
      <point x="50" y="18" type="line"/>
    </contour>
    <contour>
      <point x="1636" y="1448" type="line"/>
      <point x="1580" y="1448" type="line"/>
      <point x="1085" y="1105" type="line"/>
      <point x="706" y="1448" type="line"/>
      <point x="420" y="1448" type="line"/>
      <point x="846" y="1085" type="line"/>
      <point x="1109" y="1085" type="line"/>
    </contour>
  </outline>
</glyph>
<glyph name="uni0190" format="2">
  <advance width="2947"/>
  <unicode hex="0190"/>
  <outline>
    <contour>
      <point x="559" y="0" type="qcurve" smooth="yes"/>
      <point x="2169" y="0" type="line" smooth="yes"/>
      <point x="2321.43" y="0"/>
      <point x="2506.34" y="115.117"/>
      <point x="2532" y="260" type="qcurve" smooth="yes"/>
      <point x="2564" y="442" type="line"/>
      <point x="2308" y="490" type="line"/>
      <point x="2229" y="36" type="line"/>
      <point x="2229" y="36"/>
      <point x="2229" y="36"/>
      <point x="2229" y="36" type="qcurve"/>
      <point x="717" y="36" type="line" smooth="yes"/>
      <point x="612.111" y="36"/>
      <point x="503.399" y="140.166"/>
      <point x="520" y="236" type="qcurve" smooth="yes"/>
      <point x="569" y="518" type="line" smooth="yes"/>
      <point x="584.847" y="608.552"/>
      <point x="721.301" y="718"/>
      <point x="836" y="718" type="qcurve" smooth="yes"/>
      <point x="1986" y="718" type="line"/>
      <point x="1992" y="754" type="line"/>
      <point x="852" y="754" type="line" smooth="yes"/>
      <point x="737.301" y="754"/>
      <point x="639.153" y="863.448"/>
      <point x="655" y="954" type="qcurve" smooth="yes"/>
      <point x="692" y="1164" type="line" smooth="yes"/>
      <point x="710.865" y="1272.66"/>
      <point x="845.81" y="1364"/>
      <point x="959" y="1364" type="qcurve" smooth="yes"/>
      <point x="2446" y="1364" type="line"/>
      <point x="2446" y="1364"/>
      <point x="2446" y="1364"/>
      <point x="2446" y="1364" type="qcurve"/>
      <point x="2371" y="936" type="line"/>
      <point x="2644" y="984" type="line"/>
      <point x="2673" y="1152" type="line" smooth="yes"/>
      <point x="2694.88" y="1275.75"/>
      <point x="2541.11" y="1400"/>
      <point x="2400" y="1400" type="qcurve" smooth="yes"/>
      <point x="813" y="1400" type="line" smooth="yes"/>
      <point x="649.252" y="1400"/>
      <point x="448.166" y="1280.69"/>
      <point x="421" y="1126" type="qcurve" smooth="yes"/>
      <point x="398" y="992" type="line" smooth="yes"/>
      <point x="378.38" y="878.055"/>
      <point x="450.767" y="762.393"/>
      <point x="530" y="739" type="qcurve"/>
      <point x="440.203" y="718.626"/>
      <point x="320.129" y="602.245"/>
      <point x="299" y="480" type="qcurve" smooth="yes"/>
      <point x="263" y="274" type="line" smooth="yes"/>
      <point x="239.607" y="138.172"/>
      <point x="405.816" y="0"/>
    </contour>
  </outline>
</glyph>
<glyph name="florin" format="2">
  <advance width="2086"/>
  <unicode hex="0192"/>
  <outline>
    <contour>
      <point x="-195" y="-428" type="line"/>
      <point x="489" y="-428" type="line" smooth="yes"/>
      <point x="573.75" y="-428"/>
      <point x="696.156" y="-420.062"/>
      <point x="790.094" y="-372.438"/>
      <point x="864.875" y="-269.25"/>
      <point x="902" y="-174" type="qcurve" smooth="yes"/>
      <point x="1281" y="808" type="line"/>
      <point x="1843" y="808" type="line"/>
      <point x="1856" y="840" type="line"/>
      <point x="1294" y="840" type="line"/>
      <point x="1517" y="1416" type="line"/>
      <point x="1517" y="1416"/>
      <point x="1517" y="1416"/>
      <point x="1517" y="1416" type="qcurve"/>
      <point x="2199" y="1416" type="line"/>
      <point x="2221" y="1448" type="line"/>
      <point x="1537" y="1448" type="line" smooth="yes"/>
      <point x="1414.75" y="1448"/>
      <point x="1234.07" y="1328.32"/>
      <point x="1182" y="1194" type="qcurve" smooth="yes"/>
      <point x="1046" y="840" type="line"/>
      <point x="774" y="840" type="line"/>
      <point x="761" y="808" type="line"/>
      <point x="1033" y="808" type="line"/>
      <point x="568" y="-396" type="line"/>
      <point x="568" y="-396"/>
      <point x="568" y="-396"/>
      <point x="568" y="-396" type="qcurve"/>
      <point x="-172" y="-396" type="line"/>
    </contour>
  </outline>
</glyph>
<glyph name="uni0198" format="2">
  <advance width="2724"/>
  <unicode hex="0198"/>
  <anchor x="1582" y="1550" name="top"/>
  <anchor x="1420" y="-150" name="bottom"/>
  <outline>
    <contour>
      <point x="2202" y="1295" type="line" smooth="yes"/>
      <point x="2281.99" y="1325.94"/>
      <point x="2444.26" y="1350"/>
      <point x="2525" y="1350" type="qcurve" smooth="yes"/>
      <point x="2715" y="1350" type="line"/>
      <point x="2733" y="1386" type="line"/>
      <point x="2532" y="1386" type="line" smooth="yes"/>
      <point x="2445.22" y="1386"/>
      <point x="2272.02" y="1358.45"/>
      <point x="2186" y="1326" type="qcurve" smooth="yes"/>
      <point x="666" y="737" type="line"/>
      <point x="679" y="754" type="line"/>
      <point x="791" y="1400" type="line"/>
      <point x="527" y="1400" type="line"/>
      <point x="283" y="0" type="line"/>
      <point x="547" y="0" type="line"/>
      <point x="664" y="720" type="line"/>
      <point x="518" y="720" type="line"/>
      <point x="2065" y="0" type="line"/>
      <point x="2604" y="0" type="line"/>
      <point x="875" y="787" type="line"/>
      <point x="774" y="742" type="line"/>
    </contour>
  </outline>
</glyph>
<glyph name="uni01C9" format="2">
  <advance width="1776"/>
  <unicode hex="01C9"/>
  <anchor x="1418" y="1150" name="top"/>
  <anchor x="298" y="-150" name="bottom"/>
  <anchor x="701" y="1448" name="right"/>
  <anchor x="890" y="700" name="eldot"/>
  <outline>
    <contour>
      <point x="201" y="0" type="line"/>
      <point x="449" y="0" type="line"/>
      <point x="702" y="1448" type="line"/>
      <point x="454" y="1448" type="line"/>
    </contour>
    <contour>
      <point x="181" y="-396" type="line"/>
      <point x="183" y="-428" type="line"/>
      <point x="951" y="-428" type="line" smooth="yes"/>
      <point x="1035.75" y="-428"/>
      <point x="1156.47" y="-420.062"/>
      <point x="1240.28" y="-372.438"/>
      <point x="1293.12" y="-269.25"/>
      <point x="1310" y="-174" type="qcurve" smooth="yes"/>
      <point x="1515" y="1000" type="line"/>
      <point x="1267" y="1000" type="line"/>
      <point x="1023" y="-396" type="line"/>
      <point x="1023" y="-396"/>
      <point x="1023" y="-396"/>
      <point x="1023" y="-396" type="qcurve"/>
    </contour>
    <contour>
      <point x="1299" y="1230" type="line" smooth="yes"/>
      <point x="1286.93" y="1163.6"/>
      <point x="1306.6" y="1140"/>
      <point x="1373" y="1140" type="qcurve" smooth="yes"/>
      <point x="1457" y="1140" type="line" smooth="yes"/>
      <point x="1523.4" y="1140"/>
      <point x="1550.93" y="1163.6"/>
      <point x="1563" y="1230" type="qcurve" smooth="yes"/>
      <point x="1577" y="1312" type="line" smooth="yes"/>
      <point x="1588.32" y="1376.9"/>
      <point x="1568.4" y="1400"/>
      <point x="1502" y="1400" type="qcurve" smooth="yes"/>
      <point x="1418" y="1400" type="line" smooth="yes"/>
      <point x="1351.6" y="1400"/>
      <point x="1324.32" y="1376.9"/>
      <point x="1313" y="1312" type="qcurve" smooth="yes"/>
    </contour>
  </outline>
</glyph>
<glyph name="uni01EA" format="2">
  <advance width="3142"/>
  <unicode hex="01EA"/>
  <anchor x="1732" y="1550" name="top"/>
  <anchor x="1433" y="-150" name="bottom"/>
  <anchor x="2835" y="1126" name="horn"/>
  <anchor x="1480" y="0" name="ogonek"/>
  <outline>
    <contour>
      <point x="463" y="1126" type="qcurve" smooth="yes"/>
      <point x="316" y="286" type="line" smooth="yes"/>
      <point x="285.061" y="109.424"/>
      <point x="446.516" y="0"/>
      <point x="608" y="0" type="qcurve" smooth="yes"/>
      <point x="2298" y="0" type="line" smooth="yes"/>
      <point x="2459.48" y="0"/>
      <point x="2661.06" y="107.914"/>
      <point x="2692" y="286" type="qcurve" smooth="yes"/>
      <point x="2839" y="1126" type="line" smooth="yes"/>
      <point x="2868.25" y="1297"/>
      <point x="2693.5" y="1400"/>
      <point x="2542" y="1400" type="qcurve" smooth="yes"/>
      <point x="852" y="1400" type="line" smooth="yes"/>
      <point x="700.5" y="1400"/>
      <point x="492.25" y="1297"/>
    </contour>
    <contour>
      <point x="768" y="1364" type="line"/>
      <point x="768" y="1364"/>
      <point x="768" y="1364"/>
      <point x="768" y="1364" type="qcurve"/>
      <point x="2616" y="1364" type="line"/>
      <point x="2616" y="1364"/>
      <point x="2616" y="1364"/>
      <point x="2616" y="1364" type="qcurve"/>
      <point x="2384" y="36" type="line"/>
      <point x="2384" y="36"/>
      <point x="2384" y="36"/>
      <point x="2384" y="36" type="qcurve"/>
      <point x="536" y="36" type="line"/>
      <point x="536" y="36"/>
      <point x="536" y="36"/>
      <point x="536" y="36" type="qcurve"/>
    </contour>
    <contour>
      <point x="1441.55" y="-428" type="qcurve" smooth="yes"/>
      <point x="1490.72" y="-428"/>
      <point x="1572.61" y="-404.847"/>
      <point x="1596" y="-389" type="qcurve"/>
      <point x="1695" y="-210" type="line"/>
      <point x="1668.59" y="-223.583"/>
      <point x="1587.46" y="-240"/>
      <point x="1545.83" y="-240" type="qcurve" smooth="yes"/>
      <point x="1465.22" y="-240"/>
      <point x="1385.2" y="-176.94"/>
      <point x="1395.03" y="-121.408" type="qcurve" smooth="yes"/>
      <point x="1400.29" y="-91.6706"/>
      <point x="1440.01" y="-34.7116"/>
      <point x="1480" y="0" type="qcurve"/>
      <point x="1435" y="0" type="line"/>
      <point x="1388.21" y="-48.2944"/>
      <point x="1273.54" y="-164.706"/>
      <point x="1226" y="-213" type="qcurve"/>
      <point x="1209.4" y="-308.834"/>
      <point x="1329.99" y="-428"/>
    </contour>
  </outline>
</glyph>
<glyph name="uni01EB" format="2">
  <advance width="2287"/>
  <unicode hex="01EB"/>
  <anchor x="1224" y="1150" name="top"/>
  <anchor x="997" y="-150" name="bottom"/>
  <anchor x="2006" y="796" name="horn"/>
  <anchor x="1044" y="0" name="ogonek"/>
  <outline>
    <contour>
      <point x="219" y="214" type="line" smooth="yes"/>
      <point x="198.626" y="97.7916"/>
      <point x="299.154" y="0"/>
      <point x="438" y="0" type="qcurve" smooth="yes"/>
      <point x="1614" y="0" type="line" smooth="yes"/>
      <point x="1754.36" y="0"/>
      <point x="1886.63" y="97.7916"/>
      <point x="1907" y="214" type="qcurve" smooth="yes"/>
      <point x="2009" y="796" type="line" smooth="yes"/>
      <point x="2027.87" y="904.662"/>
      <point x="1926.34" y="1000"/>
      <point x="1789" y="1000" type="qcurve" smooth="yes"/>
      <point x="613" y="1000" type="line" smooth="yes"/>
      <point x="475.663" y="1000"/>
      <point x="339.865" y="904.662"/>
      <point x="321" y="796" type="qcurve" smooth="yes"/>
    </contour>
    <contour>
      <point x="436" y="32" type="qcurve"/>
      <point x="599" y="968" type="line"/>
      <point x="599" y="968"/>
      <point x="599" y="968"/>
      <point x="599" y="968" type="qcurve"/>
      <point x="1791" y="968" type="line"/>
      <point x="1791" y="968"/>
      <point x="1791" y="968"/>
      <point x="1791" y="968" type="qcurve"/>
      <point x="1628" y="32" type="line"/>
      <point x="1628" y="32"/>
      <point x="1628" y="32"/>
      <point x="1628" y="32" type="qcurve"/>
      <point x="436" y="32" type="line"/>
      <point x="436" y="32"/>
      <point x="436" y="32"/>
    </contour>
    <contour>
      <point x="973.072" y="-418" type="qcurve" smooth="yes"/>
      <point x="1009.41" y="-418"/>
      <point x="1071.12" y="-403.337"/>
      <point x="1093" y="-389" type="qcurve"/>
      <point x="1192" y="-210" type="line"/>
      <point x="1164.08" y="-224.337"/>
      <point x="1100.26" y="-240"/>
      <point x="1070.3" y="-240" type="qcurve" smooth="yes"/>
      <point x="1009.71" y="-240"/>
      <point x="948.905" y="-177.874"/>
      <point x="957.839" y="-125.214" type="qcurve" smooth="yes"/>
      <point x="963.243" y="-93.3592"/>
      <point x="1003.25" y="-35.4662"/>
      <point x="1044" y="0" type="qcurve"/>
      <point x="1002" y="0" type="line"/>
      <point x="955.215" y="-48.2944"/>
      <point x="840.54" y="-164.706"/>
      <point x="793" y="-213" type="qcurve"/>
      <point x="776.399" y="-308.08"/>
      <point x="873.58" y="-418"/>
    </contour>
  </outline>
</glyph>
<glyph name="Aringacute" format="2">
  <advance width="2642"/>
  <unicode hex="01FA"/>
  <anchor x="1473" y="1550" name="top"/>
  <anchor x="1176" y="-150" name="bottom"/>
  <anchor x="2212" y="0" name="ogonek_in"/>
  <outline>
    <contour>
      <point x="-120" y="0" type="line"/>
      <point x="-69" y="0" type="line"/>
      <point x="308" y="362" type="line"/>
      <point x="1961" y="362" type="line"/>
      <point x="2215" y="0" type="line"/>
      <point x="2522" y="0" type="line"/>
      <point x="1530" y="1400" type="line"/>
      <point x="1336" y="1400" type="line"/>
    </contour>
    <contour>
      <point x="345" y="398" type="line"/>
      <point x="1293" y="1309" type="line"/>
      <point x="1936" y="398" type="line"/>
    </contour>
    <contour>
      <point x="1252" y="1619" type="qcurve" smooth="yes"/>
      <point x="1244.12" y="1573.62"/>
      <point x="1250.81" y="1518.84"/>
      <point x="1296.19" y="1489.41"/>
      <point x="1388.38" y="1480"/>
      <point x="1466" y="1480" type="qcurve" smooth="yes"/>
      <point x="1544.38" y="1480"/>
      <point x="1640.25" y="1489.41"/>
      <point x="1695.75" y="1518.84"/>
      <point x="1721.12" y="1573.62"/>
      <point x="1729" y="1619" type="qcurve" smooth="yes"/>
      <point x="1736.88" y="1664.38"/>
      <point x="1730.44" y="1718.84"/>
      <point x="1685.06" y="1747.91"/>
      <point x="1592.38" y="1757"/>
      <point x="1514" y="1757" type="qcurve" smooth="yes"/>
      <point x="1436.38" y="1757"/>
      <point x="1341" y="1747.91"/>
      <point x="1285.5" y="1718.84"/>
      <point x="1259.88" y="1664.38"/>
    </contour>
    <contour>
      <point x="1379" y="1619" type="qcurve" smooth="yes"/>
      <point x="1390.32" y="1684.65"/>
      <point x="1442.6" y="1729"/>
      <point x="1509" y="1729" type="qcurve" smooth="yes"/>
      <point x="1575.4" y="1729"/>
      <point x="1613.32" y="1684.65"/>
      <point x="1602" y="1619" type="qcurve" smooth="yes"/>
      <point x="1590.68" y="1553.35"/>
      <point x="1537.4" y="1508"/>
      <point x="1471" y="1508" type="qcurve" smooth="yes"/>
      <point x="1404.6" y="1508"/>
      <point x="1367.68" y="1553.35"/>
    </contour>
    <contour>
      <point x="1553" y="1817" type="line"/>
      <point x="1980" y="2050" type="line"/>
      <point x="1690" y="2050" type="line"/>
      <point x="1496" y="1817" type="line"/>
    </contour>
  </outline>
</glyph>
<glyph name="uni0207" format="2">
  <advance width="2247"/>
  <unicode hex="0207"/>
  <anchor x="1204" y="1150" name="top"/>
  <anchor x="977" y="-150" name="bottom"/>
  <anchor x="1509" y="0" name="ogonek"/>
  <outline>
    <contour>
      <point x="227" y="260" type="line" smooth="yes"/>
      <point x="202.853" y="119.644"/>
      <point x="327.951" y="0"/>
      <point x="500" y="0" type="qcurve" smooth="yes"/>
      <point x="1512" y="0" type="line" smooth="yes"/>
      <point x="1684.05" y="0"/>
      <point x="1850.85" y="119.644"/>
      <point x="1875" y="260" type="qcurve"/>
      <point x="1877" y="270" type="line"/>
      <point x="1637" y="314" type="line"/>
      <point x="1588" y="32" type="line"/>
      <point x="1588" y="32"/>
      <point x="1588" y="32"/>
      <point x="1588" y="32" type="qcurve"/>
      <point x="436" y="32" type="line"/>
      <point x="436" y="32"/>
      <point x="436" y="32"/>
      <point x="436" y="32" type="qcurve"/>
      <point x="515" y="486" type="line"/>
      <point x="1915" y="486" type="line"/>
      <point x="1961" y="750" type="line" smooth="yes"/>
      <point x="1984.39" y="885.828"/>
      <point x="1859.05" y="1000"/>
      <point x="1687" y="1000" type="qcurve" smooth="yes"/>
      <point x="675" y="1000" type="line" smooth="yes"/>
      <point x="504.46" y="1000"/>
      <point x="336.393" y="884.319"/>
      <point x="313" y="750" type="qcurve" smooth="yes"/>
    </contour>
    <contour>
      <point x="520" y="518" type="line"/>
      <point x="599" y="968" type="line"/>
      <point x="599" y="968"/>
      <point x="599" y="968"/>
      <point x="599" y="968" type="qcurve"/>
      <point x="1751" y="968" type="line"/>
      <point x="1751" y="968"/>
      <point x="1751" y="968"/>
      <point x="1751" y="968" type="qcurve"/>
      <point x="1672" y="518" type="line"/>
    </contour>
    <contour>
      <point x="1255.5" y="1417" type="qcurve" smooth="yes"/>
      <point x="1155" y="1417"/>
      <point x="1005.65" y="1391.38"/>
      <point x="900.206" y="1323.12"/>
      <point x="834.79" y="1203.75"/>
      <point x="818.224" y="1110" type="qcurve"/>
      <point x="976.224" y="1110" type="line"/>
      <point x="993.076" y="1205.62"/>
      <point x="1036.38" y="1315.47"/>
      <point x="1099.01" y="1370.78"/>
      <point x="1185.84" y="1385"/>
      <point x="1246.22" y="1385" type="qcurve" smooth="yes"/>
      <point x="1305.47" y="1385"/>
      <point x="1386.67" y="1370.78"/>
      <point x="1429.97" y="1315.47"/>
      <point x="1435.08" y="1205.62"/>
      <point x="1418.22" y="1110" type="qcurve"/>
      <point x="1576.22" y="1110" type="line"/>
      <point x="1592.79" y="1203.75"/>
      <point x="1571.8" y="1323.12"/>
      <point x="1493.31" y="1391.38"/>
      <point x="1355.63" y="1417"/>
    </contour>
  </outline>
  <guideline angle="0" color="1,0,0,1" x="0" y="-1000"/>
</glyph>
<glyph name="uni0208" format="2">
  <advance width="1064"/>
  <unicode hex="0208"/>
  <anchor x="683" y="1550" name="top"/>
  <anchor x="386" y="-150" name="bottom"/>
  <anchor x="325" y="0" name="ogonek"/>
  <anchor x="434.529" y="1535" name="topright"/>
  <outline>
    <contour>
      <point x="283" y="0" type="line"/>
      <point x="547" y="0" type="line"/>
      <point x="791" y="1400" type="line"/>
      <point x="527" y="1400" type="line"/>
    </contour>
    <contour>
      <point x="1159.43" y="1535" type="line"/>
      <point x="879.53" y="1850" type="line"/>
      <point x="524.23" y="1850" type="line"/>
      <point x="1093.98" y="1535" type="line"/>
    </contour>
    <contour>
      <point x="480.429" y="1535" type="line"/>
      <point x="200.53" y="1850" type="line"/>
      <point x="-154.77" y="1850" type="line"/>
      <point x="414.979" y="1535" type="line"/>
    </contour>
  </outline>
</glyph>
<glyph name="uni0209" format="2">
  <advance width="887"/>
  <unicode hex="0209"/>
  <anchor x="297" y="-150" name="bottom"/>
  <anchor x="524" y="1150" name="top"/>
  <anchor x="241" y="0" name="ogonek"/>
  <outline>
    <contour>
      <point x="202" y="0" type="line"/>
      <point x="450" y="0" type="line"/>
      <point x="625" y="1000" type="line"/>
      <point x="377" y="1000" type="line"/>
    </contour>
    <contour>
      <point x="921.985" y="1135" type="line"/>
      <point x="600.982" y="1498" type="line"/>
      <point x="300.082" y="1498" type="line"/>
      <point x="870.135" y="1135" type="line"/>
    </contour>
    <contour>
      <point x="404.985" y="1135" type="line"/>
      <point x="83.9824" y="1498" type="line"/>
      <point x="-216.918" y="1498" type="line"/>
      <point x="353.135" y="1135" type="line"/>
    </contour>
  </outline>
</glyph>
<glyph name="uni020F" format="2">
  <advance width="2287"/>
  <unicode hex="020F"/>
  <anchor x="1224" y="1150" name="top"/>
  <anchor x="997" y="-150" name="bottom"/>
  <anchor x="2006" y="796" name="horn"/>
  <anchor x="1044" y="0" name="ogonek"/>
  <outline>
    <contour>
      <point x="219" y="214" type="line" smooth="yes"/>
      <point x="198.626" y="97.7916"/>
      <point x="299.154" y="0"/>
      <point x="438" y="0" type="qcurve" smooth="yes"/>
      <point x="1614" y="0" type="line" smooth="yes"/>
      <point x="1754.36" y="0"/>
      <point x="1886.63" y="97.7916"/>
      <point x="1907" y="214" type="qcurve" smooth="yes"/>
      <point x="2009" y="796" type="line" smooth="yes"/>
      <point x="2027.87" y="904.662"/>
      <point x="1926.34" y="1000"/>
      <point x="1789" y="1000" type="qcurve" smooth="yes"/>
      <point x="613" y="1000" type="line" smooth="yes"/>
      <point x="475.663" y="1000"/>
      <point x="339.865" y="904.662"/>
      <point x="321" y="796" type="qcurve" smooth="yes"/>
    </contour>
    <contour>
      <point x="436" y="32" type="qcurve"/>
      <point x="599" y="968" type="line"/>
      <point x="599" y="968"/>
      <point x="599" y="968"/>
      <point x="599" y="968" type="qcurve"/>
      <point x="1791" y="968" type="line"/>
      <point x="1791" y="968"/>
      <point x="1791" y="968"/>
      <point x="1791" y="968" type="qcurve"/>
      <point x="1628" y="32" type="line"/>
      <point x="1628" y="32"/>
      <point x="1628" y="32"/>
      <point x="1628" y="32" type="qcurve"/>
      <point x="436" y="32" type="line"/>
      <point x="436" y="32"/>
      <point x="436" y="32"/>
    </contour>
    <contour>
      <point x="1275.5" y="1417" type="qcurve" smooth="yes"/>
      <point x="1175" y="1417"/>
      <point x="1025.65" y="1391.38"/>
      <point x="920.206" y="1323.12"/>
      <point x="854.79" y="1203.75"/>
      <point x="838.224" y="1110" type="qcurve"/>
      <point x="996.224" y="1110" type="line"/>
      <point x="1013.08" y="1205.62"/>
      <point x="1056.38" y="1315.47"/>
      <point x="1119.01" y="1370.78"/>
      <point x="1205.84" y="1385"/>
      <point x="1266.22" y="1385" type="qcurve" smooth="yes"/>
      <point x="1325.47" y="1385"/>
      <point x="1406.67" y="1370.78"/>
      <point x="1449.97" y="1315.47"/>
      <point x="1455.08" y="1205.62"/>
      <point x="1438.22" y="1110" type="qcurve"/>
      <point x="1596.22" y="1110" type="line"/>
      <point x="1612.79" y="1203.75"/>
      <point x="1591.8" y="1323.12"/>
      <point x="1513.31" y="1391.38"/>
      <point x="1375.63" y="1417"/>
    </contour>
  </outline>
</glyph>
<glyph name="uni0211" format="2">
  <advance width="1869"/>
  <unicode hex="0211"/>
  <anchor x="1109" y="1150" name="top"/>
  <anchor x="297" y="-150" name="bottom"/>
  <anchor x="186" y="500" name="left"/>
  <outline>
    <contour>
      <point x="202" y="0" type="line"/>
      <point x="450" y="0" type="line"/>
      <point x="619" y="968" type="line"/>
      <point x="1541" y="968" type="line"/>
      <point x="1541" y="968"/>
      <point x="1541" y="968"/>
      <point x="1541" y="968" type="qcurve"/>
      <point x="1484" y="644" type="line"/>
      <point x="1741" y="691" type="line"/>
      <point x="1751" y="750" type="line" smooth="yes"/>
      <point x="1762.62" y="816.75"/>
      <point x="1743.47" y="911.562"/>
      <point x="1677.28" y="971.938"/>
      <point x="1561.75" y="1000"/>
      <point x="1477" y="1000" type="qcurve" smooth="yes"/>
      <point x="701" y="1000" type="line" smooth="yes"/>
      <point x="673.834" y="1000"/>
      <point x="632.828" y="985.583"/>
      <point x="620" y="972" type="qcurve"/>
      <point x="625" y="1000" type="line"/>
      <point x="377" y="1000" type="line"/>
    </contour>
    <contour>
      <point x="1506.99" y="1135" type="line"/>
      <point x="1185.98" y="1498" type="line"/>
      <point x="885.082" y="1498" type="line"/>
      <point x="1455.14" y="1135" type="line"/>
    </contour>
    <contour>
      <point x="989.985" y="1135" type="line"/>
      <point x="668.982" y="1498" type="line"/>
      <point x="368.082" y="1498" type="line"/>
      <point x="938.135" y="1135" type="line"/>
    </contour>
  </outline>
  <guideline angle="0" x="0" y="988"/>
  <guideline angle="0" x="0" y="870"/>
</glyph>
<glyph name="uni0213" format="2">
  <advance width="1869"/>
  <unicode hex="0213"/>
  <anchor x="1109" y="1150" name="top"/>
  <anchor x="297" y="-150" name="bottom"/>
  <anchor x="186" y="500" name="left"/>
  <outline>
    <contour>
      <point x="202" y="0" type="line"/>
      <point x="450" y="0" type="line"/>
      <point x="619" y="968" type="line"/>
      <point x="1541" y="968" type="line"/>
      <point x="1541" y="968"/>
      <point x="1541" y="968"/>
      <point x="1541" y="968" type="qcurve"/>
      <point x="1484" y="644" type="line"/>
      <point x="1741" y="691" type="line"/>
      <point x="1751" y="750" type="line" smooth="yes"/>
      <point x="1762.62" y="816.75"/>
      <point x="1743.47" y="911.562"/>
      <point x="1677.28" y="971.938"/>
      <point x="1561.75" y="1000"/>
      <point x="1477" y="1000" type="qcurve" smooth="yes"/>
      <point x="701" y="1000" type="line" smooth="yes"/>
      <point x="673.834" y="1000"/>
      <point x="632.828" y="985.583"/>
      <point x="620" y="972" type="qcurve"/>
      <point x="625" y="1000" type="line"/>
      <point x="377" y="1000" type="line"/>
    </contour>
    <contour>
      <point x="1160.5" y="1417" type="qcurve" smooth="yes"/>
      <point x="1060" y="1417"/>
      <point x="910.653" y="1391.38"/>
      <point x="805.206" y="1323.12"/>
      <point x="739.79" y="1203.75"/>
      <point x="723.224" y="1110" type="qcurve"/>
      <point x="881.224" y="1110" type="line"/>
      <point x="898.076" y="1205.62"/>
      <point x="941.38" y="1315.47"/>
      <point x="1004.01" y="1370.78"/>
      <point x="1090.84" y="1385"/>
      <point x="1151.22" y="1385" type="qcurve" smooth="yes"/>
      <point x="1210.47" y="1385"/>
      <point x="1291.67" y="1370.78"/>
      <point x="1334.97" y="1315.47"/>
      <point x="1340.08" y="1205.62"/>
      <point x="1323.22" y="1110" type="qcurve"/>
      <point x="1481.22" y="1110" type="line"/>
      <point x="1497.79" y="1203.75"/>
      <point x="1476.8" y="1323.12"/>
      <point x="1398.31" y="1391.38"/>
      <point x="1260.63" y="1417"/>
    </contour>
  </outline>
  <guideline angle="0" x="0" y="988"/>
  <guideline angle="0" x="0" y="870"/>
</glyph>
<glyph name="uni0218" format="2">
  <advance width="2864"/>
  <unicode hex="0218"/>
  <anchor x="1579" y="1564" name="top"/>
  <anchor x="1277" y="-164" name="bottom"/>
  <outline>
    <contour>
      <point x="281" y="378" type="line"/>
      <point x="262" y="272" type="line" smooth="yes"/>
      <point x="246.625" y="183.5"/>
      <point x="274.406" y="72"/>
      <point x="351.844" y="9"/>
      <point x="474.5" y="-14"/>
      <point x="554" y="-14" type="qcurve" smooth="yes"/>
      <point x="2056" y="-14" type="line" smooth="yes"/>
      <point x="2216.5" y="-14"/>
      <point x="2419.25" y="95"/>
      <point x="2450" y="272" type="qcurve" smooth="yes"/>
      <point x="2481" y="452" type="line" smooth="yes"/>
      <point x="2496.38" y="538.25"/>
      <point x="2465.09" y="645.438"/>
      <point x="2384.66" y="705.062"/>
      <point x="2261.5" y="726"/>
      <point x="2185" y="726" type="qcurve" smooth="yes"/>
      <point x="623" y="726" type="line"/>
      <point x="623" y="726"/>
      <point x="623" y="726"/>
      <point x="623" y="726" type="qcurve"/>
      <point x="737" y="1378" type="line"/>
      <point x="737" y="1378"/>
      <point x="737" y="1378"/>
      <point x="737" y="1378" type="qcurve"/>
      <point x="2371" y="1378" type="line"/>
      <point x="2371" y="1378"/>
      <point x="2371" y="1378"/>
      <point x="2371" y="1378" type="qcurve"/>
      <point x="2303" y="990" type="line"/>
      <point x="2564" y="1040" type="line"/>
      <point x="2582" y="1140" type="line" smooth="yes"/>
      <point x="2596.62" y="1225.5"/>
      <point x="2564.84" y="1332.5"/>
      <point x="2484.41" y="1392.5"/>
      <point x="2361.5" y="1414"/>
      <point x="2285" y="1414" type="qcurve" smooth="yes"/>
      <point x="833" y="1414" type="line" smooth="yes"/>
      <point x="757.25" y="1414"/>
      <point x="627.719" y="1392.5"/>
      <point x="527.031" y="1332.5"/>
      <point x="458.625" y="1225.5"/>
      <point x="444" y="1140" type="qcurve" smooth="yes"/>
      <point x="415" y="978" type="line" smooth="yes"/>
      <point x="399.625" y="889.5"/>
      <point x="427.406" y="777.375"/>
      <point x="504.844" y="713.625"/>
      <point x="627.5" y="690"/>
      <point x="707" y="690" type="qcurve" smooth="yes"/>
      <point x="2271" y="690" type="line"/>
      <point x="2271" y="690"/>
      <point x="2271" y="690"/>
      <point x="2271" y="690" type="qcurve"/>
      <point x="2154" y="22" type="line"/>
      <point x="2154" y="22"/>
      <point x="2154" y="22"/>
      <point x="2154" y="22" type="qcurve"/>
      <point x="470" y="22" type="line"/>
      <point x="470" y="22"/>
      <point x="470" y="22"/>
      <point x="470" y="22" type="qcurve"/>
      <point x="542" y="430" type="line"/>
    </contour>
    <contour>
      <point x="1159" y="-623" type="line"/>
      <point x="1351" y="-370" type="line"/>
      <point x="1360.06" y="-360.945"/>
      <point x="1368.96" y="-323.448"/>
      <point x="1375" y="-291" type="qcurve"/>
      <point x="1384" y="-237" type="line" smooth="yes"/>
      <point x="1396.07" y="-169.086"/>
      <point x="1376.16" y="-145"/>
      <point x="1309" y="-145" type="qcurve" smooth="yes"/>
      <point x="1251" y="-145" type="line" smooth="yes"/>
      <point x="1183.84" y="-145"/>
      <point x="1156.07" y="-169.086"/>
      <point x="1144" y="-237" type="qcurve" smooth="yes"/>
      <point x="1135" y="-291" type="line" smooth="yes"/>
      <point x="1122.17" y="-361.178"/>
      <point x="1141.84" y="-385"/>
      <point x="1209" y="-385" type="qcurve" smooth="yes"/>
      <point x="1268" y="-385" type="line"/>
      <point x="1139" y="-615" type="line"/>
    </contour>
  </outline>
</glyph>
<glyph name="uni0219" format="2">
  <advance width="2079"/>
  <unicode hex="0219"/>
  <anchor x="1120" y="1150" name="top"/>
  <anchor x="893" y="-150" name="bottom"/>
  <outline>
    <contour>
      <point x="217" y="262" type="line"/>
      <point x="207" y="204" type="line" smooth="yes"/>
      <point x="184.362" y="77.2272"/>
      <point x="300.301" y="0"/>
      <point x="415" y="0" type="qcurve" smooth="yes"/>
      <point x="1425" y="0" type="line" smooth="yes"/>
      <point x="1541.21" y="0"/>
      <point x="1684.36" y="77.2272"/>
      <point x="1707" y="204" type="qcurve" smooth="yes"/>
      <point x="1727" y="323" type="line" smooth="yes"/>
      <point x="1748.88" y="448.264"/>
      <point x="1626.17" y="519"/>
      <point x="1516" y="519" type="qcurve" smooth="yes"/>
      <point x="504" y="519" type="line"/>
      <point x="504" y="519"/>
      <point x="504" y="519"/>
      <point x="504" y="519" type="qcurve"/>
      <point x="582" y="968" type="line"/>
      <point x="582" y="968"/>
      <point x="582" y="968"/>
      <point x="582" y="968" type="qcurve"/>
      <point x="1606" y="968" type="line"/>
      <point x="1606" y="968"/>
      <point x="1606" y="968"/>
      <point x="1606" y="968" type="qcurve"/>
      <point x="1560" y="706" type="line"/>
      <point x="1788" y="750" type="line"/>
      <point x="1797" y="804" type="line" smooth="yes"/>
      <point x="1818.88" y="926.245"/>
      <point x="1696.17" y="1000"/>
      <point x="1586" y="1000" type="qcurve" smooth="yes"/>
      <point x="612" y="1000" type="line" smooth="yes"/>
      <point x="504" y="1000"/>
      <point x="354.75" y="925.5"/>
      <point x="333" y="804" type="qcurve" smooth="yes"/>
      <point x="314" y="693" type="line" smooth="yes"/>
      <point x="292.117" y="566.227"/>
      <point x="407.301" y="487"/>
      <point x="522" y="487" type="qcurve" smooth="yes"/>
      <point x="1536" y="487" type="line"/>
      <point x="1536" y="487"/>
      <point x="1536" y="487"/>
      <point x="1536" y="487" type="qcurve"/>
      <point x="1457" y="32" type="line"/>
      <point x="1457" y="32"/>
      <point x="1457" y="32"/>
      <point x="1457" y="32" type="qcurve"/>
      <point x="397" y="32" type="line"/>
      <point x="397" y="32"/>
      <point x="397" y="32"/>
      <point x="397" y="32" type="qcurve"/>
      <point x="445" y="308" type="line"/>
    </contour>
    <contour>
      <point x="775" y="-609" type="line"/>
      <point x="967" y="-356" type="line"/>
      <point x="974.546" y="-345.436"/>
      <point x="984.963" y="-309.448"/>
      <point x="991" y="-277" type="qcurve"/>
      <point x="1000" y="-223" type="line" smooth="yes"/>
      <point x="1012.07" y="-155.086"/>
      <point x="992.159" y="-131"/>
      <point x="925" y="-131" type="qcurve" smooth="yes"/>
      <point x="867" y="-131" type="line" smooth="yes"/>
      <point x="799.841" y="-131"/>
      <point x="772.074" y="-155.086"/>
      <point x="760" y="-223" type="qcurve" smooth="yes"/>
      <point x="751" y="-277" type="line" smooth="yes"/>
      <point x="738.172" y="-347.178"/>
      <point x="757.841" y="-371"/>
      <point x="825" y="-371" type="qcurve" smooth="yes"/>
      <point x="884" y="-371" type="line"/>
      <point x="755" y="-601" type="line"/>
    </contour>
  </outline>
</glyph>
<glyph name="uni022A" format="2">
  <advance width="3146"/>
  <unicode hex="022A"/>
  <anchor x="1827" y="2070" name="top"/>
  <anchor x="1436" y="-150" name="bottom"/>
  <anchor x="2838" y="1126" name="horn"/>
  <anchor x="1483" y="0" name="ogonek"/>
  <outline>
    <contour>
      <point x="463" y="1126" type="qcurve" smooth="yes"/>
      <point x="316" y="286" type="line" smooth="yes"/>
      <point x="285.061" y="109.424"/>
      <point x="446.516" y="0"/>
      <point x="608" y="0" type="qcurve" smooth="yes"/>
      <point x="2298" y="0" type="line" smooth="yes"/>
      <point x="2459.48" y="0"/>
      <point x="2661.06" y="107.914"/>
      <point x="2692" y="286" type="qcurve" smooth="yes"/>
      <point x="2839" y="1126" type="line" smooth="yes"/>
      <point x="2868.25" y="1297"/>
      <point x="2693.5" y="1400"/>
      <point x="2542" y="1400" type="qcurve" smooth="yes"/>
      <point x="852" y="1400" type="line" smooth="yes"/>
      <point x="700.5" y="1400"/>
      <point x="492.25" y="1297"/>
    </contour>
    <contour>
      <point x="768" y="1364" type="line"/>
      <point x="768" y="1364"/>
      <point x="768" y="1364"/>
      <point x="768" y="1364" type="qcurve"/>
      <point x="2616" y="1364" type="line"/>
      <point x="2616" y="1364"/>
      <point x="2616" y="1364"/>
      <point x="2616" y="1364" type="qcurve"/>
      <point x="2384" y="36" type="line"/>
      <point x="2384" y="36"/>
      <point x="2384" y="36"/>
      <point x="2384" y="36" type="qcurve"/>
      <point x="536" y="36" type="line"/>
      <point x="536" y="36"/>
      <point x="536" y="36"/>
      <point x="536" y="36" type="qcurve"/>
    </contour>
    <contour>
      <point x="1485" y="1550" type="qcurve" smooth="yes"/>
      <point x="1555" y="1550" type="line" smooth="yes"/>
      <point x="1621.4" y="1550"/>
      <point x="1649.68" y="1573.6"/>
      <point x="1661" y="1640" type="qcurve" smooth="yes"/>
      <point x="1674" y="1712" type="line" smooth="yes"/>
      <point x="1685.32" y="1776.9"/>
      <point x="1665.4" y="1800"/>
      <point x="1599" y="1800" type="qcurve" smooth="yes"/>
      <point x="1529" y="1800" type="line" smooth="yes"/>
      <point x="1462.6" y="1800"/>
      <point x="1435.32" y="1776.9"/>
      <point x="1424" y="1712" type="qcurve" smooth="yes"/>
      <point x="1411" y="1640" type="line" smooth="yes"/>
      <point x="1399.68" y="1573.6"/>
      <point x="1418.6" y="1550"/>
    </contour>
    <contour>
      <point x="1915" y="1550" type="qcurve" smooth="yes"/>
      <point x="1985" y="1550" type="line" smooth="yes"/>
      <point x="2051.4" y="1550"/>
      <point x="2079.68" y="1573.6"/>
      <point x="2091" y="1640" type="qcurve" smooth="yes"/>
      <point x="2104" y="1712" type="line" smooth="yes"/>
      <point x="2115.32" y="1776.9"/>
      <point x="2095.4" y="1800"/>
      <point x="2029" y="1800" type="qcurve" smooth="yes"/>
      <point x="1959" y="1800" type="line" smooth="yes"/>
      <point x="1892.6" y="1800"/>
      <point x="1865.32" y="1776.9"/>
      <point x="1854" y="1712" type="qcurve" smooth="yes"/>
      <point x="1841" y="1640" type="line" smooth="yes"/>
      <point x="1829.68" y="1573.6"/>
      <point x="1848.6" y="1550"/>
    </contour>
    <contour>
      <point x="1321" y="1934" type="line"/>
      <point x="2286" y="1934" type="line"/>
      <point x="2293" y="1970" type="line"/>
      <point x="1328" y="1970" type="line"/>
    </contour>
  </outline>
</glyph>
<glyph name="uni0231" format="2">
  <advance width="2287"/>
  <unicode hex="0231"/>
  <anchor x="1319" y="1686" name="top"/>
  <anchor x="997" y="-150" name="bottom"/>
  <anchor x="2006" y="796" name="horn"/>
  <anchor x="1044" y="0" name="ogonek"/>
  <outline>
    <contour>
      <point x="219" y="214" type="line" smooth="yes"/>
      <point x="198.626" y="97.7916"/>
      <point x="299.154" y="0"/>
      <point x="438" y="0" type="qcurve" smooth="yes"/>
      <point x="1614" y="0" type="line" smooth="yes"/>
      <point x="1754.36" y="0"/>
      <point x="1886.63" y="97.7916"/>
      <point x="1907" y="214" type="qcurve" smooth="yes"/>
      <point x="2009" y="796" type="line" smooth="yes"/>
      <point x="2027.87" y="904.662"/>
      <point x="1926.34" y="1000"/>
      <point x="1789" y="1000" type="qcurve" smooth="yes"/>
      <point x="613" y="1000" type="line" smooth="yes"/>
      <point x="475.663" y="1000"/>
      <point x="339.865" y="904.662"/>
      <point x="321" y="796" type="qcurve" smooth="yes"/>
    </contour>
    <contour>
      <point x="436" y="32" type="qcurve"/>
      <point x="599" y="968" type="line"/>
      <point x="599" y="968"/>
      <point x="599" y="968"/>
      <point x="599" y="968" type="qcurve"/>
      <point x="1791" y="968" type="line"/>
      <point x="1791" y="968"/>
      <point x="1791" y="968"/>
      <point x="1791" y="968" type="qcurve"/>
      <point x="1628" y="32" type="line"/>
      <point x="1628" y="32"/>
      <point x="1628" y="32"/>
      <point x="1628" y="32" type="qcurve"/>
      <point x="436" y="32" type="line"/>
      <point x="436" y="32"/>
      <point x="436" y="32"/>
    </contour>
    <contour>
      <point x="1194" y="1152" type="qcurve" smooth="yes"/>
      <point x="1254" y="1152" type="line" smooth="yes"/>
      <point x="1320.4" y="1152"/>
      <point x="1348.68" y="1175.1"/>
      <point x="1360" y="1240" type="qcurve" smooth="yes"/>
      <point x="1371" y="1302" type="line" smooth="yes"/>
      <point x="1382.32" y="1366.9"/>
      <point x="1363.4" y="1390"/>
      <point x="1297" y="1390" type="qcurve" smooth="yes"/>
      <point x="1237" y="1390" type="line" smooth="yes"/>
      <point x="1170.6" y="1390"/>
      <point x="1142.32" y="1366.9"/>
      <point x="1131" y="1302" type="qcurve" smooth="yes"/>
      <point x="1120" y="1240" type="line" smooth="yes"/>
      <point x="1108.68" y="1175.1"/>
      <point x="1127.6" y="1152"/>
    </contour>
    <contour>
      <point x="814" y="1554" type="line"/>
      <point x="1779" y="1554" type="line"/>
      <point x="1785" y="1586" type="line"/>
      <point x="820" y="1586" type="line"/>
    </contour>
  </outline>
</glyph>
<glyph name="uni0233" format="2">
  <advance width="1760"/>
  <unicode hex="0233"/>
  <anchor x="1001" y="1366" name="top"/>
  <anchor x="1172" y="-220" name="bottom"/>
  <outline>
    <contour>
      <point x="-141" y="-428" type="line"/>
      <point x="233" y="-428" type="line" smooth="yes"/>
      <point x="283.25" y="-428"/>
      <point x="358.531" y="-418"/>
      <point x="423.219" y="-391"/>
      <point x="484.625" y="-343.5"/>
      <point x="521" y="-306" type="qcurve" smooth="yes"/>
      <point x="1786" y="1000" type="line"/>
      <point x="1742" y="1000" type="line"/>
      <point x="916" y="146" type="line"/>
      <point x="380" y="1000" type="line"/>
      <point x="89" y="1000" type="line"/>
      <point x="742" y="-32" type="line"/>
      <point x="494" y="-289" type="line" smooth="yes"/>
      <point x="429.104" y="-356.159"/>
      <point x="332.552" y="-396"/>
      <point x="242" y="-396" type="qcurve" smooth="yes"/>
      <point x="-142" y="-396" type="line"/>
    </contour>
    <contour>
      <point x="496" y="1234" type="line"/>
      <point x="1461" y="1234" type="line"/>
      <point x="1467" y="1266" type="line"/>
      <point x="502" y="1266" type="line"/>
    </contour>
  </outline>
</glyph>
<glyph name="uni0237" format="2">
  <advance width="906"/>
  <unicode hex="0237"/>
  <anchor x="544" y="1150" name="top"/>
  <outline>
    <contour>
      <point x="-693" y="-396" type="line"/>
      <point x="-691" y="-428" type="line"/>
      <point x="77" y="-428" type="line" smooth="yes"/>
      <point x="161.75" y="-428"/>
      <point x="282.469" y="-420.062"/>
      <point x="366.281" y="-372.438"/>
      <point x="419.125" y="-269.25"/>
      <point x="436" y="-174" type="qcurve" smooth="yes"/>
      <point x="641" y="1000" type="line"/>
      <point x="393" y="1000" type="line"/>
      <point x="149" y="-396" type="line"/>
      <point x="149" y="-396"/>
      <point x="149" y="-396"/>
      <point x="149" y="-396" type="qcurve"/>
    </contour>
  </outline>
</glyph>
<glyph name="uni0254" format="2">
  <advance width="2180"/>
  <unicode hex="0254"/>
  <anchor x="1141" y="1150" name="top"/>
  <anchor x="913" y="-150" name="bottom"/>
  <outline>
    <contour>
      <point x="374" y="0" type="qcurve" smooth="yes"/>
      <point x="1504" y="0" type="line" smooth="yes"/>
      <point x="1627.75" y="0"/>
      <point x="1776.63" y="96.2824"/>
      <point x="1797" y="214" type="qcurve" smooth="yes"/>
      <point x="1899" y="796" type="line" smooth="yes"/>
      <point x="1916.36" y="897.116"/>
      <point x="1791.94" y="1000"/>
      <point x="1678" y="1000" type="qcurve" smooth="yes"/>
      <point x="552" y="1000" type="line" smooth="yes"/>
      <point x="429" y="1000"/>
      <point x="276.62" y="912.208"/>
      <point x="257" y="796" type="qcurve" smooth="yes"/>
      <point x="238" y="690" type="line"/>
      <point x="478" y="644" type="line"/>
      <point x="535" y="968" type="line"/>
      <point x="535" y="968"/>
      <point x="535" y="968"/>
      <point x="535" y="968" type="qcurve"/>
      <point x="1681" y="968" type="line"/>
      <point x="1681" y="968"/>
      <point x="1681" y="968"/>
      <point x="1681" y="968" type="qcurve"/>
      <point x="1517" y="32" type="line"/>
      <point x="1517" y="32"/>
      <point x="1517" y="32"/>
      <point x="1517" y="32" type="qcurve"/>
      <point x="367" y="32" type="line"/>
      <point x="367" y="32"/>
      <point x="367" y="32"/>
      <point x="367" y="32" type="qcurve"/>
      <point x="426" y="366" type="line"/>
      <point x="169" y="316" type="line"/>
      <point x="151" y="214" type="line" smooth="yes"/>
      <point x="132.89" y="109.111"/>
      <point x="257.037" y="0"/>
    </contour>
  </outline>
</glyph>
<glyph name="dotaccent" format="2">
  <advance width="181"/>
  <unicode hex="02D9"/>
  <outline>
    <contour>
      <point x="143" y="1152" type="qcurve" smooth="yes"/>
      <point x="203" y="1152" type="line" smooth="yes"/>
      <point x="269.405" y="1152"/>
      <point x="297.681" y="1175.1"/>
      <point x="309" y="1240" type="qcurve" smooth="yes"/>
      <point x="320" y="1302" type="line" smooth="yes"/>
      <point x="331.319" y="1366.9"/>
      <point x="312.405" y="1390"/>
      <point x="246" y="1390" type="qcurve" smooth="yes"/>
      <point x="186" y="1390" type="line" smooth="yes"/>
      <point x="119.595" y="1390"/>
      <point x="91.319" y="1366.9"/>
      <point x="80" y="1302" type="qcurve" smooth="yes"/>
      <point x="69" y="1240" type="line" smooth="yes"/>
      <point x="57.681" y="1175.1"/>
      <point x="76.5952" y="1152"/>
    </contour>
  </outline>
</glyph>
<glyph name="uni030F" format="2">
  <unicode hex="030F"/>
  <anchor x="76" y="1100" name="_top"/>
  <anchor x="419.585" y="1085" name="_topright"/>
  <outline>
    <contour>
      <point x="473.985" y="1085" type="line"/>
      <point x="422.135" y="1085" type="line"/>
      <point x="-147.918" y="1448" type="line"/>
      <point x="152.982" y="1448" type="line"/>
    </contour>
    <contour>
      <point x="-43.0145" y="1085" type="line"/>
      <point x="-94.8645" y="1085" type="line"/>
      <point x="-664.918" y="1448" type="line"/>
      <point x="-364.018" y="1448" type="line"/>
    </contour>
  </outline>
</glyph>
<glyph name="uni032E" format="2">
  <unicode hex="032E"/>
  <anchor x="-144" y="-150" name="_bottom"/>
  <anchor x="-190" y="-368" name="_top"/>
  <anchor x="-125" y="-1" name="top"/>
  <outline>
    <contour>
      <point x="-194" y="-408" type="qcurve" smooth="yes"/>
      <point x="-93.875" y="-408"/>
      <point x="52.8438" y="-382.375"/>
      <point x="155.406" y="-314.125"/>
      <point x="218.5" y="-194.75"/>
      <point x="235" y="-101" type="qcurve"/>
      <point x="77" y="-101" type="line"/>
      <point x="60.125" y="-196.625"/>
      <point x="16.2812" y="-306.469"/>
      <point x="-46.5312" y="-361.781"/>
      <point x="-132.75" y="-376"/>
      <point x="-192" y="-376" type="qcurve" smooth="yes"/>
      <point x="-252.375" y="-376"/>
      <point x="-334.188" y="-361.781"/>
      <point x="-377.312" y="-306.469"/>
      <point x="-381.875" y="-196.625"/>
      <point x="-365" y="-101" type="qcurve"/>
      <point x="-523" y="-101" type="line"/>
      <point x="-539.5" y="-194.75"/>
      <point x="-516.188" y="-314.125"/>
      <point x="-434.812" y="-382.375"/>
      <point x="-294.5" y="-408"/>
    </contour>
  </outline>
  <guideline angle="0" x="0" y="-100"/>
</glyph>
<glyph name="uni0402" format="2">
  <advance width="3634"/>
  <unicode hex="0402"/>
  <outline>
    <contour>
      <point x="897" y="0" type="line"/>
      <point x="1161" y="0" type="line"/>
      <point x="1311" y="862" type="line"/>
      <point x="2833" y="862" type="line" smooth="yes"/>
      <point x="2947.7" y="862"/>
      <point x="3046.09" y="752.552"/>
      <point x="3031" y="662" type="qcurve" smooth="yes"/>
      <point x="2950" y="200" type="line" smooth="yes"/>
      <point x="2934.15" y="109.448"/>
      <point x="2803.7" y="36"/>
      <point x="2689" y="36" type="qcurve" smooth="yes"/>
      <point x="2124" y="36" type="line"/>
      <point x="2118" y="0" type="line"/>
      <point x="2835" y="0" type="line" smooth="yes"/>
      <point x="2910.75" y="0"/>
      <point x="3039.06" y="10.25"/>
      <point x="3138.44" y="56.75"/>
      <point x="3206" y="152.5"/>
      <point x="3221" y="238" type="qcurve" smooth="yes"/>
      <point x="3288" y="624" type="line" smooth="yes"/>
      <point x="3303" y="709.5"/>
      <point x="3271.06" y="816.5"/>
      <point x="3190.44" y="876.5"/>
      <point x="3067.75" y="898"/>
      <point x="2992" y="898" type="qcurve" smooth="yes"/>
      <point x="1318" y="898" type="line"/>
      <point x="1399" y="1364" type="line"/>
      <point x="2443" y="1364" type="line"/>
      <point x="2449" y="1400" type="line"/>
      <point x="97" y="1400" type="line"/>
      <point x="91" y="1364" type="line"/>
      <point x="1135" y="1364" type="line"/>
    </contour>
  </outline>
  <guideline angle="260.1" color="1,0,0,1" x="1134.86" y="1364"/>
</glyph>
<glyph name="uni0403" format="2">
  <advance width="2127"/>
  <unicode hex="0403"/>
  <anchor x="1478" y="1550" name="top"/>
  <anchor x="1326" y="1535" name="topright"/>
  <outline>
    <contour>
      <point x="283" y="0" type="line"/>
      <point x="547" y="0" type="line"/>
      <point x="785" y="1364" type="line"/>
      <point x="2277" y="1364" type="line"/>
      <point x="2283" y="1400" type="line"/>
      <point x="527" y="1400" type="line"/>
    </contour>
    <contour>
      <point x="1272" y="1535" type="line"/>
      <point x="1349" y="1535" type="line"/>
      <point x="2150" y="1850" type="line"/>
      <point x="1732" y="1850" type="line"/>
    </contour>
  </outline>
</glyph>
<glyph name="uni040C" format="2">
  <advance width="2724"/>
  <unicode hex="040C"/>
  <anchor x="1576" y="1550" name="top"/>
  <anchor x="1414" y="-150" name="bottom"/>
  <anchor x="1424" y="1535" name="topright"/>
  <outline>
    <contour>
      <point x="2631" y="1400" type="line"/>
      <point x="2519" y="1400" type="line"/>
      <point x="663" y="754" type="line"/>
      <point x="679" y="754" type="line"/>
      <point x="791" y="1400" type="line"/>
      <point x="527" y="1400" type="line"/>
      <point x="283" y="0" type="line"/>
      <point x="547" y="0" type="line"/>
      <point x="664" y="720" type="line"/>
      <point x="518" y="720" type="line"/>
      <point x="2065" y="0" type="line"/>
      <point x="2604" y="0" type="line"/>
      <point x="872" y="806" type="line"/>
      <point x="768" y="762" type="line"/>
    </contour>
    <contour>
      <point x="1370" y="1535" type="line"/>
      <point x="1447" y="1535" type="line"/>
      <point x="2248" y="1850" type="line"/>
      <point x="1830" y="1850" type="line"/>
    </contour>
  </outline>
</glyph>
<glyph name="uni040D" format="2">
  <advance width="3111"/>
  <unicode hex="040D"/>
  <anchor x="1378" y="-150" name="bottom"/>
  <anchor x="1675" y="1550" name="top"/>
  <anchor x="1821" y="1535" name="topright"/>
  <outline>
    <contour>
      <point x="283" y="0" type="line"/>
      <point x="527" y="0" type="line"/>
      <point x="2560" y="1337" type="line"/>
      <point x="2327" y="0" type="line"/>
      <point x="2591" y="0" type="line"/>
      <point x="2835" y="1400" type="line"/>
      <point x="2591" y="1400" type="line"/>
      <point x="557" y="60" type="line"/>
      <point x="791" y="1400" type="line"/>
      <point x="527" y="1400" type="line"/>
    </contour>
    <contour>
      <point x="1798" y="1535" type="line"/>
      <point x="1867" y="1535" type="line"/>
      <point x="1472" y="1850" type="line"/>
      <point x="1108" y="1850" type="line"/>
    </contour>
  </outline>
</glyph>
<glyph name="uni040E" format="2">
  <advance width="2356"/>
  <unicode hex="040E"/>
  <anchor x="1396" y="1917" name="top"/>
  <outline>
    <contour>
      <point x="163" y="0" type="line"/>
      <point x="579" y="0" type="line" smooth="yes"/>
      <point x="660.497" y="0"/>
      <point x="819.577" y="62.1596"/>
      <point x="889" y="118" type="qcurve" smooth="yes"/>
      <point x="2482" y="1400" type="line"/>
      <point x="2424" y="1400" type="line"/>
      <point x="1263" y="463" type="line"/>
      <point x="494" y="1400" type="line"/>
      <point x="127" y="1400" type="line"/>
      <point x="1044" y="288" type="line"/>
      <point x="865" y="144" type="line" smooth="yes"/>
      <point x="795.577" y="88.1596"/>
      <point x="667.497" y="36"/>
      <point x="586" y="36" type="qcurve" smooth="yes"/>
      <point x="161" y="36" type="line"/>
    </contour>
    <contour>
      <point x="1327" y="1510" type="qcurve" smooth="yes"/>
      <point x="1427.12" y="1510"/>
      <point x="1573.84" y="1535.62"/>
      <point x="1676.41" y="1603.88"/>
      <point x="1739.5" y="1723.25"/>
      <point x="1756" y="1817" type="qcurve"/>
      <point x="1598" y="1817" type="line"/>
      <point x="1581.12" y="1721.38"/>
      <point x="1537.28" y="1611.53"/>
      <point x="1474.47" y="1556.22"/>
      <point x="1388.25" y="1542"/>
      <point x="1329" y="1542" type="qcurve" smooth="yes"/>
      <point x="1268.62" y="1542"/>
      <point x="1186.81" y="1556.22"/>
      <point x="1143.69" y="1611.53"/>
      <point x="1139.12" y="1721.38"/>
      <point x="1156" y="1817" type="qcurve"/>
      <point x="998" y="1817" type="line"/>
      <point x="981.5" y="1723.25"/>
      <point x="1004.81" y="1603.88"/>
      <point x="1086.19" y="1535.62"/>
      <point x="1226.5" y="1510"/>
    </contour>
  </outline>
  <guideline angle="90" x="400" y="0"/>
</glyph>
<glyph name="uni040F" format="2">
  <advance width="2967"/>
  <unicode hex="040F"/>
  <outline>
    <contour>
      <point x="283" y="0" type="line"/>
      <point x="1169" y="0" type="line"/>
      <point x="1342" y="-260" type="line"/>
      <point x="1516" y="-260" type="line"/>
      <point x="1561" y="0" type="line"/>
      <point x="2447" y="0" type="line"/>
      <point x="2691" y="1400" type="line"/>
      <point x="2427" y="1400" type="line"/>
      <point x="2189" y="36" type="line"/>
      <point x="553" y="36" type="line"/>
      <point x="791" y="1400" type="line"/>
      <point x="527" y="1400" type="line"/>
    </contour>
  </outline>
  <guideline angle="260.1" color="1,0,0,1" x="1365" y="0"/>
</glyph>
<glyph name="uni0415" format="2">
  <advance width="2391"/>
  <unicode hex="0415"/>
  <anchor x="1560" y="1550" name="top"/>
  <anchor x="1263" y="-150" name="bottom"/>
  <anchor x="2046" y="0" name="ogonek"/>
  <outline>
    <contour>
      <point x="283" y="0" type="line"/>
      <point x="2301" y="0" type="line"/>
      <point x="2307" y="36" type="line"/>
      <point x="553" y="36" type="line"/>
      <point x="669" y="700" type="line"/>
      <point x="1707" y="700" type="line"/>
      <point x="1713" y="736" type="line"/>
      <point x="675" y="736" type="line"/>
      <point x="785" y="1364" type="line"/>
      <point x="2505" y="1364" type="line"/>
      <point x="2511" y="1400" type="line"/>
      <point x="527" y="1400" type="line"/>
    </contour>
  </outline>
  <guideline angle="90" x="-207" y="0"/>
</glyph>
<glyph name="uni0419" format="2">
  <advance width="3111"/>
  <unicode hex="0419"/>
  <anchor x="1381" y="-150" name="bottom"/>
  <anchor x="1743" y="1917" name="top"/>
  <outline>
    <contour>
      <point x="283" y="0" type="line"/>
      <point x="527" y="0" type="line"/>
      <point x="2560" y="1337" type="line"/>
      <point x="2327" y="0" type="line"/>
      <point x="2591" y="0" type="line"/>
      <point x="2835" y="1400" type="line"/>
      <point x="2591" y="1400" type="line"/>
      <point x="557" y="60" type="line"/>
      <point x="791" y="1400" type="line"/>
      <point x="527" y="1400" type="line"/>
    </contour>
    <contour>
      <point x="1674" y="1510" type="qcurve" smooth="yes"/>
      <point x="1774.12" y="1510"/>
      <point x="1920.84" y="1535.62"/>
      <point x="2023.41" y="1603.88"/>
      <point x="2086.5" y="1723.25"/>
      <point x="2103" y="1817" type="qcurve"/>
      <point x="1945" y="1817" type="line"/>
      <point x="1928.12" y="1721.38"/>
      <point x="1884.28" y="1611.53"/>
      <point x="1821.47" y="1556.22"/>
      <point x="1735.25" y="1542"/>
      <point x="1676" y="1542" type="qcurve" smooth="yes"/>
      <point x="1615.62" y="1542"/>
      <point x="1533.81" y="1556.22"/>
      <point x="1490.69" y="1611.53"/>
      <point x="1486.12" y="1721.38"/>
      <point x="1503" y="1817" type="qcurve"/>
      <point x="1345" y="1817" type="line"/>
      <point x="1328.5" y="1723.25"/>
      <point x="1351.81" y="1603.88"/>
      <point x="1433.19" y="1535.62"/>
      <point x="1573.5" y="1510"/>
    </contour>
  </outline>
</glyph>
<glyph name="uni041F" format="2">
  <advance width="3081"/>
  <unicode hex="041F"/>
  <outline>
    <contour>
      <point x="283" y="0" type="line"/>
      <point x="547" y="0" type="line"/>
      <point x="785" y="1364" type="line"/>
      <point x="2535" y="1364" type="line"/>
      <point x="2297" y="0" type="line"/>
      <point x="2561" y="0" type="line"/>
      <point x="2805" y="1400" type="line"/>
      <point x="527" y="1400" type="line"/>
    </contour>
  </outline>
</glyph>
<glyph name="uni0420" format="2">
  <advance width="2946"/>
  <unicode hex="0420"/>
  <outline>
    <contour>
      <point x="283" y="0" type="line"/>
      <point x="547" y="0" type="line"/>
      <point x="636" y="510" type="line"/>
      <point x="2308" y="510" type="line" smooth="yes"/>
      <point x="2383.75" y="510"/>
      <point x="2513.94" y="531.562"/>
      <point x="2615.56" y="591.938"/>
      <point x="2685" y="699.75"/>
      <point x="2700" y="786" type="qcurve" smooth="yes"/>
      <point x="2760" y="1126" type="line" smooth="yes"/>
      <point x="2789.25" y="1297"/>
      <point x="2614.5" y="1400"/>
      <point x="2463" y="1400" type="qcurve" smooth="yes"/>
      <point x="527" y="1400" type="line"/>
    </contour>
    <contour>
      <point x="642" y="546" type="line"/>
      <point x="785" y="1364" type="line"/>
      <point x="2305" y="1364" type="line" smooth="yes"/>
      <point x="2419.7" y="1364"/>
      <point x="2517.85" y="1254.55"/>
      <point x="2502" y="1164" type="qcurve" smooth="yes"/>
      <point x="2430" y="748" type="line" smooth="yes"/>
      <point x="2413.4" y="655.939"/>
      <point x="2276.7" y="546"/>
      <point x="2162" y="546" type="qcurve" smooth="yes"/>
    </contour>
  </outline>
  <guideline angle="90" color="0.4,0.4,0.4,1" name="halfwidth" x="1473" y="0"/>
</glyph>
<glyph name="uni0422" format="2">
  <advance width="2293"/>
  <unicode hex="0422"/>
  <anchor x="1300" y="1550" name="top"/>
  <anchor x="1003" y="-150" name="bottom"/>
  <outline>
    <contour>
      <point x="897" y="0" type="line"/>
      <point x="1161" y="0" type="line"/>
      <point x="1399" y="1364" type="line"/>
      <point x="2443" y="1364" type="line"/>
      <point x="2449" y="1400" type="line"/>
      <point x="97" y="1400" type="line"/>
      <point x="91" y="1364" type="line"/>
      <point x="1135" y="1364" type="line"/>
    </contour>
  </outline>
</glyph>
<glyph name="uni0427" format="2">
  <advance width="2924"/>
  <unicode hex="0427"/>
  <anchor x="1613" y="1550" name="top"/>
  <outline>
    <contour>
      <point x="2140" y="0" type="line"/>
      <point x="2404" y="0" type="line"/>
      <point x="2648" y="1400" type="line"/>
      <point x="2384" y="1400" type="line"/>
      <point x="2233" y="535" type="line"/>
      <point x="620" y="535" type="line"/>
      <point x="620" y="535"/>
      <point x="620" y="535"/>
      <point x="620" y="535" type="qcurve"/>
      <point x="771" y="1400" type="line"/>
      <point x="507" y="1400" type="line"/>
      <point x="400" y="787" type="line" smooth="yes"/>
      <point x="384.625" y="698.5"/>
      <point x="414.094" y="586.375"/>
      <point x="492.656" y="522.625"/>
      <point x="614.75" y="499"/>
      <point x="692" y="499" type="qcurve" smooth="yes"/>
      <point x="2227" y="499" type="line"/>
    </contour>
  </outline>
</glyph>
<glyph name="uni0432" format="2">
  <advance width="2283"/>
  <unicode hex="0432"/>
  <outline>
    <contour>
      <point x="192" y="0" type="line"/>
      <point x="1498" y="0" type="line" smooth="yes"/>
      <point x="1677.59" y="0"/>
      <point x="1884.12" y="121.473"/>
      <point x="1906" y="249" type="qcurve"/>
      <point x="1911" y="275" type="line" smooth="yes"/>
      <point x="1928.36" y="376.116"/>
      <point x="1854.82" y="502.117"/>
      <point x="1762" y="524" type="qcurve"/>
      <point x="1848.78" y="544.374"/>
      <point x="1950.91" y="651.466"/>
      <point x="1966" y="739" type="qcurve" smooth="yes"/>
      <point x="1970" y="763" type="line" smooth="yes"/>
      <point x="1991.88" y="886.754"/>
      <point x="1827.58" y="1000"/>
      <point x="1651" y="1000" type="qcurve" smooth="yes"/>
      <point x="367" y="1000" type="line"/>
    </contour>
    <contour>
      <point x="446" y="32" type="line"/>
      <point x="529" y="509" type="line"/>
      <point x="1504" y="509" type="line" smooth="yes"/>
      <point x="1593.8" y="509"/>
      <point x="1691.58" y="439.742"/>
      <point x="1678" y="359" type="qcurve" smooth="yes"/>
      <point x="1647" y="182" type="line" smooth="yes"/>
      <point x="1630.4" y="89.1842"/>
      <point x="1493.06" y="32"/>
      <point x="1401" y="32" type="qcurve" smooth="yes"/>
    </contour>
    <contour>
      <point x="534" y="541" type="line"/>
      <point x="609" y="968" type="line"/>
      <point x="1538" y="968" type="line" smooth="yes"/>
      <point x="1633.08" y="968"/>
      <point x="1747.09" y="906.288"/>
      <point x="1732" y="818" type="qcurve" smooth="yes"/>
      <point x="1710" y="691" type="line" smooth="yes"/>
      <point x="1695.66" y="610.258"/>
      <point x="1573.55" y="541"/>
      <point x="1483" y="541" type="qcurve" smooth="yes"/>
    </contour>
  </outline>
</glyph>
<glyph name="uni0442" format="2">
  <advance width="1746"/>
  <unicode hex="0442"/>
  <outline>
    <contour>
      <point x="630" y="0" type="line"/>
      <point x="878" y="0" type="line"/>
      <point x="1047" y="968" type="line"/>
      <point x="1705" y="968" type="line"/>
      <point x="1711" y="1000" type="line"/>
      <point x="148" y="1000" type="line"/>
      <point x="142" y="968" type="line"/>
      <point x="799" y="968" type="line"/>
    </contour>
  </outline>
</glyph>
<glyph name="uni044B" format="2">
  <advance width="3083"/>
  <unicode hex="044B"/>
  <anchor x="1736" y="1150" name="top"/>
  <outline>
    <contour>
      <point x="192" y="0" type="line"/>
      <point x="1475" y="0" type="line" smooth="yes"/>
      <point x="1595.74" y="0"/>
      <point x="1724.66" y="78.7486"/>
      <point x="1739" y="161" type="qcurve" smooth="yes"/>
      <point x="1809" y="559" type="line" smooth="yes"/>
      <point x="1823.34" y="641.251"/>
      <point x="1721.74" y="720"/>
      <point x="1601" y="720" type="qcurve" smooth="yes"/>
      <point x="717" y="720" type="line" smooth="yes"/>
      <point x="652.859" y="720"/>
      <point x="576.583" y="712.301"/>
      <point x="563" y="704" type="qcurve"/>
      <point x="615" y="1000" type="line"/>
      <point x="367" y="1000" type="line"/>
    </contour>
    <contour>
      <point x="446" y="33" type="line"/>
      <point x="560" y="688" type="line"/>
      <point x="1583" y="688" type="line"/>
      <point x="1583" y="688"/>
      <point x="1583" y="688"/>
      <point x="1583" y="688" type="qcurve"/>
      <point x="1469" y="33" type="line"/>
      <point x="1469" y="33"/>
      <point x="1469" y="33"/>
      <point x="1469" y="33" type="qcurve"/>
    </contour>
    <contour>
      <point x="2409" y="0" type="line"/>
      <point x="2653" y="0" type="line"/>
      <point x="2828" y="1000" type="line"/>
      <point x="2584" y="1000" type="line"/>
    </contour>
  </outline>
  <guideline angle="260.1" color="1,0,0,1" x="1981" y="559"/>
</glyph>
<glyph name="uni0457" format="2">
  <advance width="887"/>
  <unicode hex="0457"/>
  <anchor x="297" y="-150" name="bottom"/>
  <anchor x="588" y="1510" name="top"/>
  <anchor x="241" y="0" name="ogonek"/>
  <outline>
    <contour>
      <point x="202" y="0" type="line"/>
      <point x="450" y="0" type="line"/>
      <point x="625" y="1000" type="line"/>
      <point x="377" y="1000" type="line"/>
    </contour>
    <contour>
      <point x="294" y="1150" type="qcurve" smooth="yes"/>
      <point x="354" y="1150" type="line" smooth="yes"/>
      <point x="420.405" y="1150"/>
      <point x="448.681" y="1173.6"/>
      <point x="460" y="1240" type="qcurve" smooth="yes"/>
      <point x="471" y="1302" type="line" smooth="yes"/>
      <point x="482.319" y="1366.9"/>
      <point x="463.405" y="1390"/>
      <point x="397" y="1390" type="qcurve" smooth="yes"/>
      <point x="337" y="1390" type="line" smooth="yes"/>
      <point x="270.595" y="1390"/>
      <point x="242.319" y="1366.9"/>
      <point x="231" y="1302" type="qcurve" smooth="yes"/>
      <point x="220" y="1240" type="line" smooth="yes"/>
      <point x="208.681" y="1173.6"/>
      <point x="227.595" y="1150"/>
    </contour>
    <contour>
      <point x="694" y="1150" type="qcurve" smooth="yes"/>
      <point x="754" y="1150" type="line" smooth="yes"/>
      <point x="820.405" y="1150"/>
      <point x="848.681" y="1173.6"/>
      <point x="860" y="1240" type="qcurve" smooth="yes"/>
      <point x="871" y="1302" type="line" smooth="yes"/>
      <point x="882.319" y="1366.9"/>
      <point x="863.405" y="1390"/>
      <point x="797" y="1390" type="qcurve" smooth="yes"/>
      <point x="737" y="1390" type="line" smooth="yes"/>
      <point x="670.595" y="1390"/>
      <point x="642.319" y="1366.9"/>
      <point x="631" y="1302" type="qcurve" smooth="yes"/>
      <point x="620" y="1240" type="line" smooth="yes"/>
      <point x="608.681" y="1173.6"/>
      <point x="627.595" y="1150"/>
    </contour>
  </outline>
</glyph>
<glyph name="uni045C" format="2">
  <advance width="2332"/>
  <unicode hex="045C"/>
  <anchor x="1412" y="1150" name="top"/>
  <outline>
    <contour>
      <point x="202" y="0" type="line"/>
      <point x="450" y="0" type="line"/>
      <point x="536" y="491" type="line"/>
      <point x="1655" y="0" type="line"/>
      <point x="2184" y="0" type="line"/>
      <point x="841" y="588" type="line"/>
      <point x="2227" y="1000" type="line"/>
      <point x="2117" y="1000" type="line"/>
      <point x="543" y="531" type="line"/>
      <point x="625" y="1000" type="line"/>
      <point x="377" y="1000" type="line"/>
    </contour>
    <contour>
      <point x="1210" y="1085" type="line"/>
      <point x="1271" y="1085" type="line"/>
      <point x="2081" y="1448" type="line"/>
      <point x="1727" y="1448" type="line"/>
    </contour>
  </outline>
</glyph>
<glyph name="uni0462" format="2">
  <advance width="3140"/>
  <unicode hex="0462"/>
  <outline>
    <contour>
      <point x="303" y="0" type="line"/>
      <point x="2341" y="0" type="line" smooth="yes"/>
      <point x="2416.75" y="0"/>
      <point x="2545.06" y="10.25"/>
      <point x="2644.44" y="56.75"/>
      <point x="2712" y="152.5"/>
      <point x="2727" y="238" type="qcurve" smooth="yes"/>
      <point x="2796" y="634" type="line" smooth="yes"/>
      <point x="2810.62" y="719.5"/>
      <point x="2778.28" y="826.5"/>
      <point x="2697.47" y="886.5"/>
      <point x="2574.75" y="908"/>
      <point x="2499" y="908" type="qcurve" smooth="yes"/>
      <point x="725" y="908" type="line"/>
      <point x="766" y="1138" type="line"/>
      <point x="1916" y="1138" type="line"/>
      <point x="1921" y="1170" type="line"/>
      <point x="771" y="1170" type="line"/>
      <point x="811" y="1400" type="line"/>
      <point x="547" y="1400" type="line"/>
      <point x="507" y="1170" type="line"/>
      <point x="407" y="1170" type="line"/>
      <point x="402" y="1138" type="line"/>
      <point x="502" y="1138" type="line"/>
    </contour>
    <contour>
      <point x="573" y="36" type="line"/>
      <point x="719" y="872" type="line"/>
      <point x="2341" y="872" type="line" smooth="yes"/>
      <point x="2455.7" y="872"/>
      <point x="2553.85" y="762.552"/>
      <point x="2538" y="672" type="qcurve" smooth="yes"/>
      <point x="2456" y="200" type="line" smooth="yes"/>
      <point x="2440.15" y="109.448"/>
      <point x="2309.7" y="36"/>
      <point x="2195" y="36" type="qcurve" smooth="yes"/>
    </contour>
  </outline>
</glyph>
<glyph name="uni0474" format="2">
  <advance width="2783"/>
  <unicode hex="0474"/>
  <outline>
    <contour>
      <point x="1099" y="0" type="line"/>
      <point x="1283" y="0" type="line"/>
      <point x="2590" y="1289" type="line" smooth="yes"/>
      <point x="2634.52" y="1333.52"/>
      <point x="2713.9" y="1364"/>
      <point x="2772" y="1364" type="qcurve" smooth="yes"/>
      <point x="2892" y="1364" type="line"/>
      <point x="2909" y="1400" type="line"/>
      <point x="2778" y="1400" type="line" smooth="yes"/>
      <point x="2708.58" y="1400"/>
      <point x="2613.33" y="1360.58"/>
      <point x="2559" y="1307" type="qcurve" smooth="yes"/>
      <point x="1331" y="99" type="line"/>
      <point x="430" y="1400" type="line"/>
      <point x="127" y="1400" type="line"/>
    </contour>
  </outline>
</glyph>
<glyph name="uni0490" format="2">
  <advance width="2224"/>
  <unicode hex="0490"/>
  <outline>
    <contour>
      <point x="283" y="0" type="line"/>
      <point x="547" y="0" type="line"/>
      <point x="785" y="1364" type="line"/>
      <point x="2374" y="1364" type="line"/>
      <point x="2412" y="1582" type="line"/>
      <point x="2273" y="1582" type="line"/>
      <point x="2066" y="1400" type="line"/>
      <point x="527" y="1400" type="line"/>
    </contour>
  </outline>
  <guideline angle="0" color="1,0,0,1" x="0" y="1364"/>
</glyph>
<glyph name="uni049A" format="2">
  <advance width="2767"/>
  <unicode hex="049A"/>
  <outline>
    <contour>
      <point x="283" y="0" type="line"/>
      <point x="547" y="0" type="line"/>
      <point x="660" y="646" type="line"/>
      <point x="2062" y="0" type="line"/>
      <point x="2314" y="0" type="line"/>
      <point x="2427" y="-260" type="line"/>
      <point x="2601" y="-260" type="line"/>
      <point x="2652" y="36" type="line"/>
      <point x="2526" y="36" type="line"/>
      <point x="883" y="801" type="line"/>
      <point x="2631" y="1400" type="line"/>
      <point x="2526" y="1400" type="line"/>
      <point x="681" y="766" type="line"/>
      <point x="791" y="1400" type="line"/>
      <point x="527" y="1400" type="line"/>
    </contour>
  </outline>
  <guideline angle="260.1" color="1,0,0,1" x="2062" y="0"/>
  <guideline angle="155.039" color="1,0,0,1" x="2526" y="36"/>
</glyph>
<glyph name="uni049D" format="2">
  <advance width="2164"/>
  <unicode hex="049D"/>
  <outline>
    <contour>
      <point x="202" y="0" type="line"/>
      <point x="450" y="0" type="line"/>
      <point x="537" y="496" type="line"/>
      <point x="618" y="496" type="line"/>
      <point x="554" y="129" type="line"/>
      <point x="586" y="129" type="line"/>
      <point x="649" y="491" type="line"/>
      <point x="1569" y="0" type="line"/>
      <point x="2012" y="0" type="line"/>
      <point x="894" y="582" type="line"/>
      <point x="1984" y="1000" type="line"/>
      <point x="1907" y="1000" type="line"/>
      <point x="654" y="522" type="line"/>
      <point x="715" y="871" type="line"/>
      <point x="683" y="871" type="line"/>
      <point x="622" y="522" type="line"/>
      <point x="541" y="522" type="line"/>
      <point x="625" y="1000" type="line"/>
      <point x="377" y="1000" type="line"/>
    </contour>
  </outline>
</glyph>
<glyph name="uni04A3" format="2">
  <advance width="2365"/>
  <unicode hex="04A3"/>
  <outline>
    <contour>
      <point x="192" y="0" type="line"/>
      <point x="440" y="0" type="line"/>
      <point x="528" y="504" type="line"/>
      <point x="1600" y="504" type="line"/>
      <point x="1512" y="0" type="line" name="ATT"/>
      <point x="1602" y="0" type="line"/>
      <point x="1736" y="-220" type="line"/>
      <point x="1896" y="-220" type="line"/>
      <point x="1940" y="32" type="line"/>
      <point x="1766" y="32" type="line"/>
      <point x="1935" y="1000" type="line"/>
      <point x="1687" y="1000" type="line"/>
      <point x="1606" y="536" type="line"/>
      <point x="534" y="536" type="line"/>
      <point x="615" y="1000" type="line"/>
      <point x="367" y="1000" type="line"/>
    </contour>
  </outline>
</glyph>
<glyph name="uni04AE" format="2">
  <advance width="2352"/>
  <unicode hex="04AE"/>
  <anchor x="1466" y="1550" name="top"/>
  <anchor x="1078" y="-150" name="bottom"/>
  <outline>
    <contour>
      <point x="972" y="0" type="line"/>
      <point x="1236" y="0" type="line"/>
      <point x="1361" y="715" type="line"/>
      <point x="2478" y="1400" type="line"/>
      <point x="2409" y="1400" type="line"/>
      <point x="1344" y="747" type="line"/>
      <point x="499" y="1400" type="line"/>
      <point x="127" y="1400" type="line"/>
      <point x="1087" y="658" type="line"/>
    </contour>
  </outline>
  <guideline angle="260.1" color="1,0,0,1" x="1151" y="-0"/>
</glyph>
<glyph name="uni04B0" format="2">
  <advance width="2352"/>
  <unicode hex="04B0"/>
  <outline>
    <contour>
      <point x="926" y="0" type="line"/>
      <point x="1190" y="0" type="line"/>
      <point x="1251" y="351" type="line"/>
      <point x="1825" y="351" type="line"/>
      <point x="1831" y="383" type="line"/>
      <point x="1257" y="383" type="line"/>
      <point x="1315" y="716" type="line"/>
      <point x="2478" y="1400" type="line"/>
      <point x="2414" y="1400" type="line"/>
      <point x="1303" y="746" type="line"/>
      <point x="509" y="1400" type="line"/>
      <point x="127" y="1400" type="line"/>
      <point x="1039" y="650" type="line"/>
      <point x="993" y="383" type="line"/>
      <point x="420" y="383" type="line"/>
      <point x="414" y="351" type="line"/>
      <point x="987" y="351" type="line"/>
    </contour>
  </outline>
  <guideline angle="260.1" color="1,0,0,1" x="1028.86" y="0"/>
</glyph>
<glyph name="uni04C1" format="2">
  <advance width="3600"/>
  <unicode hex="04C1"/>
  <anchor x="2157" y="1917" name="top"/>
  <anchor x="1795" y="-150" name="bottom"/>
  <outline>
    <contour>
      <point x="-120" y="0" type="line"/>
      <point x="358" y="0" type="line"/>
      <point x="1658" y="630" type="line"/>
      <point x="1548" y="0" type="line"/>
      <point x="1812" y="0" type="line"/>
      <point x="1922" y="630" type="line"/>
      <point x="3012" y="0" type="line"/>
      <point x="3480" y="0" type="line"/>
      <point x="2084" y="799" type="line"/>
      <point x="3516" y="1400" type="line"/>
      <point x="3423" y="1400" type="line"/>
      <point x="1948" y="780" type="line"/>
      <point x="2056" y="1400" type="line"/>
      <point x="1792" y="1400" type="line"/>
      <point x="1684" y="780" type="line"/>
      <point x="416" y="1400" type="line"/>
      <point x="332" y="1400" type="line"/>
      <point x="1539" y="812" type="line"/>
    </contour>
    <contour>
      <point x="2088" y="1510" type="qcurve" smooth="yes"/>
      <point x="2188.12" y="1510"/>
      <point x="2334.84" y="1535.62"/>
      <point x="2437.41" y="1603.88"/>
      <point x="2500.5" y="1723.25"/>
      <point x="2517" y="1817" type="qcurve"/>
      <point x="2359" y="1817" type="line"/>
      <point x="2342.12" y="1721.38"/>
      <point x="2298.28" y="1611.53"/>
      <point x="2235.47" y="1556.22"/>
      <point x="2149.25" y="1542"/>
      <point x="2090" y="1542" type="qcurve" smooth="yes"/>
      <point x="2029.62" y="1542"/>
      <point x="1947.81" y="1556.22"/>
      <point x="1904.69" y="1611.53"/>
      <point x="1900.12" y="1721.38"/>
      <point x="1917" y="1817" type="qcurve"/>
      <point x="1759" y="1817" type="line"/>
      <point x="1742.5" y="1723.25"/>
      <point x="1765.81" y="1603.88"/>
      <point x="1847.19" y="1535.62"/>
      <point x="1987.5" y="1510"/>
    </contour>
  </outline>
</glyph>
<glyph name="uni04CB" format="2">
  <advance width="2941"/>
  <unicode hex="04CB"/>
  <outline>
    <contour>
      <point x="1912" y="-260" type="line"/>
      <point x="2086" y="-260" type="line"/>
      <point x="2289" y="0" type="line"/>
      <point x="2421" y="0" type="line" name="ATT"/>
      <point x="2665" y="1400" type="line"/>
      <point x="2401" y="1400" type="line"/>
      <point x="2250" y="535" type="line"/>
      <point x="620" y="535" type="line"/>
      <point x="620" y="535"/>
      <point x="620" y="535"/>
      <point x="620" y="535" type="qcurve"/>
      <point x="771" y="1400" type="line"/>
      <point x="507" y="1400" type="line"/>
      <point x="400" y="787" type="line" smooth="yes"/>
      <point x="384.625" y="698.5"/>
      <point x="414.094" y="586.375"/>
      <point x="492.656" y="522.625"/>
      <point x="614.75" y="499"/>
      <point x="692" y="499" type="qcurve" smooth="yes"/>
      <point x="2244" y="499" type="line"/>
      <point x="2163" y="36" type="line"/>
      <point x="1963" y="36" type="line"/>
    </contour>
  </outline>
</glyph>
<glyph name="uni04CF" format="2">
  <advance width="888"/>
  <unicode hex="04CF"/>
  <anchor x="603" y="1598" name="top"/>
  <anchor x="298" y="-150" name="bottom"/>
  <anchor x="701" y="1448" name="right"/>
  <anchor x="890" y="700" name="eldot"/>
  <outline>
    <contour>
      <point x="201" y="0" type="line"/>
      <point x="449" y="0" type="line"/>
      <point x="702" y="1448" type="line"/>
      <point x="454" y="1448" type="line"/>
    </contour>
  </outline>
</glyph>
<glyph name="uni04D2" format="2">
  <advance width="2642"/>
  <unicode hex="04D2"/>
  <anchor x="1537" y="1910" name="top"/>
  <anchor x="1176" y="-150" name="bottom"/>
  <anchor x="2212" y="0" name="ogonek_in"/>
  <outline>
    <contour>
      <point x="-120" y="0" type="line"/>
      <point x="-69" y="0" type="line"/>
      <point x="308" y="362" type="line"/>
      <point x="1961" y="362" type="line"/>
      <point x="2215" y="0" type="line"/>
      <point x="2522" y="0" type="line"/>
      <point x="1530" y="1400" type="line"/>
      <point x="1336" y="1400" type="line"/>
    </contour>
    <contour>
      <point x="345" y="398" type="line"/>
      <point x="1293" y="1309" type="line"/>
      <point x="1936" y="398" type="line"/>
    </contour>
    <contour>
      <point x="1243" y="1550" type="qcurve" smooth="yes"/>
      <point x="1303" y="1550" type="line" smooth="yes"/>
      <point x="1369.4" y="1550"/>
      <point x="1397.68" y="1573.6"/>
      <point x="1409" y="1640" type="qcurve" smooth="yes"/>
      <point x="1420" y="1702" type="line" smooth="yes"/>
      <point x="1431.32" y="1766.9"/>
      <point x="1412.4" y="1790"/>
      <point x="1346" y="1790" type="qcurve" smooth="yes"/>
      <point x="1286" y="1790" type="line" smooth="yes"/>
      <point x="1219.6" y="1790"/>
      <point x="1191.32" y="1766.9"/>
      <point x="1180" y="1702" type="qcurve" smooth="yes"/>
      <point x="1169" y="1640" type="line" smooth="yes"/>
      <point x="1157.68" y="1573.6"/>
      <point x="1176.6" y="1550"/>
    </contour>
    <contour>
      <point x="1643" y="1550" type="qcurve" smooth="yes"/>
      <point x="1703" y="1550" type="line" smooth="yes"/>
      <point x="1769.4" y="1550"/>
      <point x="1797.68" y="1573.6"/>
      <point x="1809" y="1640" type="qcurve" smooth="yes"/>
      <point x="1820" y="1702" type="line" smooth="yes"/>
      <point x="1831.32" y="1766.9"/>
      <point x="1812.4" y="1790"/>
      <point x="1746" y="1790" type="qcurve" smooth="yes"/>
      <point x="1686" y="1790" type="line" smooth="yes"/>
      <point x="1619.6" y="1790"/>
      <point x="1591.32" y="1766.9"/>
      <point x="1580" y="1702" type="qcurve" smooth="yes"/>
      <point x="1569" y="1640" type="line" smooth="yes"/>
      <point x="1557.68" y="1573.6"/>
      <point x="1576.6" y="1550"/>
    </contour>
  </outline>
</glyph>
<glyph name="uni04E2" format="2">
  <advance width="3111"/>
  <unicode hex="04E2"/>
  <anchor x="1378" y="-150" name="bottom"/>
  <anchor x="1705" y="1720" name="top"/>
  <outline>
    <contour>
      <point x="283" y="0" type="line"/>
      <point x="527" y="0" type="line"/>
      <point x="2560" y="1337" type="line"/>
      <point x="2327" y="0" type="line"/>
      <point x="2591" y="0" type="line"/>
      <point x="2835" y="1400" type="line"/>
      <point x="2591" y="1400" type="line"/>
      <point x="557" y="60" type="line"/>
      <point x="791" y="1400" type="line"/>
      <point x="527" y="1400" type="line"/>
    </contour>
    <contour>
      <point x="1199" y="1584" type="line"/>
      <point x="2164" y="1584" type="line"/>
      <point x="2171" y="1620" type="line"/>
      <point x="1206" y="1620" type="line"/>
    </contour>
  </outline>
</glyph>
<glyph name="uni04E4" format="2">
  <advance width="3111"/>
  <unicode hex="04E4"/>
  <anchor x="1378" y="-150" name="bottom"/>
  <anchor x="1739" y="1910" name="top"/>
  <outline>
    <contour>
      <point x="283" y="0" type="line"/>
      <point x="527" y="0" type="line"/>
      <point x="2560" y="1337" type="line"/>
      <point x="2327" y="0" type="line"/>
      <point x="2591" y="0" type="line"/>
      <point x="2835" y="1400" type="line"/>
      <point x="2591" y="1400" type="line"/>
      <point x="557" y="60" type="line"/>
      <point x="791" y="1400" type="line"/>
      <point x="527" y="1400" type="line"/>
    </contour>
    <contour>
      <point x="1445" y="1550" type="qcurve" smooth="yes"/>
      <point x="1505" y="1550" type="line" smooth="yes"/>
      <point x="1571.4" y="1550"/>
      <point x="1599.68" y="1573.6"/>
      <point x="1611" y="1640" type="qcurve" smooth="yes"/>
      <point x="1622" y="1702" type="line" smooth="yes"/>
      <point x="1633.32" y="1766.9"/>
      <point x="1614.4" y="1790"/>
      <point x="1548" y="1790" type="qcurve" smooth="yes"/>
      <point x="1488" y="1790" type="line" smooth="yes"/>
      <point x="1421.6" y="1790"/>
      <point x="1393.32" y="1766.9"/>
      <point x="1382" y="1702" type="qcurve" smooth="yes"/>
      <point x="1371" y="1640" type="line" smooth="yes"/>
      <point x="1359.68" y="1573.6"/>
      <point x="1378.6" y="1550"/>
    </contour>
    <contour>
      <point x="1845" y="1550" type="qcurve" smooth="yes"/>
      <point x="1905" y="1550" type="line" smooth="yes"/>
      <point x="1971.4" y="1550"/>
      <point x="1999.68" y="1573.6"/>
      <point x="2011" y="1640" type="qcurve" smooth="yes"/>
      <point x="2022" y="1702" type="line" smooth="yes"/>
      <point x="2033.32" y="1766.9"/>
      <point x="2014.4" y="1790"/>
      <point x="1948" y="1790" type="qcurve" smooth="yes"/>
      <point x="1888" y="1790" type="line" smooth="yes"/>
      <point x="1821.6" y="1790"/>
      <point x="1793.32" y="1766.9"/>
      <point x="1782" y="1702" type="qcurve" smooth="yes"/>
      <point x="1771" y="1640" type="line" smooth="yes"/>
      <point x="1759.68" y="1573.6"/>
      <point x="1778.6" y="1550"/>
    </contour>
  </outline>
</glyph>
<glyph name="uni04E6" format="2">
  <advance width="3146"/>
  <unicode hex="04E6"/>
  <anchor x="1796" y="1910" name="top"/>
  <anchor x="1433" y="-150" name="bottom"/>
  <anchor x="2835" y="1126" name="horn"/>
  <anchor x="1480" y="0" name="ogonek"/>
  <outline>
    <contour>
      <point x="463" y="1126" type="qcurve" smooth="yes"/>
      <point x="316" y="286" type="line" smooth="yes"/>
      <point x="285.061" y="109.424"/>
      <point x="446.516" y="0"/>
      <point x="608" y="0" type="qcurve" smooth="yes"/>
      <point x="2298" y="0" type="line" smooth="yes"/>
      <point x="2459.48" y="0"/>
      <point x="2661.06" y="107.914"/>
      <point x="2692" y="286" type="qcurve" smooth="yes"/>
      <point x="2839" y="1126" type="line" smooth="yes"/>
      <point x="2868.25" y="1297"/>
      <point x="2693.5" y="1400"/>
      <point x="2542" y="1400" type="qcurve" smooth="yes"/>
      <point x="852" y="1400" type="line" smooth="yes"/>
      <point x="700.5" y="1400"/>
      <point x="492.25" y="1297"/>
    </contour>
    <contour>
      <point x="768" y="1364" type="line"/>
      <point x="768" y="1364"/>
      <point x="768" y="1364"/>
      <point x="768" y="1364" type="qcurve"/>
      <point x="2616" y="1364" type="line"/>
      <point x="2616" y="1364"/>
      <point x="2616" y="1364"/>
      <point x="2616" y="1364" type="qcurve"/>
      <point x="2384" y="36" type="line"/>
      <point x="2384" y="36"/>
      <point x="2384" y="36"/>
      <point x="2384" y="36" type="qcurve"/>
      <point x="536" y="36" type="line"/>
      <point x="536" y="36"/>
      <point x="536" y="36"/>
      <point x="536" y="36" type="qcurve"/>
    </contour>
    <contour>
      <point x="1502" y="1550" type="qcurve" smooth="yes"/>
      <point x="1562" y="1550" type="line" smooth="yes"/>
      <point x="1628.4" y="1550"/>
      <point x="1656.68" y="1573.6"/>
      <point x="1668" y="1640" type="qcurve" smooth="yes"/>
      <point x="1679" y="1702" type="line" smooth="yes"/>
      <point x="1690.32" y="1766.9"/>
      <point x="1671.4" y="1790"/>
      <point x="1605" y="1790" type="qcurve" smooth="yes"/>
      <point x="1545" y="1790" type="line" smooth="yes"/>
      <point x="1478.6" y="1790"/>
      <point x="1450.32" y="1766.9"/>
      <point x="1439" y="1702" type="qcurve" smooth="yes"/>
      <point x="1428" y="1640" type="line" smooth="yes"/>
      <point x="1416.68" y="1573.6"/>
      <point x="1435.6" y="1550"/>
    </contour>
    <contour>
      <point x="1902" y="1550" type="qcurve" smooth="yes"/>
      <point x="1962" y="1550" type="line" smooth="yes"/>
      <point x="2028.4" y="1550"/>
      <point x="2056.68" y="1573.6"/>
      <point x="2068" y="1640" type="qcurve" smooth="yes"/>
      <point x="2079" y="1702" type="line" smooth="yes"/>
      <point x="2090.32" y="1766.9"/>
      <point x="2071.4" y="1790"/>
      <point x="2005" y="1790" type="qcurve" smooth="yes"/>
      <point x="1945" y="1790" type="line" smooth="yes"/>
      <point x="1878.6" y="1790"/>
      <point x="1850.32" y="1766.9"/>
      <point x="1839" y="1702" type="qcurve" smooth="yes"/>
      <point x="1828" y="1640" type="line" smooth="yes"/>
      <point x="1816.68" y="1573.6"/>
      <point x="1835.6" y="1550"/>
    </contour>
  </outline>
</glyph>
<glyph name="uni04E7" format="2">
  <advance width="2287"/>
  <unicode hex="04E7"/>
  <anchor x="1288" y="1510" name="top"/>
  <anchor x="997" y="-150" name="bottom"/>
  <anchor x="2006" y="796" name="horn"/>
  <anchor x="1044" y="0" name="ogonek"/>
  <outline>
    <contour>
      <point x="219" y="214" type="line" smooth="yes"/>
      <point x="198.626" y="97.7916"/>
      <point x="299.154" y="0"/>
      <point x="438" y="0" type="qcurve" smooth="yes"/>
      <point x="1614" y="0" type="line" smooth="yes"/>
      <point x="1754.36" y="0"/>
      <point x="1886.63" y="97.7916"/>
      <point x="1907" y="214" type="qcurve" smooth="yes"/>
      <point x="2009" y="796" type="line" smooth="yes"/>
      <point x="2027.87" y="904.662"/>
      <point x="1926.34" y="1000"/>
      <point x="1789" y="1000" type="qcurve" smooth="yes"/>
      <point x="613" y="1000" type="line" smooth="yes"/>
      <point x="475.663" y="1000"/>
      <point x="339.865" y="904.662"/>
      <point x="321" y="796" type="qcurve" smooth="yes"/>
    </contour>
    <contour>
      <point x="436" y="32" type="qcurve"/>
      <point x="599" y="968" type="line"/>
      <point x="599" y="968"/>
      <point x="599" y="968"/>
      <point x="599" y="968" type="qcurve"/>
      <point x="1791" y="968" type="line"/>
      <point x="1791" y="968"/>
      <point x="1791" y="968"/>
      <point x="1791" y="968" type="qcurve"/>
      <point x="1628" y="32" type="line"/>
      <point x="1628" y="32"/>
      <point x="1628" y="32"/>
      <point x="1628" y="32" type="qcurve"/>
      <point x="436" y="32" type="line"/>
      <point x="436" y="32"/>
      <point x="436" y="32"/>
    </contour>
    <contour>
      <point x="994" y="1150" type="qcurve" smooth="yes"/>
      <point x="1054" y="1150" type="line" smooth="yes"/>
      <point x="1120.4" y="1150"/>
      <point x="1148.68" y="1173.6"/>
      <point x="1160" y="1240" type="qcurve" smooth="yes"/>
      <point x="1171" y="1302" type="line" smooth="yes"/>
      <point x="1182.32" y="1366.9"/>
      <point x="1163.4" y="1390"/>
      <point x="1097" y="1390" type="qcurve" smooth="yes"/>
      <point x="1037" y="1390" type="line" smooth="yes"/>
      <point x="970.595" y="1390"/>
      <point x="942.319" y="1366.9"/>
      <point x="931" y="1302" type="qcurve" smooth="yes"/>
      <point x="920" y="1240" type="line" smooth="yes"/>
      <point x="908.681" y="1173.6"/>
      <point x="927.595" y="1150"/>
    </contour>
    <contour>
      <point x="1394" y="1150" type="qcurve" smooth="yes"/>
      <point x="1454" y="1150" type="line" smooth="yes"/>
      <point x="1520.4" y="1150"/>
      <point x="1548.68" y="1173.6"/>
      <point x="1560" y="1240" type="qcurve" smooth="yes"/>
      <point x="1571" y="1302" type="line" smooth="yes"/>
      <point x="1582.32" y="1366.9"/>
      <point x="1563.4" y="1390"/>
      <point x="1497" y="1390" type="qcurve" smooth="yes"/>
      <point x="1437" y="1390" type="line" smooth="yes"/>
      <point x="1370.6" y="1390"/>
      <point x="1342.32" y="1366.9"/>
      <point x="1331" y="1302" type="qcurve" smooth="yes"/>
      <point x="1320" y="1240" type="line" smooth="yes"/>
      <point x="1308.68" y="1173.6"/>
      <point x="1327.6" y="1150"/>
    </contour>
  </outline>
</glyph>
<glyph name="uni04F0" format="2">
  <advance width="2356"/>
  <unicode hex="04F0"/>
  <anchor x="1395" y="1910" name="top"/>
  <outline>
    <contour>
      <point x="163" y="0" type="line"/>
      <point x="579" y="0" type="line" smooth="yes"/>
      <point x="660.497" y="0"/>
      <point x="819.577" y="62.1596"/>
      <point x="889" y="118" type="qcurve" smooth="yes"/>
      <point x="2482" y="1400" type="line"/>
      <point x="2424" y="1400" type="line"/>
      <point x="1263" y="463" type="line"/>
      <point x="494" y="1400" type="line"/>
      <point x="127" y="1400" type="line"/>
      <point x="1044" y="288" type="line"/>
      <point x="865" y="144" type="line" smooth="yes"/>
      <point x="795.577" y="88.1596"/>
      <point x="667.497" y="36"/>
      <point x="586" y="36" type="qcurve" smooth="yes"/>
      <point x="161" y="36" type="line"/>
    </contour>
    <contour>
      <point x="1101" y="1550" type="qcurve" smooth="yes"/>
      <point x="1161" y="1550" type="line" smooth="yes"/>
      <point x="1227.4" y="1550"/>
      <point x="1255.68" y="1573.6"/>
      <point x="1267" y="1640" type="qcurve" smooth="yes"/>
      <point x="1278" y="1702" type="line" smooth="yes"/>
      <point x="1289.32" y="1766.9"/>
      <point x="1270.4" y="1790"/>
      <point x="1204" y="1790" type="qcurve" smooth="yes"/>
      <point x="1144" y="1790" type="line" smooth="yes"/>
      <point x="1077.6" y="1790"/>
      <point x="1049.32" y="1766.9"/>
      <point x="1038" y="1702" type="qcurve" smooth="yes"/>
      <point x="1027" y="1640" type="line" smooth="yes"/>
      <point x="1015.68" y="1573.6"/>
      <point x="1034.6" y="1550"/>
    </contour>
    <contour>
      <point x="1501" y="1550" type="qcurve" smooth="yes"/>
      <point x="1561" y="1550" type="line" smooth="yes"/>
      <point x="1627.4" y="1550"/>
      <point x="1655.68" y="1573.6"/>
      <point x="1667" y="1640" type="qcurve" smooth="yes"/>
      <point x="1678" y="1702" type="line" smooth="yes"/>
      <point x="1689.32" y="1766.9"/>
      <point x="1670.4" y="1790"/>
      <point x="1604" y="1790" type="qcurve" smooth="yes"/>
      <point x="1544" y="1790" type="line" smooth="yes"/>
      <point x="1477.6" y="1790"/>
      <point x="1449.32" y="1766.9"/>
      <point x="1438" y="1702" type="qcurve" smooth="yes"/>
      <point x="1427" y="1640" type="line" smooth="yes"/>
      <point x="1415.68" y="1573.6"/>
      <point x="1434.6" y="1550"/>
    </contour>
  </outline>
  <guideline angle="90" x="400" y="0"/>
</glyph>
<glyph name="uni04F5" format="2">
  <advance width="2135"/>
  <unicode hex="04F5"/>
  <anchor x="1188" y="1510" name="top"/>
  <outline>
    <contour>
      <point x="1489" y="0" type="line"/>
      <point x="1737" y="0" type="line"/>
      <point x="1911" y="1000" type="line"/>
      <point x="1663" y="1000" type="line"/>
      <point x="1549" y="343" type="line"/>
      <point x="492" y="343" type="line"/>
      <point x="492" y="343"/>
      <point x="492" y="343"/>
      <point x="492" y="343" type="qcurve"/>
      <point x="606" y="1000" type="line"/>
      <point x="357" y="1000" type="line"/>
      <point x="286" y="593" type="line" smooth="yes"/>
      <point x="264.117" y="468.491"/>
      <point x="363.037" y="317"/>
      <point x="480" y="317" type="qcurve" smooth="yes"/>
      <point x="1544" y="317" type="line"/>
    </contour>
    <contour>
      <point x="894" y="1150" type="qcurve" smooth="yes"/>
      <point x="954" y="1150" type="line" smooth="yes"/>
      <point x="1020.4" y="1150"/>
      <point x="1048.68" y="1173.6"/>
      <point x="1060" y="1240" type="qcurve" smooth="yes"/>
      <point x="1071" y="1302" type="line" smooth="yes"/>
      <point x="1082.32" y="1366.9"/>
      <point x="1063.4" y="1390"/>
      <point x="997" y="1390" type="qcurve" smooth="yes"/>
      <point x="937" y="1390" type="line" smooth="yes"/>
      <point x="870.595" y="1390"/>
      <point x="842.319" y="1366.9"/>
      <point x="831" y="1302" type="qcurve" smooth="yes"/>
      <point x="820" y="1240" type="line" smooth="yes"/>
      <point x="808.681" y="1173.6"/>
      <point x="827.595" y="1150"/>
    </contour>
    <contour>
      <point x="1294" y="1150" type="qcurve" smooth="yes"/>
      <point x="1354" y="1150" type="line" smooth="yes"/>
      <point x="1420.4" y="1150"/>
      <point x="1448.68" y="1173.6"/>
      <point x="1460" y="1240" type="qcurve" smooth="yes"/>
      <point x="1471" y="1302" type="line" smooth="yes"/>
      <point x="1482.32" y="1366.9"/>
      <point x="1463.4" y="1390"/>
      <point x="1397" y="1390" type="qcurve" smooth="yes"/>
      <point x="1337" y="1390" type="line" smooth="yes"/>
      <point x="1270.6" y="1390"/>
      <point x="1242.32" y="1366.9"/>
      <point x="1231" y="1302" type="qcurve" smooth="yes"/>
      <point x="1220" y="1240" type="line" smooth="yes"/>
      <point x="1208.68" y="1173.6"/>
      <point x="1227.6" y="1150"/>
    </contour>
  </outline>
</glyph>
<glyph name="uni04F7" format="2">
  <advance width="1738"/>
  <unicode hex="04F7"/>
  <outline>
    <contour>
      <point x="192" y="0" type="line" name="ATT"/>
      <point x="282" y="0" type="line"/>
      <point x="416" y="-220" type="line"/>
      <point x="576" y="-220" type="line"/>
      <point x="620" y="32" type="line"/>
      <point x="446" y="32" type="line"/>
      <point x="609" y="968" type="line"/>
      <point x="1697" y="968" type="line"/>
      <point x="1703" y="1000" type="line"/>
      <point x="367" y="1000" type="line"/>
    </contour>
  </outline>
</glyph>
<glyph name="uni04F8" format="2">
  <advance width="3834"/>
  <unicode hex="04F8"/>
  <anchor x="2286" y="1910" name="top"/>
  <outline>
    <contour>
      <point x="283" y="0" type="line"/>
      <point x="2106" y="0" type="line" smooth="yes"/>
      <point x="2181.75" y="0"/>
      <point x="2310.06" y="10.25"/>
      <point x="2409.44" y="56.75"/>
      <point x="2477" y="152.5"/>
      <point x="2492" y="238" type="qcurve" smooth="yes"/>
      <point x="2561" y="634" type="line" smooth="yes"/>
      <point x="2575.62" y="719.5"/>
      <point x="2543.28" y="826.5"/>
      <point x="2462.47" y="886.5"/>
      <point x="2339.75" y="908"/>
      <point x="2264" y="908" type="qcurve" smooth="yes"/>
      <point x="705" y="908" type="line"/>
      <point x="791" y="1400" type="line"/>
      <point x="527" y="1400" type="line"/>
    </contour>
    <contour>
      <point x="553" y="36" type="line"/>
      <point x="699" y="872" type="line"/>
      <point x="2106" y="872" type="line" smooth="yes"/>
      <point x="2220.7" y="872"/>
      <point x="2318.85" y="762.552"/>
      <point x="2303" y="672" type="qcurve" smooth="yes"/>
      <point x="2221" y="200" type="line" smooth="yes"/>
      <point x="2205.15" y="109.448"/>
      <point x="2074.7" y="36"/>
      <point x="1960" y="36" type="qcurve" smooth="yes"/>
    </contour>
    <contour>
      <point x="3050" y="0" type="line"/>
      <point x="3314" y="0" type="line"/>
      <point x="3558" y="1400" type="line"/>
      <point x="3294" y="1400" type="line"/>
    </contour>
    <contour>
      <point x="1992" y="1550" type="qcurve" smooth="yes"/>
      <point x="2052" y="1550" type="line" smooth="yes"/>
      <point x="2118.4" y="1550"/>
      <point x="2146.68" y="1573.6"/>
      <point x="2158" y="1640" type="qcurve" smooth="yes"/>
      <point x="2169" y="1702" type="line" smooth="yes"/>
      <point x="2180.32" y="1766.9"/>
      <point x="2161.4" y="1790"/>
      <point x="2095" y="1790" type="qcurve" smooth="yes"/>
      <point x="2035" y="1790" type="line" smooth="yes"/>
      <point x="1968.6" y="1790"/>
      <point x="1940.32" y="1766.9"/>
      <point x="1929" y="1702" type="qcurve" smooth="yes"/>
      <point x="1918" y="1640" type="line" smooth="yes"/>
      <point x="1906.68" y="1573.6"/>
      <point x="1925.6" y="1550"/>
    </contour>
    <contour>
      <point x="2392" y="1550" type="qcurve" smooth="yes"/>
      <point x="2452" y="1550" type="line" smooth="yes"/>
      <point x="2518.4" y="1550"/>
      <point x="2546.68" y="1573.6"/>
      <point x="2558" y="1640" type="qcurve" smooth="yes"/>
      <point x="2569" y="1702" type="line" smooth="yes"/>
      <point x="2580.32" y="1766.9"/>
      <point x="2561.4" y="1790"/>
      <point x="2495" y="1790" type="qcurve" smooth="yes"/>
      <point x="2435" y="1790" type="line" smooth="yes"/>
      <point x="2368.6" y="1790"/>
      <point x="2340.32" y="1766.9"/>
      <point x="2329" y="1702" type="qcurve" smooth="yes"/>
      <point x="2318" y="1640" type="line" smooth="yes"/>
      <point x="2306.68" y="1573.6"/>
      <point x="2325.6" y="1550"/>
    </contour>
  </outline>
  <guideline angle="260.1" color="1,0,0,1" x="2520" y="-0"/>
</glyph>
<glyph name="uni1E63" format="2">
  <advance width="2082"/>
  <unicode hex="1E63"/>
  <anchor x="1120" y="1150" name="top"/>
  <anchor x="893" y="-150" name="bottom"/>
  <outline>
    <contour>
      <point x="217" y="262" type="line"/>
      <point x="207" y="204" type="line" smooth="yes"/>
      <point x="184.362" y="77.2272"/>
      <point x="300.301" y="0"/>
      <point x="415" y="0" type="qcurve" smooth="yes"/>
      <point x="1425" y="0" type="line" smooth="yes"/>
      <point x="1541.21" y="0"/>
      <point x="1684.36" y="77.2272"/>
      <point x="1707" y="204" type="qcurve" smooth="yes"/>
      <point x="1727" y="323" type="line" smooth="yes"/>
      <point x="1748.88" y="448.264"/>
      <point x="1626.17" y="519"/>
      <point x="1516" y="519" type="qcurve" smooth="yes"/>
      <point x="504" y="519" type="line"/>
      <point x="504" y="519"/>
      <point x="504" y="519"/>
      <point x="504" y="519" type="qcurve"/>
      <point x="582" y="968" type="line"/>
      <point x="582" y="968"/>
      <point x="582" y="968"/>
      <point x="582" y="968" type="qcurve"/>
      <point x="1606" y="968" type="line"/>
      <point x="1606" y="968"/>
      <point x="1606" y="968"/>
      <point x="1606" y="968" type="qcurve"/>
      <point x="1560" y="706" type="line"/>
      <point x="1788" y="750" type="line"/>
      <point x="1797" y="804" type="line" smooth="yes"/>
      <point x="1818.88" y="926.245"/>
      <point x="1696.17" y="1000"/>
      <point x="1586" y="1000" type="qcurve" smooth="yes"/>
      <point x="612" y="1000" type="line" smooth="yes"/>
      <point x="504" y="1000"/>
      <point x="354.75" y="925.5"/>
      <point x="333" y="804" type="qcurve" smooth="yes"/>
      <point x="314" y="693" type="line" smooth="yes"/>
      <point x="292.117" y="566.227"/>
      <point x="407.301" y="487"/>
      <point x="522" y="487" type="qcurve" smooth="yes"/>
      <point x="1536" y="487" type="line"/>
      <point x="1536" y="487"/>
      <point x="1536" y="487"/>
      <point x="1536" y="487" type="qcurve"/>
      <point x="1457" y="32" type="line"/>
      <point x="1457" y="32"/>
      <point x="1457" y="32"/>
      <point x="1457" y="32" type="qcurve"/>
      <point x="397" y="32" type="line"/>
      <point x="397" y="32"/>
      <point x="397" y="32"/>
      <point x="397" y="32" type="qcurve"/>
      <point x="445" y="308" type="line"/>
    </contour>
    <contour>
      <point x="826" y="-339" type="qcurve" smooth="yes"/>
      <point x="886" y="-339" type="line" smooth="yes"/>
      <point x="952.405" y="-339"/>
      <point x="980.681" y="-315.896"/>
      <point x="992" y="-251" type="qcurve" smooth="yes"/>
      <point x="1003" y="-189" type="line" smooth="yes"/>
      <point x="1014.32" y="-124.104"/>
      <point x="995.405" y="-101"/>
      <point x="929" y="-101" type="qcurve" smooth="yes"/>
      <point x="869" y="-101" type="line" smooth="yes"/>
      <point x="802.595" y="-101"/>
      <point x="774.319" y="-124.104"/>
      <point x="763" y="-189" type="qcurve" smooth="yes"/>
      <point x="752" y="-251" type="line" smooth="yes"/>
      <point x="740.681" y="-315.896"/>
      <point x="759.595" y="-339"/>
    </contour>
  </outline>
</glyph>
<glyph name="uni1EA0" format="2">
  <advance width="2642"/>
  <unicode hex="1EA0"/>
  <anchor x="1473" y="1550" name="top"/>
  <anchor x="1176" y="-150" name="bottom"/>
  <anchor x="2212" y="0" name="ogonek_in"/>
  <outline>
    <contour>
      <point x="-120" y="0" type="line"/>
      <point x="-69" y="0" type="line"/>
      <point x="308" y="362" type="line"/>
      <point x="1961" y="362" type="line"/>
      <point x="2215" y="0" type="line"/>
      <point x="2522" y="0" type="line"/>
      <point x="1530" y="1400" type="line"/>
      <point x="1336" y="1400" type="line"/>
    </contour>
    <contour>
      <point x="345" y="398" type="line"/>
      <point x="1293" y="1309" type="line"/>
      <point x="1936" y="398" type="line"/>
    </contour>
    <contour>
      <point x="1099" y="-359" type="qcurve" smooth="yes"/>
      <point x="1163" y="-359" type="line" smooth="yes"/>
      <point x="1233.18" y="-359"/>
      <point x="1262.17" y="-333.932"/>
      <point x="1275" y="-263" type="qcurve" smooth="yes"/>
      <point x="1287" y="-197" type="line" smooth="yes"/>
      <point x="1299.07" y="-126.822"/>
      <point x="1278.18" y="-102"/>
      <point x="1208" y="-102" type="qcurve" smooth="yes"/>
      <point x="1144" y="-102" type="line" smooth="yes"/>
      <point x="1073.82" y="-102"/>
      <point x="1045.07" y="-126.822"/>
      <point x="1033" y="-197" type="qcurve" smooth="yes"/>
      <point x="1021" y="-263" type="line" smooth="yes"/>
      <point x="1008.17" y="-333.932"/>
      <point x="1028.82" y="-359"/>
    </contour>
  </outline>
  <guideline angle="0" x="0" y="-100"/>
</glyph>
<glyph name="uni1EA4" format="2">
  <advance width="2642"/>
  <unicode hex="1EA4"/>
  <anchor x="1532" y="1880" name="top"/>
  <anchor x="1176" y="-150" name="bottom"/>
  <anchor x="2212" y="0" name="ogonek_in"/>
  <outline>
    <contour>
      <point x="-120" y="0" type="line"/>
      <point x="-69" y="0" type="line"/>
      <point x="308" y="362" type="line"/>
      <point x="1961" y="362" type="line"/>
      <point x="2215" y="0" type="line"/>
      <point x="2522" y="0" type="line"/>
      <point x="1530" y="1400" type="line"/>
      <point x="1336" y="1400" type="line"/>
    </contour>
    <contour>
      <point x="345" y="398" type="line"/>
      <point x="1293" y="1309" type="line"/>
      <point x="1936" y="398" type="line"/>
    </contour>
    <contour>
      <point x="883" y="1485" type="line"/>
      <point x="935" y="1485" type="line"/>
      <point x="1362" y="1769" type="line"/>
      <point x="1659" y="1485" type="line"/>
      <point x="1949" y="1485" type="line"/>
      <point x="1593" y="1800" type="line"/>
      <point x="1350" y="1800" type="line"/>
    </contour>
    <contour>
      <point x="1991" y="1667" type="line"/>
      <point x="2048" y="1667" type="line"/>
      <point x="2538" y="1900" type="line"/>
      <point x="2248" y="1900" type="line"/>
    </contour>
  </outline>
</glyph>
<glyph name="uni1EA6" format="2">
  <advance width="2642"/>
  <unicode hex="1EA6"/>
  <anchor x="1473" y="1550" name="top"/>
  <anchor x="1176" y="-150" name="bottom"/>
  <anchor x="2212" y="0" name="ogonek_in"/>
  <outline>
    <contour>
      <point x="-120" y="0" type="line"/>
      <point x="-69" y="0" type="line"/>
      <point x="308" y="362" type="line"/>
      <point x="1961" y="362" type="line"/>
      <point x="2215" y="0" type="line"/>
      <point x="2522" y="0" type="line"/>
      <point x="1530" y="1400" type="line"/>
      <point x="1336" y="1400" type="line"/>
    </contour>
    <contour>
      <point x="345" y="398" type="line"/>
      <point x="1293" y="1309" type="line"/>
      <point x="1936" y="398" type="line"/>
    </contour>
    <contour>
      <point x="911" y="1485" type="line"/>
      <point x="963" y="1485" type="line"/>
      <point x="1388" y="1769" type="line"/>
      <point x="1687" y="1485" type="line"/>
      <point x="1977" y="1485" type="line"/>
      <point x="1621" y="1800" type="line"/>
      <point x="1378" y="1800" type="line"/>
    </contour>
    <contour>
      <point x="2175" y="1667" type="line"/>
      <point x="2232" y="1667" type="line"/>
      <point x="2103" y="1900" type="line"/>
      <point x="1813" y="1900" type="line"/>
    </contour>
  </outline>
</glyph>
<glyph name="uni1EB2" format="2">
  <advance width="2642"/>
  <unicode hex="1EB2"/>
  <anchor x="1535" y="1900" name="top"/>
  <anchor x="1176" y="-150" name="bottom"/>
  <anchor x="2212" y="0" name="ogonek_in"/>
  <outline>
    <contour>
      <point x="-120" y="0" type="line"/>
      <point x="-69" y="0" type="line"/>
      <point x="308" y="362" type="line"/>
      <point x="1961" y="362" type="line"/>
      <point x="2215" y="0" type="line"/>
      <point x="2522" y="0" type="line"/>
      <point x="1530" y="1400" type="line"/>
      <point x="1336" y="1400" type="line"/>
    </contour>
    <contour>
      <point x="345" y="398" type="line"/>
      <point x="1293" y="1309" type="line"/>
      <point x="1936" y="398" type="line"/>
    </contour>
    <contour>
      <point x="1469" y="1510" type="qcurve" smooth="yes"/>
      <point x="1576.25" y="1510"/>
      <point x="1733.41" y="1534.25"/>
      <point x="1842.34" y="1598.75"/>
      <point x="1907.62" y="1711.5"/>
      <point x="1923" y="1800" type="qcurve"/>
      <point x="1754" y="1800" type="line"/>
      <point x="1740.5" y="1721.62"/>
      <point x="1696.84" y="1622.66"/>
      <point x="1629.91" y="1566.59"/>
      <point x="1536.38" y="1546"/>
      <point x="1473" y="1546" type="qcurve" smooth="yes"/>
      <point x="1409.62" y="1546"/>
      <point x="1323.34" y="1566.59"/>
      <point x="1275.91" y="1622.66"/>
      <point x="1266.5" y="1721.62"/>
      <point x="1280" y="1800" type="qcurve"/>
      <point x="1111" y="1800" type="line"/>
      <point x="1095.62" y="1711.5"/>
      <point x="1123.22" y="1598.75"/>
      <point x="1211.53" y="1534.25"/>
      <point x="1361.75" y="1510"/>
    </contour>
    <contour>
      <point x="1466" y="1850" type="qcurve"/>
      <point x="1579" y="1850" type="line"/>
      <point x="1655.97" y="1864.34"/>
      <point x="1798.68" y="1939.1"/>
      <point x="1810" y="2004" type="qcurve" smooth="yes"/>
      <point x="1822.07" y="2071.16"/>
      <point x="1712.26" y="2173"/>
      <point x="1587" y="2173" type="qcurve" smooth="yes"/>
      <point x="1522.1" y="2173"/>
      <point x="1385.18" y="2144.18"/>
      <point x="1315" y="2114" type="qcurve"/>
      <point x="1325" y="2088" type="line"/>
      <point x="1380.84" y="2109.88"/>
      <point x="1465.53" y="2132"/>
      <point x="1501" y="2132" type="qcurve" smooth="yes"/>
      <point x="1556.84" y="2132"/>
      <point x="1603.06" y="2075.31"/>
      <point x="1594" y="2024" type="qcurve" smooth="yes"/>
      <point x="1587.21" y="1984.76"/>
      <point x="1531.65" y="1899.05"/>
    </contour>
  </outline>
</glyph>
<glyph name="uni1EB5" format="2">
  <advance width="2220"/>
  <unicode hex="1EB5"/>
  <anchor x="1166" y="1150" name="top"/>
  <anchor x="932" y="-150" name="bottom"/>
  <anchor x="1542" y="0" name="ogonek"/>
  <outline>
    <contour>
      <point x="414" y="0" type="qcurve" smooth="yes"/>
      <point x="1424" y="0" type="line" smooth="yes"/>
      <point x="1451.17" y="0"/>
      <point x="1492.17" y="14.4172"/>
      <point x="1505" y="28" type="qcurve"/>
      <point x="1500" y="0" type="line"/>
      <point x="1748" y="0" type="line"/>
      <point x="1888" y="804" type="line" smooth="yes"/>
      <point x="1909.88" y="927.754"/>
      <point x="1787.17" y="1000"/>
      <point x="1677" y="1000" type="qcurve" smooth="yes"/>
      <point x="603" y="1000" type="line" smooth="yes"/>
      <point x="492.828" y="1000"/>
      <point x="343.883" y="927.754"/>
      <point x="322" y="804" type="qcurve" smooth="yes"/>
      <point x="314" y="754" type="line"/>
      <point x="554" y="708" type="line"/>
      <point x="599" y="968" type="line"/>
      <point x="599" y="968"/>
      <point x="599" y="968"/>
      <point x="599" y="968" type="qcurve"/>
      <point x="1669" y="968" type="line"/>
      <point x="1669" y="968"/>
      <point x="1669" y="968"/>
      <point x="1669" y="968" type="qcurve"/>
      <point x="1593" y="534" type="line"/>
      <point x="547" y="534" type="line" smooth="yes"/>
      <point x="437.5" y="534"/>
      <point x="248.75" y="463"/>
      <point x="227" y="340" type="qcurve" smooth="yes"/>
      <point x="204" y="204" type="line" smooth="yes"/>
      <point x="181.362" y="77.2272"/>
      <point x="297.792" y="0"/>
    </contour>
    <contour>
      <point x="422" y="32" type="qcurve"/>
      <point x="504" y="502" type="line"/>
      <point x="504" y="502"/>
      <point x="504" y="502"/>
      <point x="504" y="502" type="qcurve"/>
      <point x="1588" y="502" type="line"/>
      <point x="1506" y="32" type="line"/>
      <point x="422" y="32" type="line"/>
      <point x="422" y="32"/>
      <point x="422" y="32"/>
    </contour>
    <contour>
      <point x="1162" y="1093" type="qcurve" smooth="yes"/>
      <point x="1269.25" y="1093"/>
      <point x="1418.59" y="1123.12"/>
      <point x="1518.16" y="1194.38"/>
      <point x="1575.62" y="1312.25"/>
      <point x="1591" y="1400" type="qcurve"/>
      <point x="1433" y="1400" type="line"/>
      <point x="1418" y="1315.25"/>
      <point x="1381.03" y="1208.12"/>
      <point x="1321.22" y="1147.38"/>
      <point x="1230.62" y="1125"/>
      <point x="1162" y="1125" type="qcurve" smooth="yes"/>
      <point x="1094.12" y="1125"/>
      <point x="1012.47" y="1147.09"/>
      <point x="974.781" y="1207.66"/>
      <point x="976" y="1314.88"/>
      <point x="991" y="1400" type="qcurve"/>
      <point x="833" y="1400" type="line"/>
      <point x="817.625" y="1313"/>
      <point x="835.031" y="1195.31"/>
      <point x="911.719" y="1123.69"/>
      <point x="1053.25" y="1093"/>
    </contour>
    <contour>
      <point x="789" y="1487" type="qcurve"/>
      <point x="818" y="1481" type="line"/>
      <point x="838.374" y="1535.33"/>
      <point x="903.233" y="1590"/>
      <point x="947" y="1590" type="qcurve" smooth="yes"/>
      <point x="986.375" y="1590"/>
      <point x="1096.44" y="1551.88"/>
      <point x="1217.56" y="1506.12"/>
      <point x="1339.62" y="1468"/>
      <point x="1391" y="1468" type="qcurve" smooth="yes"/>
      <point x="1473.25" y="1468"/>
      <point x="1592.46" y="1588.19"/>
      <point x="1640" y="1721" type="qcurve"/>
      <point x="1611" y="1725" type="line"/>
      <point x="1590.63" y="1670.67"/>
      <point x="1525.77" y="1616"/>
      <point x="1482" y="1616" type="qcurve" smooth="yes"/>
      <point x="1442.62" y="1616"/>
      <point x="1332.56" y="1654.12"/>
      <point x="1211.44" y="1699.88"/>
      <point x="1089.38" y="1738"/>
      <point x="1038" y="1738" type="qcurve" smooth="yes"/>
      <point x="954.994" y="1738"/>
      <point x="835.785" y="1617.55"/>
    </contour>
  </outline>
  <guideline angle="260.1" color="1,0,0,1" x="1500" y="-0"/>
  <guideline angle="90" x="627" y="0"/>
  <guideline angle="90" x="1437" y="0"/>
  <guideline angle="90" x="657" y="0"/>
  <guideline angle="90" x="1407" y="0"/>
</glyph>
<glyph name="uni1EBA" format="2">
  <advance width="2388"/>
  <unicode hex="1EBA"/>
  <anchor x="1560" y="1550" name="top"/>
  <anchor x="1263" y="-150" name="bottom"/>
  <anchor x="2046" y="0" name="ogonek"/>
  <outline>
    <contour>
      <point x="283" y="0" type="line"/>
      <point x="2301" y="0" type="line"/>
      <point x="2307" y="36" type="line"/>
      <point x="553" y="36" type="line"/>
      <point x="669" y="700" type="line"/>
      <point x="1707" y="700" type="line"/>
      <point x="1713" y="736" type="line"/>
      <point x="675" y="736" type="line"/>
      <point x="785" y="1364" type="line"/>
      <point x="2505" y="1364" type="line"/>
      <point x="2511" y="1400" type="line"/>
      <point x="527" y="1400" type="line"/>
    </contour>
    <contour>
      <point x="1491" y="1500" type="qcurve"/>
      <point x="1604" y="1500" type="line"/>
      <point x="1680.97" y="1514.34"/>
      <point x="1823.68" y="1589.1"/>
      <point x="1835" y="1654" type="qcurve" smooth="yes"/>
      <point x="1847.07" y="1721.16"/>
      <point x="1737.26" y="1823"/>
      <point x="1612" y="1823" type="qcurve" smooth="yes"/>
      <point x="1547.1" y="1823"/>
      <point x="1410.18" y="1794.18"/>
      <point x="1340" y="1764" type="qcurve"/>
      <point x="1350" y="1738" type="line"/>
      <point x="1405.84" y="1759.88"/>
      <point x="1490.53" y="1782"/>
      <point x="1526" y="1782" type="qcurve" smooth="yes"/>
      <point x="1581.84" y="1782"/>
      <point x="1628.06" y="1725.31"/>
      <point x="1619" y="1674" type="qcurve" smooth="yes"/>
      <point x="1612.21" y="1634.76"/>
      <point x="1556.65" y="1549.05"/>
    </contour>
  </outline>
  <guideline angle="90" x="-207" y="0"/>
</glyph>
<glyph name="uni1EBC" format="2">
  <advance width="2388"/>
  <unicode hex="1EBC"/>
  <anchor x="1622" y="1900" name="top"/>
  <anchor x="1263" y="-150" name="bottom"/>
  <anchor x="2046" y="0" name="ogonek"/>
  <outline>
    <contour>
      <point x="283" y="0" type="line"/>
      <point x="2301" y="0" type="line"/>
      <point x="2307" y="36" type="line"/>
      <point x="553" y="36" type="line"/>
      <point x="669" y="700" type="line"/>
      <point x="1707" y="700" type="line"/>
      <point x="1713" y="736" type="line"/>
      <point x="675" y="736" type="line"/>
      <point x="785" y="1364" type="line"/>
      <point x="2505" y="1364" type="line"/>
      <point x="2511" y="1400" type="line"/>
      <point x="527" y="1400" type="line"/>
    </contour>
    <contour>
      <point x="1155" y="1549" type="qcurve"/>
      <point x="1184" y="1543" type="line"/>
      <point x="1203.62" y="1595.82"/>
      <point x="1263.76" y="1632"/>
      <point x="1303" y="1632" type="qcurve" smooth="yes"/>
      <point x="1341.25" y="1632"/>
      <point x="1460.28" y="1600.12"/>
      <point x="1592.47" y="1561.88"/>
      <point x="1723.12" y="1530"/>
      <point x="1773" y="1530" type="qcurve" smooth="yes"/>
      <point x="1810.88" y="1530"/>
      <point x="1873.75" y="1554.16"/>
      <point x="1929.25" y="1612.09"/>
      <point x="1980.12" y="1708.62"/>
      <point x="2006" y="1781" type="qcurve"/>
      <point x="1977" y="1787" type="line"/>
      <point x="1957.38" y="1734.18"/>
      <point x="1897.24" y="1698"/>
      <point x="1858" y="1698" type="qcurve" smooth="yes"/>
      <point x="1819.75" y="1698"/>
      <point x="1700.72" y="1729.88"/>
      <point x="1568.53" y="1768.12"/>
      <point x="1437.88" y="1800"/>
      <point x="1388" y="1800" type="qcurve" smooth="yes"/>
      <point x="1350.12" y="1800"/>
      <point x="1287.25" y="1775.56"/>
      <point x="1231.75" y="1717.44"/>
      <point x="1180.88" y="1621"/>
    </contour>
  </outline>
  <guideline angle="90" x="-207" y="0"/>
  <guideline angle="90" x="956" y="0"/>
  <guideline angle="90" x="1766" y="0"/>
  <guideline angle="90" x="986" y="0"/>
  <guideline angle="90" x="1736" y="0"/>
</glyph>
<glyph name="uni1EBE" format="2">
  <advance width="2388"/>
  <unicode hex="1EBE"/>
  <anchor x="1619" y="1880" name="top"/>
  <anchor x="1263" y="-150" name="bottom"/>
  <anchor x="2046" y="0" name="ogonek"/>
  <outline>
    <contour>
      <point x="283" y="0" type="line"/>
      <point x="2301" y="0" type="line"/>
      <point x="2307" y="36" type="line"/>
      <point x="553" y="36" type="line"/>
      <point x="669" y="700" type="line"/>
      <point x="1707" y="700" type="line"/>
      <point x="1713" y="736" type="line"/>
      <point x="675" y="736" type="line"/>
      <point x="785" y="1364" type="line"/>
      <point x="2505" y="1364" type="line"/>
      <point x="2511" y="1400" type="line"/>
      <point x="527" y="1400" type="line"/>
    </contour>
    <contour>
      <point x="970" y="1485" type="line"/>
      <point x="1022" y="1485" type="line"/>
      <point x="1449" y="1769" type="line"/>
      <point x="1746" y="1485" type="line"/>
      <point x="2036" y="1485" type="line"/>
      <point x="1680" y="1800" type="line"/>
      <point x="1437" y="1800" type="line"/>
    </contour>
    <contour>
      <point x="2078" y="1667" type="line"/>
      <point x="2135" y="1667" type="line"/>
      <point x="2625" y="1900" type="line"/>
      <point x="2335" y="1900" type="line"/>
    </contour>
  </outline>
  <guideline angle="90" x="-207" y="0"/>
</glyph>
